<?xml version="1.0" encoding="UTF-8"?><svg id="_ÎÓÈ_1" xmlns="http://www.w3.org/2000/svg" xmlns:xlink="http://www.w3.org/1999/xlink" viewBox="0 0 272.64 348.59"><defs><style>.cls-1{fill:#363637;}.cls-1,.cls-2{opacity:.29;}.cls-3{fill:#ffca3e;}.cls-2,.cls-4,.cls-5{fill:#fff;}.cls-4{opacity:.42;}.cls-5{opacity:.37;}.cls-6{fill:#ffae4e;}.cls-7{fill:url(#_ÂÁ_Ï_ÌÌ_È_ËÂÌÚ_73);}</style><linearGradient id="_ÂÁ_Ï_ÌÌ_È_ËÂÌÚ_73" x1="192.08" y1="330.11" x2="58.46" y2="8.16" gradientUnits="userSpaceOnUse"><stop offset=".16" stop-color="#373b41"/><stop offset="1" stop-color="#ffb287"/></linearGradient></defs><path class="cls-7" d="M272.64,201.91c0,2.59-.06,5.16-.17,7.71-.65,14.74-3.18,28.73-7.33,41.76-1.56,4.92-3.36,9.7-5.37,14.33-5.85,13.5-13.53,25.72-22.7,36.39-1.3,1.52-2.64,3.01-4,4.46-.79.84-1.59,1.68-2.41,2.5-9.6,9.74-20.56,17.93-32.55,24.27-4.22,2.24-8.56,4.25-13.02,6.01-5.43,2.16-11.03,3.96-16.77,5.37-3.96.99-7.98,1.79-12.07,2.4-6.51.98-13.16,1.48-19.94,1.48-4.05,0-8.05-.18-12-.53-4.44-.4-8.82-1.01-13.12-1.83-25.23-4.82-48.01-16.83-66.28-34.28-2.43-2.31-4.77-4.72-7.03-7.22-1.12-1.24-2.22-2.5-3.3-3.78-7.65-9.11-14.23-19.31-19.54-30.45-1.77-3.71-3.4-7.53-4.88-11.45-3.24-8.59-5.76-17.63-7.49-27.07C1.08,223.18.17,214.05.02,204.62c-.01-.9-.02-1.81-.02-2.72,0-3.47.1-7,.31-10.58.8-14.08,3.15-28.85,6.84-43.69.82-3.29,1.71-6.59,2.66-9.88,3.5-12.12,7.87-24.18,13.01-35.84,1.41-3.21,2.88-6.38,4.41-9.52,7.72-15.9,16.87-30.82,27.14-43.86,1.96-2.49,3.97-4.91,6.01-7.26,4.19-4.82,8.55-9.31,13.06-13.43C90.08,12.64,108.72,2.56,128.49.42c.61-.06,1.22-.13,1.82-.17,1.99-.17,3.99-.25,6-.25,1.67,0,3.32.06,4.97.17.1,0,.21.01.3.02,5.55.4,11.02,1.44,16.38,3.04,20.76,6.21,39.97,20.94,56.48,40.6,2.06,2.45,4.08,4.99,6.06,7.59,6.23,8.2,12.03,17.11,17.32,26.48,1.27,2.25,2.51,4.54,3.71,6.85-.02-.06-.05-.11-.07-.16.31.58.61,1.16.91,1.74.3.58.6,1.16.9,1.75.27.55.55,1.09.83,1.65.52,1.04,1.04,2.09,1.54,3.14.3.62.6,1.23.89,1.84.38.8.76,1.6,1.12,2.4,1.12,2.41,2.2,4.84,3.25,7.28.43,1,.85,2.01,1.27,3.01.35.86.71,1.72,1.05,2.58.47,1.15.92,2.3,1.37,3.46.23.57.45,1.15.67,1.73.23.62.47,1.24.7,1.85.28.77.57,1.54.86,2.32.85,2.32,1.67,4.66,2.45,7,.58,1.75,1.15,3.5,1.69,5.25,1.18,3.72,2.27,7.45,3.27,11.19.05.19.1.37.15.56.16.6.32,1.2.47,1.8.16.63.32,1.25.48,1.88.16.63.32,1.25.47,1.89.28,1.15.56,2.31.82,3.45,0,.02,0,.04.01.07.19.81.37,1.62.55,2.43.11.52.23,1.05.34,1.57.26,1.19.5,2.39.74,3.58.04.17.07.35.1.53.1.5.2,1.01.29,1.51.12.62.23,1.24.34,1.87.46,2.51.87,4.99,1.25,7.48.18,1.22.35,2.43.51,3.65.11.76.21,1.53.3,2.29.07.59.14,1.18.21,1.77.06.48.11.96.16,1.44.06.49.11.97.16,1.47.07.72.15,1.45.21,2.17.05.52.1,1.05.14,1.57.02.2.03.39.05.58.04.49.08.98.11,1.46.04.51.07,1.02.11,1.53.05.71.09,1.41.13,2.11.03.57.06,1.15.09,1.73.02.47.04.94.06,1.4.02.5.04,1.01.06,1.51.02.71.04,1.43.06,2.14.03,1.25.04,2.49.04,3.73Z"/><path class="cls-6" d="M272.64,201.91c0,2.59-.06,5.16-.17,7.71-.81.6-1.64,1.16-2.51,1.66-.91.52-1.79.94-2.65,1.27-10.97,4.23-18.43-6.4-22.33-18.05-1.03,2.8-2.21,5.55-3.61,8.14-2.03,3.75-4.56,7.29-7.65,10.07-1.64,1.48-3.44,2.75-5.39,3.72-6.72,3.34-13.5,2.06-18.23-4.28-2.02-2.7-3.4-5.83-4.76-8.96-.16-.36-.32-.72-.48-1.08-1.22,4.11-3.42,7.91-5.88,11.29-3.95,5.44-9.4,10.45-15.84,11.53-9.3,1.55-16.81-6.92-20.48-16.52-1.6,4.87-4.57,9.31-7.49,13.37-2.47,3.43-5.32,6.22-8.61,7.83-2.33,1.14-4.89,1.7-7.7,1.5-6.77.49-12.1-3.47-16.31-9.33-2.92-4.05-5.89-8.5-7.49-13.37-3.67,9.59-11.18,18.07-20.48,16.52-6.44-1.08-11.89-6.09-15.84-11.53-2.46-3.38-4.65-7.19-5.88-11.29-.16.36-.32.72-.47,1.08-1.36,3.14-2.74,6.26-4.76,8.96-4.74,6.34-11.52,7.62-18.24,4.28-4.27-2.13-7.79-5.66-10.59-9.76-.89-1.3-1.7-2.65-2.45-4.03-.6-1.11-1.16-2.26-1.69-3.43-.7-1.54-1.33-3.12-1.91-4.71-3.86,11.54-11.21,22.07-22.01,18.17-.97-.35-1.95-.81-2.97-1.39-2.92-1.68-5.49-3.98-7.72-6.65-.01-.9-.02-1.81-.02-2.72,0-3.47.1-7,.31-10.58,2.22,2.59,4.77,4.82,7.66,6.47l.15.08c12.33,6.89,20.67-4.06,24.96-16.38.06-.16.11-.32.17-.49,1.04,2.8,2.24,5.55,3.65,8.14,3.14,5.75,7.51,10.99,13.2,13.79,2.52,1.24,5.04,1.84,7.47,1.79,4.12-.09,7.96-2.08,10.99-6.07,2.04-2.7,3.44-5.83,4.82-8.96.16-.36.32-.72.48-1.08,1.24,4.11,3.46,7.91,5.94,11.29,3.99,5.44,9.52,10.45,16.03,11.53,9.41,1.55,17.01-6.92,20.72-16.52,1.61,4.87,4.62,9.31,7.58,13.37,4.27,5.86,9.65,9.82,16.5,9.33,6.86.49,12.24-3.48,16.5-9.33,1.41-1.94,2.84-3.97,4.12-6.09,1.4-2.31,2.62-4.73,3.46-7.27,3.71,9.6,11.31,18.07,20.72,16.52,6.51-1.08,12.04-6.08,16.03-11.53,2.48-3.38,4.7-7.19,5.95-11.29.16.36.32.72.48,1.08,1.38,3.14,2.78,6.26,4.82,8.96,4.8,6.34,11.65,7.62,18.45,4.28,3.17-1.56,5.94-3.88,8.3-6.64,1.88-2.17,3.51-4.61,4.9-7.16,1.41-2.59,2.61-5.34,3.65-8.14,3.66,10.81,10.42,20.73,20.24,18.75,1.39-.28,2.83-.8,4.35-1.59.03,1.25.04,2.49.04,3.73Z"/><path class="cls-6" d="M265.14,251.38c-1.56,4.92-3.36,9.7-5.37,14.33-3.31,1.8-6.3,2.12-8.97,1.37-6.32-1.77-10.84-9.53-13.53-17.84-.95,2.68-2.05,5.32-3.35,7.8-2.87,5.51-6.88,10.54-12.09,13.22-6.23,3.21-12.52,1.97-16.92-4.1-1.58-2.18-2.73-4.65-3.81-7.17-.21-.47-.41-.95-.61-1.42-.14-.35-.29-.69-.44-1.04-.52,1.81-1.23,3.55-2.07,5.22-.98,1.97-2.15,3.85-3.38,5.6-3.66,5.22-8.72,10.02-14.7,11.05-1.98.34-3.87.18-5.65-.39-5.98-1.9-10.72-8.35-13.35-15.45-1.48,4.67-4.24,8.93-6.95,12.82-3.91,5.61-8.84,9.41-15.13,8.95-6.28.47-11.21-3.33-15.12-8.95-2.71-3.89-5.46-8.15-6.95-12.82-3.4,9.2-10.37,17.32-18.99,15.83-4.39-.76-8.29-3.56-11.5-7.06-1.16-1.26-2.22-2.61-3.19-3.99-2.27-3.24-4.31-6.89-5.45-10.83-.15.35-.29.7-.44,1.04-1.26,3.01-2.55,6-4.42,8.59-1.84,2.55-4.02,4.24-6.38,5.11-3.28,1.21-6.91.85-10.53-1.01-1.93-.99-3.69-2.3-5.29-3.84-2.73-2.63-4.99-5.91-6.81-9.38-1.3-2.48-2.39-5.12-3.35-7.8-.96,2.95-2.15,5.84-3.57,8.41-4.36,7.91-10.91,12.85-19.6,7.67-2.68-1.59-5.04-3.77-7.09-6.29-3.24-8.59-5.76-17.63-7.49-27.07.21.58.41,1.15.62,1.71,2.85,7.55,7.57,14.85,14.17,18.74,5.36,3.15,9.92,2.56,13.65-.19,4.39-3.22,7.66-9.38,9.79-15.9.96,2.68,2.07,5.32,3.38,7.8,2.91,5.51,6.96,10.54,12.24,13.22,6.31,3.2,12.66,1.97,17.11-4.1,1.9-2.59,3.19-5.59,4.47-8.6.15-.34.29-.69.45-1.04,1.15,3.94,3.21,7.58,5.51,10.83,3.7,5.22,8.82,10.01,14.87,11.05,8.73,1.49,15.78-6.64,19.22-15.83.74,2.29,1.78,4.48,2.98,6.58,1.25,2.18,2.66,4.26,4.05,6.24,3.95,5.61,8.95,9.41,15.3,8.95,6.36.46,11.35-3.33,15.31-8.95,2.74-3.89,5.53-8.15,7.03-12.81,3.44,9.2,10.5,17.32,19.22,15.83,6.04-1.04,11.16-5.83,14.87-11.05,2.3-3.24,4.36-6.89,5.51-10.83.15.35.3.7.44,1.04,1.25,2.93,2.51,5.85,4.33,8.4.05.06.1.14.14.2,4.45,6.07,10.81,7.3,17.11,4.1,5.28-2.68,9.33-7.71,12.24-13.22,1.31-2.48,2.42-5.12,3.38-7.8,3.11,9.5,8.64,18.28,16.56,18.21,2.12-.02,4.42-.68,6.89-2.13.55-.32,1.08-.67,1.61-1.04Z"/><path class="cls-6" d="M237.07,302.1c-1.3,1.52-2.64,3.01-4,4.46-.79.84-1.59,1.68-2.41,2.5-1.62-2.57-2.95-5.61-3.98-8.75-.03-.08-.05-.16-.08-.25-.06.17-.12.35-.19.52-.8,2.21-1.72,4.38-2.8,6.44-2.56,4.91-6.14,9.39-10.78,11.79-3.38,1.74-6.79,2.01-9.82.73-1.94-.82-3.73-2.27-5.26-4.39-1.67-2.31-2.81-4.98-3.94-7.66-.13-.3-.26-.62-.39-.92-1.01,3.51-2.83,6.76-4.86,9.65-3.26,4.65-7.78,8.93-13.1,9.86-7.69,1.33-13.9-5.92-16.94-14.12-1.32,4.16-3.78,7.96-6.19,11.42-3.49,5.01-7.89,8.39-13.49,7.98-5.6.41-10-2.97-13.48-7.98-2.42-3.47-4.88-7.27-6.2-11.42-3.03,8.2-9.24,15.44-16.94,14.12-5.32-.92-9.84-5.2-13.1-9.86-2.03-2.89-3.85-6.14-4.86-9.65-.13.31-.26.62-.39.92-1.12,2.68-2.27,5.36-3.94,7.66-3.92,5.42-9.52,6.51-15.08,3.66-4.65-2.39-8.22-6.87-10.78-11.79-1.15-2.21-2.13-4.56-2.98-6.95-1.06,3.27-2.44,6.45-4.12,9.11-.64,1.01-1.33,1.95-2.06,2.79-2.43-2.31-4.77-4.72-7.03-7.22,1.09-.12,2.13-.43,3.11-.91,4.84-2.33,8.36-8.61,10.54-15.27.86,2.39,1.85,4.74,3.02,6.96,2.59,4.91,6.21,9.39,10.91,11.78,5.62,2.86,11.29,1.76,15.26-3.65,1.69-2.31,2.84-4.98,3.99-7.66.13-.31.26-.62.4-.92,1.02,3.51,2.86,6.76,4.91,9.65,3.3,4.65,7.87,8.93,13.26,9.85,7.78,1.33,14.07-5.91,17.14-14.11,1.33,4.16,3.83,7.96,6.27,11.42,3.52,5,7.98,8.39,13.65,7.98,5.66.42,10.12-2.97,13.64-7.98,2.44-3.47,4.93-7.27,6.27-11.42,3.07,8.2,9.36,15.44,17.14,14.11,5.39-.92,9.95-5.2,13.26-9.85,2.05-2.89,3.89-6.14,4.91-9.65.13.31.27.62.4.92,1.14,2.68,2.3,5.35,3.99,7.66,3.97,5.41,9.64,6.51,15.26,3.65,4.7-2.39,8.32-6.87,10.91-11.78,1.17-2.22,2.16-4.56,3.02-6.96.72,2.2,1.59,4.36,2.6,6.35,1.48,2.9,3.26,5.44,5.35,7.21Z"/><path class="cls-6" d="M266.61,152.34c-.68.67-1.38,1.3-2.11,1.88-.86.69-1.76,1.33-2.7,1.89-6.36,3.79-11.57,2.24-15.65-1.95-3.39-3.49-5.99-8.8-7.78-14.36-.96,2.72-2.07,5.39-3.38,7.91-2.91,5.59-6.96,10.68-12.23,13.4-6.3,3.25-12.66,2-17.1-4.16-1.89-2.62-3.19-5.67-4.47-8.71-.15-.35-.29-.7-.45-1.05-1.15,3.99-3.21,7.69-5.51,10.97-3.7,5.29-8.82,10.16-14.86,11.2-3.4.59-6.55-.3-9.32-2.16-4.34-2.91-7.78-8.19-9.88-13.88-1.5,4.73-4.29,9.04-7.03,12.99-3.95,5.69-8.94,9.54-15.29,9.07-6.35.47-11.34-3.37-15.29-9.07-2.74-3.94-5.52-8.26-7.03-12.99-3.44,9.32-10.49,17.56-19.2,16.05-6.04-1.05-11.16-5.91-14.86-11.2-2.3-3.29-4.36-6.98-5.51-10.97-.15.35-.3.7-.44,1.05-1.28,3.05-2.58,6.09-4.47,8.71-1.99,2.75-4.35,4.52-6.93,5.35-3.18,1.03-6.69.61-10.17-1.19-5.27-2.72-9.32-7.81-12.23-13.4-1.31-2.52-2.42-5.19-3.38-7.91-1.16,3.59-2.66,7.08-4.49,10.05-4.39,7.11-10.71,11.17-18.94,6.26-1.94-1.16-3.71-2.61-5.31-4.28-1.24-1.28-2.38-2.69-3.43-4.19.82-3.29,1.71-6.59,2.66-9.88,1.04,1.17,2.16,2.25,3.35,3.21.94.76,1.92,1.45,2.95,2.06,11.51,6.79,19.32-3.56,23.41-15.41.11-.31.21-.6.3-.9.97,2.72,2.1,5.39,3.42,7.91,2.94,5.59,7.04,10.68,12.38,13.4,4.29,2.19,8.61,2.34,12.35.32,1.82-.98,3.49-2.46,4.96-4.48,1.92-2.63,3.23-5.67,4.52-8.71.15-.35.3-.7.45-1.05.91,3.15,2.4,6.11,4.14,8.83.46.73.94,1.45,1.44,2.14,2.61,3.69,5.91,7.16,9.75,9.29,1.67.93,3.43,1.6,5.28,1.91,8.83,1.51,15.96-6.72,19.44-16.05,1.52,4.73,4.34,9.05,7.11,12.99,4,5.69,9.05,9.54,15.47,9.07,6.43.47,11.48-3.38,15.48-9.07,2.77-3.94,5.59-8.26,7.11-12.99,2.08,5.57,5.46,10.75,9.72,13.69,2.88,1.99,6.16,2.97,9.72,2.36,6.11-1.05,11.29-5.91,15.04-11.2,2.33-3.29,4.41-6.98,5.58-10.97.15.35.3.7.45,1.05,1.29,3.05,2.6,6.09,4.52,8.71,4.49,6.16,10.93,7.41,17.3,4.15,5.33-2.72,9.43-7.81,12.38-13.4,1.33-2.52,2.45-5.19,3.42-7.91,1.31,3.99,3.03,7.87,5.17,11.02,3.94,5.8,9.28,9.18,16.03,6.52.63-.25,1.28-.56,1.95-.92.16.6.32,1.2.47,1.8.16.63.32,1.25.48,1.88.16.63.32,1.25.47,1.89.28,1.15.56,2.31.82,3.45Z"/><path class="cls-3" d="M250.89,104.4c-.23.11-.46.2-.69.29-2.4.96-4.62,1.06-6.63.51-5.95-1.62-10.19-8.92-12.72-16.73-.89,2.51-1.91,4.98-3.13,7.31-2.69,5.17-6.43,9.88-11.31,12.39-5.82,3.01-11.7,1.85-15.81-3.84-1.75-2.43-2.95-5.24-4.13-8.05-.14-.32-.28-.65-.41-.97-1.06,3.69-2.97,7.1-5.1,10.14-3.42,4.89-8.15,9.39-13.74,10.36-1.27.22-2.51.22-3.7.02-6.34-1.05-11.38-7.59-14.06-14.86-1.39,4.37-3.97,8.36-6.5,12.01-3.65,5.26-8.26,8.82-14.14,8.38-5.87.44-10.49-3.12-14.14-8.38-2.53-3.65-5.11-7.64-6.5-12.01-2.86,7.78-8.45,14.73-15.43,15-.76.03-1.54-.02-2.33-.16-3.71-.64-7.06-2.86-9.88-5.7-1.42-1.43-2.71-3.02-3.85-4.66-1.22-1.75-2.37-3.62-3.33-5.59-.71-1.47-1.31-2.98-1.76-4.55-.14.32-.28.65-.41.97-1.19,2.81-2.38,5.63-4.13,8.05-4.11,5.69-9.99,6.85-15.82,3.84-4.5-2.32-8.05-6.52-10.68-11.23-.22-.38-.42-.77-.63-1.16-1.21-2.32-2.23-4.8-3.13-7.31-3.5,10.83-10.3,20.68-20.38,15.76-.42-.21-.85-.43-1.28-.7-.82-.49-1.6-1.03-2.35-1.63,1.41-3.21,2.88-6.38,4.41-9.52,1.54.67,3.01,1,4.39,1.04,7.5.21,12.73-8.09,15.67-17.07.9,2.52,1.94,4.98,3.16,7.31,1.07,2.04,2.31,4,3.72,5.79,2.16,2.75,4.73,5.08,7.71,6.6,5.9,3,11.84,1.85,16-3.85,1.77-2.43,2.98-5.24,4.18-8.05.14-.32.28-.65.42-.97.95,3.27,2.57,6.32,4.43,9.09.24.35.48.71.72,1.05,2.09,2.95,4.66,5.76,7.62,7.73,1.94,1.3,4.05,2.24,6.29,2.62.87.15,1.72.2,2.56.15,6.97-.39,12.54-7.29,15.41-14.99,1.4,4.37,4.01,8.36,6.57,12.01,3.7,5.26,8.37,8.82,14.31,8.39,5.95.43,10.61-3.13,14.31-8.39,2.56-3.64,5.17-7.64,6.58-12.01,2.26,6.06,6.19,11.62,11.16,13.9,2.1.97,4.39,1.35,6.81.93,5.65-.97,10.44-5.46,13.9-10.35,2.15-3.04,4.08-6.46,5.15-10.15.14.32.28.65.41.97,1.19,2.82,2.41,5.63,4.18,8.05,4.16,5.69,10.1,6.85,16,3.85,4.93-2.52,8.72-7.22,11.44-12.39,1.23-2.33,2.26-4.8,3.16-7.31,1.66,5.07,4.05,9.93,7.17,13.16,1.38,1.42,2.89,2.53,4.55,3.19.14.06.28.11.42.16.3.62.6,1.23.89,1.84.38.8.76,1.6,1.12,2.4,1.12,2.41,2.2,4.84,3.25,7.28Z"/><path class="cls-3" d="M220.5,51.43c-1.26,1.1-2.62,2.05-4.07,2.8-5.82,3.01-11.7,1.85-15.81-3.85-1.75-2.42-2.95-5.24-4.13-8.05-.14-.33-.28-.65-.41-.97-1.06,3.69-2.97,7.11-5.1,10.14-3.42,4.89-8.15,9.39-13.74,10.36-8.06,1.4-14.57-6.22-17.76-14.84-.2.63-.43,1.26-.68,1.88-1.46,3.64-3.66,7.01-5.82,10.13-3.65,5.26-8.26,8.82-14.14,8.39-5.87.44-10.49-3.12-14.14-8.39-2.53-3.65-5.11-7.64-6.5-12.01-2.76,7.49-8.04,14.22-14.66,14.94-1,.11-2.03.08-3.09-.1-5.58-.97-10.19-3.44-13.74-10.36-.81-1.58-1.47-3.81-1.94-5.73-.51-2.09-.8-3.79-.8-3.79,0,0-3.67,5.99-6.08,8.39-4.97,4.97-10.8,6.85-16.63,3.85-1.23-.63-2.39-1.41-3.49-2.3-1.23-1-2.37-2.15-3.41-3.4,1.96-2.49,3.97-4.91,6.01-7.26.49.31.99.59,1.5.85,1.07.55,2.11.92,3.14,1.15,4.62,1.02,8.85-.99,13.62-4.24,3.96-2.7,8.69-10.83,8.69-10.83-.56,4.73.3,8.8,2.07,12.96,2.34,5.52,6.48,7.62,12.13,8.58,8.16,1.39,14.75-6.22,17.97-14.84.12.36.24.71.37,1.06,1.46,3.96,3.85,7.6,6.2,10.95,3.7,5.26,8.37,8.82,14.31,8.39,5.95.43,9.19-3.13,12.89-8.39.95-1.35,1.79-2.76,2.53-4.21,1.26-2.46,2.26-5.05,3.15-7.8,3.22,8.62,12.12,16.24,20.28,14.84,5.65-.97,14.82-15.16,14.82-20.13,0,0,5.72,8.06,7.5,10.49,3.15,4.32,8.11,4.96,12.89,3.71,2.06,2.45,4.08,4.99,6.06,7.59Z"/><path class="cls-5" d="M272.64,201.91c0,2.59-.06,5.16-.17,7.71-.65,14.74-3.18,28.73-7.33,41.76-1.56,4.92-3.36,9.7-5.37,14.33-5.85,13.5-13.53,25.72-22.7,36.39-1.3,1.52-2.64,3.01-4,4.46-.79.84-1.59,1.68-2.41,2.5-9.6,9.74-20.56,17.93-32.55,24.27-4.22,2.24-8.56,4.25-13.02,6.01-5.43,2.16-11.03,3.96-16.77,5.37-3.96.99-7.98,1.79-12.07,2.4-6.51.98-13.16,1.48-19.94,1.48-4.05,0-8.05-.18-12-.53-4.44-.4-8.82-1.01-13.12-1.83-25.23-4.82-48.01-16.83-66.28-34.28-2.43-2.31-4.77-4.72-7.03-7.22-1.12-1.24-2.22-2.5-3.3-3.78-7.65-9.11-14.23-19.31-19.54-30.45.06.03.1.07.16.1,5.45,9.72,11.91,18.63,19.25,26.6,2.11,2.29,4.28,4.5,6.53,6.63,1.94,1.84,3.94,3.63,5.98,5.35,9.58,8.06,20.22,14.73,31.67,19.78,12.54,5.54,26.06,9.15,40.2,10.54,4.35.43,8.75.65,13.21.65,8.22,0,16.28-.74,24.1-2.18,4.95-.9,9.8-2.08,14.54-3.53,6.09-1.85,12.01-4.14,17.72-6.83,5.04-2.38,9.92-5.07,14.6-8.07.98-.62,1.95-1.26,2.91-1.91,7.34-4.96,14.21-10.67,20.49-17.04.09-.09.18-.18.27-.27,1.73-1.75,3.41-3.56,5.04-5.42,1.3-1.47,2.57-2.98,3.81-4.51,5.77-7.14,10.89-14.93,15.27-23.29,2.13-4.05,4.08-8.23,5.85-12.54,1.71-4.17,3.25-8.46,4.61-12.85,2.86-9.26,4.91-19,6.05-29.15.21-1.78.38-3.57.52-5.37.19-2.45.34-4.91.42-7.41.08-2.09.12-4.2.12-6.32,0-12.52-1.34-25.75-3.86-39.22-.62-3.31-1.32-6.64-2.08-9.97-3.02-13.23-7.14-26.57-12.22-39.56-1.57-4.03-3.24-8.03-4.99-11.98-1.19-2.67-2.42-5.33-3.69-7.95-.02-.06-.05-.11-.07-.16.31.58.61,1.16.91,1.74.3.58.6,1.16.9,1.75.27.55.55,1.09.83,1.65.52,1.04,1.04,2.09,1.54,3.14.3.62.6,1.23.89,1.84.38.8.76,1.6,1.12,2.4,1.12,2.41,2.2,4.84,3.24,7.28.43,1,.86,2.01,1.28,3.01.35.86.71,1.72,1.05,2.58.47,1.15.92,2.3,1.37,3.46.23.57.45,1.15.67,1.73.23.62.47,1.24.7,1.85.28.77.57,1.54.86,2.32.85,2.32,1.66,4.66,2.45,7,.58,1.75,1.15,3.5,1.69,5.25,1.18,3.72,2.27,7.45,3.27,11.19.05.19.1.37.15.56.16.6.32,1.2.47,1.8.16.63.32,1.25.48,1.88.16.63.32,1.25.47,1.89.28,1.15.56,2.31.82,3.45,0,.02,0,.04.01.07.19.81.37,1.62.55,2.43.11.52.23,1.05.34,1.57.26,1.19.5,2.39.74,3.58.04.17.07.35.1.53.1.5.2,1.01.29,1.51.12.62.23,1.24.34,1.87.46,2.51.87,4.99,1.25,7.48.18,1.22.35,2.43.51,3.65.11.76.21,1.53.3,2.29.07.59.14,1.18.21,1.77.06.48.11.96.16,1.44.06.49.11.97.16,1.47.07.72.15,1.45.21,2.17.05.52.1,1.05.14,1.57.02.2.03.39.05.58.04.49.08.98.11,1.46.04.51.07,1.02.11,1.53.05.71.09,1.41.13,2.11.03.57.06,1.15.09,1.73.02.47.04.94.06,1.4.02.5.04,1.01.06,1.51.02.71.04,1.43.06,2.14.03,1.25.04,2.49.04,3.73Z"/><path class="cls-1" d="M272.64,201.91c0,2.59-.06,5.16-.17,7.71-.65,14.74-3.18,28.73-7.33,41.76-1.56,4.92-3.36,9.7-5.37,14.33-5.85,13.5-13.53,25.72-22.7,36.39-1.3,1.52-2.64,3.01-4,4.46-.79.84-1.59,1.68-2.41,2.5-9.6,9.74-20.56,17.93-32.55,24.27-4.22,2.24-8.56,4.25-13.02,6.01-5.43,2.16-11.03,3.96-16.77,5.37-3.96.99-7.98,1.79-12.07,2.4-6.51.98-13.16,1.48-19.94,1.48-4.05,0-8.05-.18-12-.53-4.44-.4-8.82-1.01-13.12-1.83-25.23-4.82-48.01-16.83-66.28-34.28-2.43-2.31-4.77-4.72-7.03-7.22-1.12-1.24-2.22-2.5-3.3-3.78-7.65-9.11-14.23-19.31-19.54-30.45.06.03.1.07.16.1,3.93,2.4,8,4.64,12.19,6.73,6.72,3.36,13.77,6.32,21.1,8.84.57.2,1.14.39,1.72.58,12.94,4.3,25.97,6.97,38.83,8.11,14.91,1.32,29.6.57,43.64-2.12,5.82-1.12,11.54-2.57,17.12-4.34,8.52-2.71,16.71-6.17,24.46-10.36,2.85-1.54,5.64-3.18,8.37-4.91,5.38-3.42,10.51-7.21,15.35-11.36,1.06-.9,2.09-1.81,3.12-2.76,2.09-1.91,4.13-3.89,6.1-5.95,8.89-9.23,16.51-19.87,22.55-31.81,1.4-2.78,2.73-5.63,3.96-8.54,1.41-3.34,2.71-6.78,3.88-10.3.66-1.99,1.29-4.02,1.87-6.09,2.31-8.09,4.05-16.68,5.2-25.61.7-5.41,1.2-10.93,1.48-16.55.28-5.4.36-10.89.24-16.42-.05-2.55-.14-5.11-.27-7.68-.42-8.25-1.27-16.58-2.55-24.86-.19-1.21-.38-2.42-.58-3.63-.68-4.03-1.45-8.05-2.33-12.05-.85-3.9-1.8-7.77-2.85-11.61,1.27,2.25,2.51,4.54,3.71,6.85-.02-.06-.05-.11-.07-.16.31.58.61,1.16.91,1.74.3.58.6,1.16.9,1.75.27.55.55,1.09.83,1.65.52,1.04,1.04,2.09,1.54,3.14.3.62.6,1.23.89,1.84.38.8.76,1.6,1.12,2.4,1.12,2.41,2.2,4.84,3.25,7.28.43,1,.85,2.01,1.27,3.01.35.86.71,1.72,1.05,2.58.47,1.15.92,2.3,1.37,3.46.23.57.45,1.15.67,1.73.23.62.47,1.24.7,1.85.28.77.57,1.54.86,2.32.85,2.32,1.67,4.66,2.45,7,.58,1.75,1.15,3.5,1.69,5.25,1.18,3.72,2.27,7.45,3.27,11.19.05.19.1.37.15.56.16.6.32,1.2.47,1.8.16.63.32,1.25.48,1.88.16.63.32,1.25.47,1.89.28,1.15.56,2.31.82,3.45,0,.02,0,.04.01.07.19.81.37,1.62.55,2.43.11.52.23,1.05.34,1.57.26,1.19.5,2.39.74,3.58.04.17.07.35.1.53.1.5.2,1.01.29,1.51.12.62.23,1.24.34,1.87.46,2.51.87,4.99,1.25,7.48.18,1.22.35,2.43.51,3.65.11.76.21,1.53.3,2.29.07.59.14,1.18.21,1.77.06.48.11.96.16,1.44.06.49.11.97.16,1.47.07.72.15,1.45.21,2.17.05.52.1,1.05.14,1.57.02.2.03.39.05.58.04.49.08.98.11,1.46.04.51.07,1.02.11,1.53.05.71.09,1.41.13,2.11.03.57.06,1.15.09,1.73.02.47.04.94.06,1.4.02.5.04,1.01.06,1.51.02.71.04,1.43.06,2.14.03,1.25.04,2.49.04,3.73Z"/><path class="cls-2" d="M169.79,173.96c-12.99,62.67-58.17,103.72-102.12,97.51-30.84-4.36-52.88-30.84-58.78-67.91-2.51-15.75-2.11-33.41,1.76-52.09C23.64,88.8,77.31,6.8,121.26,13.01c23.53,3.33,39.51,31.27,47.27,66.15,6.74,30.24,7.3,65.7,1.26,94.81Z"/><path class="cls-4" d="M119.19,25.69c-17.14-1.9-33.59,18.55-43.19,30.16-17.26,20.86-30.39,45.42-37.8,71.48-3.78,13.28-6.07,27.03-6.36,40.85-.22,10.21-1.36,28.74,5.59,37.11.41.5.86.95,1.35,1.37,4.86,4.17,13.16,4.54,17.59-.36.43-.48.83-1,1.19-1.56,5.06-7.79,4.21-19.49,5.3-28.42,1.47-12.02,3.73-23.94,6.76-35.66,5.32-20.62,13.62-40.35,23.43-59.22,4.91-9.46,10.22-18.71,15.76-27.82,2.24-3.68,21.39-26.72,10.39-27.94Z"/><path class="cls-4" d="M88.3,115.83c-3.76,10.85-6.09,22.37-6.95,33.84-.7,9.32,6.15,16.16,10.9,6.84,5.22-10.22,16.09-58.42,10.16-60.89-4.94-2.07-11.98,14.06-14.11,20.21Z"/></svg>