<?xml version="1.0" encoding="UTF-8"?><svg id="_ÎÓÈ_1" xmlns="http://www.w3.org/2000/svg" xmlns:xlink="http://www.w3.org/1999/xlink" viewBox="0 0 272.64 348.59"><defs><style>.cls-1{opacity:.31;}.cls-1,.cls-2,.cls-3{fill:#fff;}.cls-2{opacity:.42;}.cls-3{opacity:.37;}.cls-4{fill:#003229;opacity:.16;}.cls-5{fill:#33787a;}.cls-6{fill:url(#_ÂÁ_Ï_ÌÌ_È_ËÂÌÚ_58);}</style><linearGradient id="_ÂÁ_Ï_ÌÌ_È_ËÂÌÚ_58" x1="186.12" y1="329.97" x2="64.06" y2="3.45" gradientUnits="userSpaceOnUse"><stop offset=".15" stop-color="#9cbe8a"/><stop offset=".9" stop-color="#bfecc0"/></linearGradient></defs><path class="cls-6" d="M272.64,201.9c0,15.16-1.96,29.6-5.62,43.09-.9,3.3-1.89,6.55-2.99,9.73-2.87,8.38-6.43,16.33-10.58,23.82-8.1,14.61-18.51,27.4-30.67,37.9-23.52,20.32-53.63,32.14-86.45,32.14-7.12,0-14.1-.56-20.93-1.63-2.26-.35-4.5-.77-6.72-1.24-3.52-.74-7-1.63-10.41-2.65-.94-.28-1.89-.57-2.82-.88-7.8-2.52-15.3-5.77-22.42-9.66-4.75-2.59-9.33-5.48-13.72-8.64-3.11-2.23-6.12-4.6-9.03-7.1-.96-.82-1.9-1.66-2.84-2.51-.64-.58-1.27-1.16-1.89-1.75-6.03-5.69-11.59-11.96-16.58-18.76-1.24-1.69-2.45-3.42-3.62-5.18-1.11-1.65-2.18-3.33-3.22-5.04-2.56-4.2-4.91-8.55-7.06-13.06-.63-1.33-1.25-2.66-1.84-4.01-1.5-3.4-2.88-6.88-4.13-10.44-3.41-9.63-5.92-19.82-7.42-30.48-.61-4.29-1.05-8.67-1.32-13.1-.21-3.47-.32-6.99-.32-10.54,0-4.61.18-9.32.54-14.11.21-2.8.48-5.63.81-8.47.53-4.64,1.22-9.34,2.06-14.07.87-4.94,1.9-9.92,3.09-14.91,1.33-5.6,2.86-11.21,4.57-16.8.98-3.19,2.01-6.37,3.1-9.54,2.12-6.16,4.46-12.26,7-18.27.89-2.09,1.8-4.17,2.73-6.23,1.95-4.33,4.01-8.59,6.16-12.78.98-1.9,1.97-3.78,3-5.64,3.97-7.28,8.24-14.28,12.78-20.92,2.61-3.81,5.31-7.5,8.09-11.06.28-.35.56-.71.84-1.06,5.06-6.38,10.4-12.3,15.97-17.65C90.19,11.7,112.55,0,136.32,0c6.38,0,12.67.84,18.81,2.44,2.05.53,4.09,1.15,6.11,1.84,5.41,1.87,10.71,4.31,15.89,7.27,4.77,2.72,9.44,5.88,13.97,9.44,2.09,1.63,4.15,3.35,6.18,5.14,1.23,1.08,2.44,2.19,3.64,3.32.27.26.53.51.8.76,1.59,1.52,3.16,3.09,4.71,4.7,1.11,1.15,2.2,2.32,3.28,3.51,2.92,3.21,5.77,6.58,8.53,10.08.9,1.14,1.79,2.3,2.67,3.46.91,1.21,1.82,2.44,2.71,3.68,3.67,5.09,7.18,10.41,10.5,15.93.4.66.8,1.32,1.19,1.99.85,1.44,1.69,2.89,2.51,4.35,1.27,2.25,2.5,4.53,3.71,6.83-.02-.05-.05-.09-.07-.14.3.58.61,1.16.91,1.74.3.58.6,1.17.9,1.75.3.58.59,1.18.88,1.76.29.59.58,1.17.87,1.76.29.59.57,1.18.86,1.77.28.59.56,1.19.85,1.78.46.96.91,1.93,1.34,2.89.93,2.03,1.84,4.07,2.72,6.12.53,1.21,1.04,2.43,1.54,3.65.02.05.04.09.06.14.24.58.48,1.17.72,1.75s.47,1.17.7,1.75c.74,1.85,1.45,3.7,2.14,5.57.58,1.55,1.16,3.12,1.71,4.69.11.3.21.59.32.89.43,1.25.86,2.49,1.28,3.74.07.2.14.4.2.6.14.42.28.84.42,1.26.21.63.41,1.26.61,1.88.2.63.4,1.25.6,1.88.73,2.34,1.43,4.69,2.1,7.05.22.78.44,1.57.65,2.35.17.63.35,1.26.51,1.88.16.63.33,1.26.49,1.89.13.49.25.98.37,1.47.2.77.39,1.53.57,2.3.14.55.27,1.1.4,1.65.02.1.05.21.07.31.13.56.27,1.12.39,1.69.02.07.04.14.05.22.13.56.25,1.13.38,1.69.01.05.02.1.03.15.12.51.23,1.03.34,1.54.02.08.03.16.05.24.08.41.17.82.26,1.22.1.49.21.97.3,1.45.08.4.16.79.24,1.19.11.59.23,1.18.34,1.77.07.37.14.74.21,1.11.31,1.63.59,3.25.85,4.87.16.95.31,1.9.45,2.85.33,2.17.63,4.33.9,6.47.08.63.15,1.25.22,1.87.07.56.13,1.13.19,1.69.08.77.15,1.53.23,2.29.06.6.12,1.21.17,1.81.06.6.1,1.19.15,1.78,0,.07,0,.15.01.23,0,.14.02.27.03.41.01.13.02.27.03.4.03.34.05.67.07,1.01.02.34.05.69.07,1.03.01.18.03.37.04.56.04.77.08,1.53.12,2.29.03.51.05,1.02.07,1.52,0,.12.01.23.01.34.02.51.04,1.01.06,1.51.05,1.6.08,3.19.09,4.77,0,.36,0,.73,0,1.09Z"/><path class="cls-5" d="M209.72,38.43c-4.12,5.98-8.78,11.52-13.61,16.44-9.29,9.47-19.67,17.64-30.7,24.91-12.1,7.97-24.96,14.84-38,21.1-10.53,5.05-21.27,9.7-32.01,14.35-5.37,2.32-10.73,4.64-16.07,7-4.43,1.97-8.85,3.97-13.23,6.03-5.62,2.65-11.2,5.4-16.69,8.32-7.7,4.08-15.19,8.62-22.12,13.89-4.81,3.66-9.35,7.67-13.48,12.12-.04.04-.07.08-.11.12-4.69,5.07-8.82,10.67-12.36,16.62.53-4.64,1.22-9.34,2.06-14.07,2.86-3.7,5.97-7.21,9.32-10.48.64-.62,1.28-1.24,1.94-1.84,4.47-4.14,9.28-7.9,14.31-11.34,6.44-4.41,13.24-8.3,20.17-11.86,6.43-3.3,12.95-6.39,19.53-9.38,4.49-2.03,9.02-4.01,13.55-5.97,4.61-1.99,9.24-3.97,13.86-5.94,10.34-4.42,20.66-8.89,30.8-13.73,12.74-6.09,25.32-12.76,37.14-20.52,11.36-7.46,22.02-15.92,31.44-25.82,3.88-4.08,7.61-8.6,10.98-13.45,1.11,1.15,2.2,2.32,3.28,3.51Z"/><path class="cls-5" d="M223.63,55.65c-2.99,4.61-6.24,9.04-9.7,13.27-12.4,15.15-27.65,27.57-44.21,37.94-7.81,4.9-15.91,9.35-24.14,13.42-12.97,6.42-26.37,11.98-39.89,17.12-5.29,2.01-10.63,3.92-15.95,5.89-5.39,1.99-10.77,4.02-16.05,6.25-3.82,1.61-7.6,3.31-11.31,5.18-1.15.58-2.3,1.18-3.43,1.8-12.98,7.06-24.41,16.4-33.89,27.51-3.14,3.68-6.07,7.55-8.76,11.59-2.52,3.76-4.83,7.67-6.93,11.71-3.06,5.86-5.62,11.97-7.73,18.22-.61-4.29-1.05-8.67-1.32-13.1,2.04-4.63,4.35-9.14,6.9-13.5,2.31-3.95,4.82-7.75,7.52-11.39,3.16-4.29,6.59-8.36,10.25-12.2,10.18-10.67,22.18-19.51,35.56-26.16.91-.45,1.82-.89,2.73-1.32,3.69-1.73,7.44-3.33,11.21-4.84,5.57-2.24,11.21-4.31,16.87-6.36,5.04-1.82,10.08-3.62,15.09-5.5,13.73-5.17,27.3-10.8,40.42-17.4,7.58-3.81,15.04-7.98,22.24-12.53,17.01-10.76,32.58-23.74,44.96-39.72,2.39-3.08,4.67-6.27,6.82-9.55.91,1.21,1.82,2.44,2.71,3.68Z"/><path class="cls-5" d="M259.46,126.95c-.38.52-.76,1.03-1.14,1.54-2.91,3.82-6.09,7.4-9.45,10.65-.8.77-1.61,1.54-2.43,2.29-20.58,18.91-47.11,30.42-72.15,42.13-5.32,2.49-10.64,4.96-15.97,7.46-21.85,10.23-43.59,20.79-63.85,33.92-11.25,7.28-21.93,15.42-31.64,24.54-10.12,9.51-19.19,20.08-26.75,31.87-.66,1.02-1.3,2.06-1.94,3.1-1.49,2.45-2.91,4.95-4.26,7.5-.32.6-.63,1.2-.94,1.81-1.24-1.69-2.45-3.42-3.62-5.18.25-.47.51-.94.77-1.4,1.54-2.78,3.16-5.49,4.84-8.14.46-.72.93-1.44,1.4-2.15,7.11-10.8,15.41-20.57,24.59-29.44,11.15-10.78,23.6-20.24,36.79-28.63,21.49-13.66,44.52-24.55,67.59-35.21,4.16-1.93,8.33-3.84,12.49-5.77,25.25-11.69,52.26-23.32,72.54-42.92.64-.62,1.27-1.25,1.9-1.88,3.05-3.09,5.88-6.42,8.45-9.94.34-.46.66-.91.98-1.38.11.3.21.59.32.89.43,1.25.86,2.49,1.28,3.74.07.2.14.4.2.6Z"/><path class="cls-5" d="M268.85,163.12c-.03.05-.07.1-.11.15-.75.99-1.52,1.96-2.3,2.91-7.07,8.57-15.54,15.58-24.78,21.56-14.52,9.41-30.93,16.3-46.74,22.79-28.32,11.61-57.46,21.77-83.75,37.69-18.23,11.04-35.21,24.95-47.46,42.42-3.33,4.75-6.3,9.76-8.86,15.05-1.15,2.38-2.2,4.8-3.17,7.26-.5,1.27-.97,2.55-1.42,3.84-.96-.82-1.9-1.66-2.84-2.51-.64-.58-1.27-1.16-1.89-1.75.43-1.16.88-2.31,1.35-3.45,1.62-3.96,3.47-7.82,5.55-11.57,1.61-2.91,3.35-5.74,5.2-8.48,10.84-16.09,25.52-29.3,41.63-40.15,3.68-2.48,7.42-4.83,11.22-7.07,6.08-3.58,12.3-6.87,18.62-9.95,21.53-10.51,44.21-18.63,66.32-27.75,14.26-5.87,28.6-11.95,41.82-19.95,2.03-1.23,4.01-2.51,5.95-3.85,8.47-5.86,15.99-12.79,22.22-21.02.72-.95,1.43-1.92,2.11-2.9.08.41.17.82.26,1.22.1.49.21.97.3,1.45.08.4.16.79.24,1.19.11.59.23,1.18.34,1.77.07.37.14.74.21,1.11Z"/><path class="cls-5" d="M267.02,244.99c-.9,3.3-1.89,6.55-2.99,9.73-3.66,3.01-7.45,5.88-11.34,8.61-5.28,3.71-10.74,7.17-16.33,10.4-18.61,10.76-38.3,19.43-57.58,28.87-18.62,9.12-37.76,18.76-53.06,32.99-1.42,1.32-2.82,2.7-4.17,4.13-2.17,2.29-4.25,4.7-6.16,7.23-2.26-.35-4.5-.77-6.72-1.24,1.66-2.35,3.46-4.62,5.35-6.79,2.82-3.26,5.87-6.31,8.99-9.12,15.5-13.96,34.7-23.58,53.31-32.64,19.43-9.46,39.27-18.13,58-28.95,7.84-4.52,15.59-9.59,22.96-15.22,3.34-2.55,6.59-5.21,9.74-7.99Z"/><path class="cls-5" d="M161.24,4.28c-1.68,1.12-3.38,2.2-5.09,3.24-8.66,5.25-17.78,9.68-27.06,13.78-6.09,2.68-12.23,5.21-18.36,7.74-3.82,1.57-7.63,3.14-11.41,4.74-3.66,1.55-7.31,3.11-10.95,4.71-8.73,3.82-17.39,7.84-25.84,12.24-5.67,2.94-11.24,6.07-16.67,9.42,2.61-3.81,5.31-7.5,8.09-11.06,6.37-3.5,12.9-6.77,19.51-9.87,8.36-3.92,16.83-7.57,25.27-11.11,7.49-3.13,15.08-6.11,22.62-9.24,11.61-4.8,23.07-9.93,33.8-16.44,2.05.53,4.09,1.15,6.11,1.84Z"/><path class="cls-5" d="M46.97,181.87c-5.61,8.81-13.86,15.71-18.7,25.06-.14.28-.28.56-.42.84-1.71,3.5-2.73,6.8-3.26,9.82-2,11.21,2.59,18.58,2.66,18.55,2.49-1.46,4.68-3.22,6.6-5.22,4.91-5.09,8.1-11.66,10.14-18.33,4.69-15.35,3.32-31.22,2.99-30.71Z"/><path class="cls-5" d="M71.54,202.89c-4.12,1.18-8.12,2.84-11.77,5.07-3.33,2.04-7.35,4.8-9.03,8.45-.15.34.63.52.67.49.16.4,11.19.99,16.38,1.38,4.59.34,9.1-.16,13.46-1.67,8.51-2.94,15.68-8.67,22.57-14.27.81-.66-22.08-2.37-32.27.55Z"/><path class="cls-5" d="M47.13,242.38c-5.77.59-21.82,3.52-29.28,7.59-3.12,1.7-6.1,3.71-8.79,6.06,1.26,3.56,2.64,7.04,4.13,10.44,1.62-.25,3.14-.49,4.34-.67,4.56-.67,8.85-2.14,12.78-4.56,7.35-4.52,12.93-11.28,18.23-17.98.23-.29.46-.58.69-.87.13-.16-.67-.16-2.1-.02Z"/><path class="cls-5" d="M103.79,143.78c-5.75,5.45-12.72,9.46-18.79,14.54-2.17,1.81-4.22,3.75-6.06,5.94-.02.02-.04.05-.06.07-11.76,14.04-7.5,27.32-7.42,27.3,26.11-7.62,33.04-48.51,32.32-47.84Z"/><path class="cls-5" d="M176.52,249.14c-.05-.39-9.55-3.34-14-4.83-3.94-1.31-7.98-1.88-12.13-1.53-8.08.68-15.61,4.1-22.87,7.47-.85.39,18.76,6.96,28.31,6.66,3.85-.12,7.72-.68,11.41-1.82,3.36-1.05,7.48-2.57,9.76-5.38.21-.26-.44-.59-.48-.58Z"/><path class="cls-5" d="M156.33,261.16c-12.57,5.58-18.48,19.8-21.15,31.07-2.09,8.82-2.2,15.83-1.96,15.53,5.81-7.2,13.72-12.49,18.99-20.16.25-.36.49-.73.73-1.11,8.88-13.98,3.46-25.37,3.39-25.34Z"/><path class="cls-5" d="M232.66,219.58c-.02-.1-.7-.32-1.78-.61-3.03-.82-9.21-2.2-12.58-3.01-4.03-.98-8.12-1.19-12.22-.49-7.99,1.36-15.2,5.41-22.15,9.38-.82.47,19.29,5.34,28.77,4.24,3.83-.44,7.63-1.33,11.21-2.79,1.35-.55,2.82-1.19,4.22-1.96,1.99-1.1,3.85-2.47,5.04-4.22.19-.28-.49-.56-.53-.54Z"/><path class="cls-5" d="M214.64,237.84c-15.92,4.02-24.58,21.77-28.36,32.87-1.87,5.47-2.54,9.32-2.32,9.13,7.28-6.4,16.46-10.34,23.05-17.61,6.16-6.81,7.87-13.57,8.15-18.24.22-3.76-.47-6.16-.51-6.15Z"/><path class="cls-5" d="M272.54,196.04c-.01-.5-.03-1-.06-1.51,0-.11,0-.22-.01-.34-.02-.5-.04-1.01-.07-1.52-.04-.76-.08-1.52-.12-2.29,0-.19-.02-.37-.04-.56-.88-.15-1.69-.3-2.39-.43-.51-.09-1.02-.18-1.53-.24-3.57-.49-7.15-.39-10.7.41-6.78,1.54-12.88,5.01-18.72,8.71-.97.61-1.94,1.23-2.89,1.85-.17.11.63.37,2.1.7,5.34,1.19,19.47,3.25,26.86,1.98,1.06-.18,2.13-.4,3.18-.66,1.52-.36,3.01-.81,4.48-1.33,0-1.58-.04-3.17-.09-4.77Z"/><path class="cls-5" d="M265.74,208.55c-23.52,6.87-29.76,43.71-29.12,43.11,7.04-6.66,16.07-10.94,22.38-18.45,10.66-12.67,6.82-24.68,6.74-24.66Z"/><path class="cls-5" d="M128.16,275.59c-.12-.37-10.01-1.46-14.66-2.06-4.12-.54-8.2-.32-12.2.82-7.8,2.21-14.54,7-21.02,11.69-.77.55,19.74,3.25,29.06,1.14,3.76-.85,7.45-2.15,10.85-3.97,3.1-1.67,6.86-3.95,8.55-7.14.16-.29-.55-.5-.58-.48Z"/><path class="cls-5" d="M87.14,316.81c-.22-.32-10.04,1.28-14.68,1.95-3,.43-5.88,1.25-8.59,2.5-1,.46-1.98.98-2.94,1.56-.56.34-1.1.7-1.64,1.06,4.4,3.16,8.97,6.05,13.72,8.64,1.91-1.08,3.75-2.29,5.48-3.64,1.05-.81,2.05-1.68,3.01-2.59,2.54-2.44,5.54-5.64,6.32-9.17.07-.33-.66-.33-.69-.3Z"/><path class="cls-5" d="M110.13,296.52c-12.63,8.76-15.07,26.55-15.04,38.41,0,2.82.16,5.32.35,7.26.94.3,1.88.59,2.82.88,1.35-2.12,2.82-4.17,4.3-6.21,3.39-4.7,6.84-9.37,8.99-14.82,6.09-15.4-1.35-25.56-1.42-25.52Z"/><path class="cls-5" d="M111.44,66.75c0-.35-7.44-4.57-10.92-6.62-.43-.26-.88-.5-1.32-.74-2.7-1.41-5.57-2.37-8.62-2.76-6.93-.91-13.9.6-20.64,2.11-.79.18,14.54,9.29,22.64,10.78.15.03.3.06.45.08,3.13.55,6.33.74,9.5.47,3.02-.27,6.77-.8,9.21-2.75.22-.18-.27-.58-.3-.57Z"/><path class="cls-5" d="M95.69,80c-4.17.63-7.9,2.36-11.17,4.73-13.14,9.47-19.17,29.11-18.68,28.75,2.22-1.6,4.59-2.95,6.99-4.25,4.95-2.67,10.05-5.11,14.26-8.94,10.57-9.6,8.67-20.3,8.6-20.3Z"/><path class="cls-5" d="M156.64,39.99c-.02-.29-6-2.52-10.07-4.06-.66-.25-1.26-.48-1.79-.69-3.34-1.29-6.8-1.95-10.38-1.82-6.99.25-13.61,2.88-20.01,5.47-.75.31,15.87,6.78,24.11,6.92,3.32.06,6.68-.27,9.9-1.1,1.07-.28,2.23-.6,3.37-1.02,2-.73,3.93-1.73,5.25-3.21.19-.21-.35-.53-.39-.51Z"/><path class="cls-5" d="M139.83,52.61c-19.23,8.76-20.02,40.97-19.54,40.37,5.18-6.55,12.37-11.32,16.83-18.5,7.54-12.13,2.78-21.9,2.71-21.87Z"/><path class="cls-5" d="M177.13,11.55c-6.44,1.66-12.18,5.31-17.72,8.88-.68.44,16.86,3.7,24.97,2.31,2.28-.39,4.54-.97,6.72-1.75-4.53-3.55-9.2-6.72-13.97-9.44Z"/><path class="cls-5" d="M185.05,27.7c-16.56,4.83-23.19,26.89-24.76,34.55-.35,1.72-.45,2.72-.35,2.62.32-.3.63-.59.96-.88,5.91-5.26,13.18-8.89,18.34-15.03,9.19-10.93,5.88-21.28,5.81-21.26Z"/><path class="cls-5" d="M66.96,84.36c-.04-.34-8.18-3.04-11.99-4.39-.46-.16-.91-.31-1.38-.45-2.94-.88-5.96-1.26-9.06-1.06-.66.04-1.31.11-1.96.19-3.25.42-6.42,1.31-9.51,2.43-1.02,1.86-2.02,3.74-3,5.64,1.98.66,4.34,1.37,6.78,2.01,3.62.95,7.42,1.74,10.47,1.95.59.04,1.15.06,1.68.06,3.33-.04,6.67-.46,9.87-1.39,2.92-.84,6.49-2.09,8.5-4.48.18-.22-.37-.52-.4-.5Z"/><path class="cls-5" d="M42.93,110.95c-1.61-.19-3.19-.21-4.75-.07-4.89.4-9.51,2.26-13.65,4.79-3.93,2.4-7.44,5.4-10.36,8.33-1.09,3.17-2.13,6.36-3.1,9.54,2.69-.67,5.41-1.22,8.11-1.87,3.46-.83,6.86-1.82,10.07-3.44,1.37-.7,2.61-1.44,3.72-2.22,9.22-6.44,10.02-15.05,9.96-15.06Z"/><path class="cls-5" d="M125.27,167.7c-4.28.07-8.58.64-12.69,1.85-3.74,1.11-8.34,2.73-10.91,5.82-.24.28.48.66.52.65.05.43,10.55,3.85,15.46,5.57,4.35,1.51,8.84,2.2,13.44,1.88,8.97-.63,17.38-4.31,25.49-7.94.96-.42-20.72-8.01-31.31-7.83Z"/><path class="cls-5" d="M173.51,114.56c-1,.92-2.04,1.79-3.1,2.64-7.34,5.84-15.84,10.25-22.08,17.42-12.06,13.87-8.02,27.26-7.93,27.24,16.83-4.61,25.99-23.04,30.2-35.49,2.36-6.96,3.17-12.04,2.91-11.81Z"/><path class="cls-5" d="M198.62,134.61c-4.27.07-8.58.64-12.69,1.85-3.74,1.11-8.34,2.73-10.91,5.82-.23.28.48.66.52.65.05.43,10.55,3.85,15.46,5.57,4.35,1.51,8.83,2.2,13.44,1.88,8.98-.63,17.38-4.31,25.5-7.93.95-.42-20.72-8.01-31.32-7.83Z"/><path class="cls-5" d="M234.12,71.58c-7.63,6.43-16.83,10.93-23.46,18.56-12.06,13.87-8.02,27.26-7.93,27.24,21.32-5.84,30.33-33.88,32.57-43.81-.39-.67-.78-1.33-1.19-1.99Z"/><path class="cls-5" d="M253.11,109.71c-.24-.58-.48-1.17-.72-1.75-.02-.05-.04-.09-.06-.14-.5-1.22-1.01-2.44-1.54-3.65-.88-2.05-1.79-4.09-2.72-6.12l-.5.13c-.51.13-1.03.27-1.54.42-1.07.32-2.21.68-3.36,1.11-2.85,1.05-5.72,2.51-7.56,4.71-.24.28.48.66.52.65.03.27,4.12,1.7,8.38,3.15,2.58.88,5.23,1.77,7.07,2.42.51.18,1.02.34,1.53.49.39.12.78.23,1.18.33-.22-.58-.46-1.17-.7-1.75Z"/><path class="cls-5" d="M62.36,195.49c-.01-.06-.02-.11-.03-.17-.14-.51-.4-.96-.78-1.33-.38-.37-.82-.63-1.33-.78-.54-.14-1.07-.14-1.61,0-.39.09-.74.27-1.03.54-.33.21-.59.5-.78.85-.27.47-.41.98-.41,1.53,0,.55.14,1.05.41,1.53.27.45.63.82,1.09,1.08.04.03.08.05.12.08.11.08.24.13.38.16.13.08.26.13.4.16.39.12.77.14,1.16.05.39-.02.75-.13,1.08-.35l.59-.46c.36-.36.61-.79.75-1.28.03-.14.05-.29.06-.43.09-.39.07-.79-.05-1.18Z"/><path class="cls-5" d="M52.67,226.87c-.14-.51-.4-.96-.78-1.33l-.61-.47c-.47-.27-.98-.41-1.52-.41-.42-.02-.8.07-1.16.26-.37.12-.7.33-.97.62-.29.27-.5.6-.62.97-.19.36-.28.75-.26,1.16.04.27.07.54.11.8.14.51.4.96.78,1.33l.61.47c.47.27.98.41,1.52.41.42.02.8-.07,1.16-.26.37-.12.7-.33.97-.62.29-.27.5-.6.62-.97.19-.36.28-.75.26-1.16-.04-.27-.07-.53-.11-.8Z"/><path class="cls-5" d="M12.14,239.31c-3.29,0-3.3,5.12,0,5.12s3.3-5.12,0-5.12Z"/><path class="cls-5" d="M116.42,158.75c.02-.41-.07-.78-.25-1.13-.12-.37-.32-.68-.61-.95-.2-.15-.4-.31-.6-.46-.46-.27-.95-.4-1.49-.4-.04,0-.08,0-.12.01-.27.04-.54.07-.82.11-.24.1-.49.21-.73.31-.36.19-.64.46-.86.79-.19.19-.32.42-.39.68-.14.24-.21.5-.21.77-.07.27-.07.54,0,.82,0,.28.07.53.21.77.12.38.34.71.63.99.21.16.41.32.62.48.24.1.49.21.73.31.27.04.54.07.82.11.27-.04.54-.07.82-.11.24-.1.49-.21.73-.31.36-.19.64-.46.86-.79.19-.19.32-.42.39-.68.19-.37.28-.76.26-1.18,0-.04,0-.09,0-.13Z"/><path class="cls-5" d="M102.5,190.49c-.1-.32-.28-.59-.53-.82-.23-.25-.51-.43-.82-.53-.3-.16-.63-.23-.99-.22-.66.03-1.35.25-1.81.75-.13.17-.27.35-.4.52-.23.4-.35.83-.35,1.29.03.22.06.44.08.66-.01.34.06.66.21.95.1.31.27.57.51.8.22.24.49.41.8.51.29.16.61.23.95.21.64-.03,1.3-.24,1.75-.73.13-.17.26-.33.39-.5.22-.39.34-.8.34-1.25.03-.22.06-.44.08-.66.01-.35-.06-.68-.22-.99Z"/><path class="cls-5" d="M175.47,158.65c-.09-.21-.17-.41-.26-.62-.16-.3-.38-.54-.67-.73-.16-.16-.35-.27-.57-.33-.2-.12-.42-.18-.65-.18-.23-.06-.46-.06-.69,0-.23.01-.45.06-.66.15-.38.03-.75.14-1.05.34-.18.14-.36.28-.54.41-.26.24-.44.52-.55.85-.12.21-.18.43-.18.67-.08.35-.06.71.05,1.06.09.21.18.42.27.63.24.4.55.72.95.95.85.59,2.23.62,3.09.06.67-.44,1.3-1.08,1.46-1.9l.09-.69c-.03-.23-.06-.46-.09-.69Z"/><path class="cls-5" d="M189.98,118.48c-.47-.36-.99-.53-1.54-.53-.36-.06-.72-.02-1.07.12-.37.16-.67.43-.88.76-.47.53-.64,1.29-.54,1.97.11.8.53,1.41,1.21,1.85.18.11.35.23.52.34.64.41,1.54.38,2.19,0,.69-.4,1.03-1.09,1.07-1.87.01-.22.02-.44.04-.66.04-.79-.4-1.53-1-1.99Z"/><path class="cls-5" d="M233.13,122.39s0-.02,0-.03c-.05-.22-.15-.44-.27-.64-.23-.39-.54-.7-.93-.93-.1-.06-.21-.1-.32-.14-.31-.16-.64-.24-1-.22-.47,0-.91.12-1.31.35,0,0-.02,0-.02.01-.08.05-.4.27-.56.44-.17.17-.35.37-.45.6-.17.27-.26.56-.28.87-.07.31-.06.62.04.94.08.19.16.37.24.56.04.06.08.12.12.17.1.18.22.34.38.49.24.25.51.43.84.54.1.06.21.11.32.13.04,0,.08.01.12.02.12.03.24.05.36.06.33.07.65.06.98-.04.42-.12.78-.33,1.08-.63.17-.15.3-.34.42-.54.21-.37.37-.88.35-1.31,0-.09-.07-.61-.09-.69Z"/><path class="cls-5" d="M154.23,27.08c-.07-.04-.15-.08-.22-.12-2.04-1.08-4.64.25-4.64,2.66s2.6,3.74,4.64,2.66c.07-.04.15-.08.22-.12,1.92-1.01,1.92-4.08,0-5.09Z"/><path class="cls-5" d="M116.11,49.21c-.13-.4-.35-.74-.66-1.04-.4-.4-.87-.67-1.42-.83-1.08-.3-2.36,0-3.13.83-.13.14-.26.28-.39.42-.16.2-.31.41-.47.61-.1.24-.2.48-.3.72-.04.27-.07.53-.11.8-.02.41.07.8.26,1.16.07.25.2.48.39.66.13.23.31.41.54.54.19.19.41.31.66.39.36.19.74.27,1.16.26.18-.02.36-.04.54-.06.58,0,1.12-.15,1.62-.44.48-.29.87-.67,1.15-1.15.29-.5.44-1.04.44-1.62.02-.44-.08-.86-.28-1.24Z"/><path class="cls-5" d="M69.76,69.06c-.31-.52-.72-.93-1.23-1.23-.09-.06-.18-.12-.27-.18-.27-.11-.54-.23-.81-.34-.45-.14-.9-.16-1.35-.06-.3,0-.59.08-.85.23-.42.14-.78.37-1.09.7-.18.23-.35.46-.53.68-.11.27-.23.54-.34.81-.14.45-.16.9-.06,1.35.02.45.15.87.4,1.25.06.09.12.18.18.27.31.52.72.93,1.23,1.23.54.31,1.11.47,1.73.47.3-.04.61-.08.91-.12.58-.16,1.09-.46,1.52-.88.33-.31.57-.68.71-1.1.22-.41.31-.85.3-1.32,0-.62-.16-1.2-.47-1.73Z"/><path class="cls-5" d="M22.31,105.9c-.42,0-.79-.06-1.13-.17.89-2.09,1.8-4.17,2.73-6.23,2.68,1.42,2.15,6.41-1.6,6.41Z"/><path class="cls-5" d="M60,104c-.16-.55-.43-1.03-.84-1.44-.22-.17-.44-.34-.66-.51-.51-.29-1.06-.44-1.64-.44-.45-.02-.87.08-1.26.28-.4.13-.75.36-1.05.67-.32.3-.54.64-.67,1.05-.2.39-.3.81-.28,1.26.04.29.08.58.12.87.15.55.43,1.03.84,1.44.22.17.44.34.66.51.51.29,1.06.44,1.65.44.45.02.87-.08,1.26-.28.4-.13.75-.36,1.05-.67.32-.3.54-.64.67-1.05.2-.39.3-.81.28-1.26-.04-.29-.08-.58-.12-.87Z"/><path class="cls-5" d="M112.12,79.6c-.12-.37-.33-.7-.62-.97-.2-.16-.41-.31-.61-.47-.47-.27-.98-.41-1.52-.41-.27.04-.54.07-.8.11-.51.14-.96.4-1.33.78-.07.07-.15.13-.23.2-.3.28-.51.6-.63.98-.19.36-.28.75-.26,1.17-.02.42.07.81.26,1.17.12.38.33.7.63.98.21.16.41.32.62.48.47.27.99.41,1.53.41.27-.04.54-.07.81-.11.52-.14.96-.41,1.34-.78.07-.08.13-.15.2-.23.29-.27.5-.6.62-.97.19-.36.28-.75.26-1.16.02-.42-.07-.8-.26-1.16Z"/><path class="cls-5" d="M151.03,54.7c-3.66,0-3.67,5.69,0,5.69s3.67-5.69,0-5.69Z"/><path class="cls-5" d="M198.36,25.92c-3.55,0-3.55,5.51,0,5.51s3.55-5.51,0-5.51Z"/><path class="cls-5" d="M90.12,307.48c-.17-.59-.47-1.11-.9-1.55-.24-.18-.47-.37-.71-.55-.55-.32-1.14-.48-1.77-.48-.48-.02-.93.08-1.35.3-.43.14-.81.38-1.13.73-.34.32-.58.69-.73,1.13-.22.42-.32.87-.3,1.35.04.31.08.62.13.93.17.59.47,1.11.9,1.55.24.18.47.37.71.55.55.32,1.14.48,1.77.48.48.02.93-.08,1.35-.3.43-.14.81-.38,1.13-.73.34-.32.58-.69.73-1.13.22-.42.32-.87.3-1.35-.04-.31-.08-.62-.12-.93Z"/><path class="cls-5" d="M127.89,292.72c-.16-.27-.35-.52-.57-.75-.23-.17-.45-.35-.68-.52-.27-.11-.53-.23-.8-.34-.45-.14-.89-.16-1.33-.06-.3,0-.58.08-.85.23-.28.08-.53.22-.74.43-.25.15-.45.35-.6.6-.21.21-.35.45-.43.74-.21.4-.31.83-.29,1.29.04.3.08.59.12.89.11.27.22.53.34.8.17.23.35.45.52.68.23.17.45.35.68.52.27.11.53.23.8.34.45.14.89.16,1.33.06.3,0,.58-.08.85-.23.41-.13.77-.37,1.08-.69.11-.1.2-.22.28-.35.1-.11.19-.22.27-.35,0-.01.02-.03.03-.04.59-.95.59-2.29,0-3.24Z"/><path class="cls-5" d="M137.17,260.38c-.55-.94-1.58-1.53-2.67-1.53s-2.12.59-2.67,1.53c-.28.48-.42,1-.42,1.56,0,.56.14,1.08.42,1.56.03.08.07.16.1.23.26.45.62.8,1.07,1.07.46.27.96.4,1.5.41.54,0,1.04-.14,1.5-.41.45-.26.8-.62,1.07-1.07.04-.08.07-.16.1-.23.28-.48.42-1,.42-1.56,0-.56-.14-1.08-.42-1.56Z"/><path class="cls-5" d="M181.36,260.27c-.15-.52-.41-.97-.79-1.35-.21-.16-.41-.32-.62-.48-.48-.28-.99-.42-1.54-.42-.42-.02-.81.07-1.18.26-.38.12-.71.33-.98.63-.3.28-.51.6-.63.98-.19.36-.28.76-.26,1.18.04.27.07.54.11.81.15.52.41.97.79,1.35.21.16.41.32.62.48.48.28.99.42,1.54.42.42.02.81-.07,1.18-.26.38-.12.71-.33.98-.63.3-.28.51-.6.63-.98.19-.36.28-.76.26-1.18-.04-.27-.07-.54-.11-.81Z"/><path class="cls-5" d="M189.28,233.76c-.06-.13-.11-.26-.17-.4-.04-.1-.08-.2-.13-.3-.01-.03-.03-.07-.04-.1-.01-.02-.03-.04-.04-.06-.02-.03-.03-.06-.04-.09-.3-.51-.71-.91-1.22-1.22-.27-.11-.54-.23-.81-.34-.6-.16-1.2-.16-1.8,0-.44.1-.83.31-1.15.61-.37.24-.66.56-.87.95-.61,1.04-.61,2.38,0,3.42.31.53.75.97,1.28,1.28.49.28,1.16.49,1.73.47.17,0-.02,0,.47-.06-.15.02.34-.02.47-.07.27-.11.53-.22.8-.34.39-.21.7-.5.93-.86.21-.21.35-.45.43-.74.21-.4.3-.83.29-1.28-.04-.3-.08-.59-.12-.89Z"/><path class="cls-5" d="M246.21,207.43c-3.75,0-3.76,5.83,0,5.83s3.76-5.83,0-5.83Z"/><path class="cls-5" d="M229.75,236.04c0-.21-.05-.41-.16-.59-.09-.29-.26-.54-.49-.75-.16-.12-.32-.24-.47-.37-.19-.08-.37-.16-.56-.24-.31-.1-.62-.11-.94-.04-.31.01-.6.11-.87.28-.1.08-.21.16-.31.23-.36.21-.65.5-.86.86-.22.37-.33.78-.33,1.21.03.21.06.43.09.64.11.41.32.76.62,1.06.22.23.48.4.77.5.29.15.6.22.93.21.43,0,.84-.11,1.21-.33.36-.21.65-.5.86-.86.08-.1.16-.21.23-.31.08-.19.16-.37.24-.56.1-.31.11-.62.04-.94Z"/><path class="cls-3" d="M272.64,201.9c0,15.16-1.96,29.6-5.62,43.09-.9,3.3-1.89,6.55-2.99,9.73-2.87,8.38-6.43,16.33-10.58,23.82-8.1,14.61-18.51,27.4-30.67,37.9-23.52,20.32-53.63,32.14-86.45,32.14-7.12,0-14.1-.56-20.93-1.63-2.26-.35-4.5-.77-6.72-1.24-3.52-.74-7-1.63-10.41-2.65-.94-.28-1.89-.57-2.82-.88-7.8-2.52-15.3-5.77-22.42-9.66-4.75-2.59-9.33-5.48-13.72-8.64-3.11-2.23-6.12-4.6-9.03-7.1-.96-.82-1.9-1.66-2.84-2.51-.64-.58-1.27-1.16-1.89-1.75-6.03-5.69-11.59-11.96-16.58-18.76-1.24-1.69-2.45-3.42-3.62-5.18-1.11-1.65-2.18-3.33-3.22-5.04-2.56-4.2-4.91-8.55-7.06-13.06.06.03.11.07.16.1,2.45,4.38,5.11,8.59,7.97,12.63.95,1.34,1.92,2.66,2.91,3.97,1.23,1.62,2.5,3.22,3.8,4.78,5.18,6.24,10.87,11.97,16.99,17.12.59.49,1.18.98,1.77,1.47,1,.82,2.01,1.61,3.04,2.4,3.91,3,7.98,5.78,12.19,8.32,4.7,2.84,9.59,5.39,14.63,7.62,5.37,2.38,10.91,4.4,16.6,6.04,2.46.71,4.95,1.36,7.47,1.93,3.77.85,7.59,1.54,11.46,2.07,2.49.34,4.99.61,7.52.8,3.46.27,6.97.41,10.5.41,33.08,0,63.41-12,87.02-32.63,8.47-7.4,16.07-15.9,22.62-25.37,4.09-5.9,7.77-12.18,11-18.79,1.65-3.36,3.18-6.82,4.59-10.35,5.31-13.36,8.85-27.87,10.32-43.28.1-1.03.19-2.07.27-3.11.12-1.47.21-2.95.28-4.45.15-2.87.22-5.77.22-8.7,0-1.42-.02-2.86-.05-4.3-.01-.54-.03-1.07-.05-1.61-.23-6.95-.84-14.09-1.83-21.35-.31-2.29-.65-4.59-1.04-6.9-.39-2.39-.83-4.79-1.3-7.2-1.54-7.83-3.48-15.73-5.78-23.6-.53-1.8-1.07-3.6-1.64-5.39-1.26-4.01-2.61-8-4.05-11.97-1.58-4.35-3.27-8.68-5.06-12.95-1.9-4.54-3.92-9.02-6.04-13.43-.02-.05-.05-.09-.07-.14.3.58.61,1.16.91,1.74.3.58.6,1.17.9,1.75.3.58.59,1.18.88,1.76.29.59.58,1.17.87,1.76.29.59.57,1.18.86,1.77.28.59.56,1.19.85,1.78.46.96.91,1.93,1.34,2.89.93,2.03,1.83,4.07,2.72,6.12.52,1.21,1.03,2.43,1.54,3.65.02.05.04.09.06.14.24.58.48,1.17.72,1.75.23.58.47,1.17.7,1.75.74,1.85,1.46,3.71,2.15,5.57.58,1.55,1.16,3.12,1.71,4.69.11.3.21.59.32.89.43,1.25.86,2.49,1.28,3.74.07.2.14.4.2.6.14.42.28.84.42,1.26.21.63.41,1.26.61,1.88.2.63.4,1.25.6,1.88.73,2.34,1.43,4.69,2.1,7.05.22.78.44,1.57.65,2.35.17.63.35,1.26.51,1.88.16.63.33,1.26.49,1.89.13.49.25.98.37,1.47.2.77.39,1.53.57,2.3.14.55.27,1.1.4,1.65.02.1.05.21.07.31.13.56.27,1.12.39,1.69.02.07.04.14.05.22.13.56.25,1.13.38,1.69.01.05.02.1.03.15.12.51.23,1.03.34,1.54.02.08.03.16.05.24.08.41.17.82.26,1.22.1.49.21.97.3,1.45.08.4.16.79.24,1.19.11.59.23,1.18.34,1.77.07.37.14.74.21,1.11.31,1.63.59,3.25.85,4.87.16.95.31,1.9.45,2.85.33,2.17.63,4.33.9,6.47.08.63.15,1.25.22,1.87.07.56.13,1.13.19,1.69.08.77.15,1.53.23,2.29.06.6.12,1.21.17,1.81.06.6.1,1.19.15,1.78,0,.07,0,.15.01.23,0,.14.02.27.03.41.01.13.02.27.03.4.02.34.05.67.07,1.01.02.34.05.69.07,1.03.01.18.03.37.04.56.04.77.08,1.53.12,2.29.03.51.05,1.02.07,1.52,0,.12.01.23.01.34.02.51.04,1.01.06,1.51.05,1.6.08,3.19.09,4.77,0,.36,0,.73,0,1.09Z"/><path class="cls-4" d="M272.64,201.9c0,15.16-1.96,29.6-5.62,43.09-.9,3.3-1.89,6.55-2.99,9.73-2.87,8.38-6.43,16.33-10.58,23.82-8.1,14.61-18.51,27.4-30.67,37.9-23.52,20.32-53.63,32.14-86.45,32.14-7.12,0-14.1-.56-20.93-1.63-2.26-.35-4.5-.77-6.72-1.24-3.52-.74-7-1.63-10.41-2.65-.94-.28-1.89-.57-2.82-.88-7.8-2.52-15.3-5.77-22.42-9.66-4.75-2.59-9.33-5.48-13.72-8.64-3.11-2.23-6.12-4.6-9.03-7.1-.96-.82-1.9-1.66-2.84-2.51-.64-.58-1.27-1.16-1.89-1.75-6.03-5.69-11.59-11.96-16.58-18.76-1.24-1.69-2.45-3.42-3.62-5.18-1.11-1.65-2.18-3.33-3.22-5.04-2.56-4.2-4.91-8.55-7.06-13.06.06.03.11.07.16.1,5.03,3.07,10.28,5.89,15.73,8.45.77.36,1.53.71,2.3,1.06.94.43,1.89.85,2.85,1.26,4.58,1.98,9.29,3.78,14.14,5.39,2.47.82,4.94,1.58,7.41,2.28.3.09.6.17.91.26,1.73.48,3.45.93,5.18,1.35,19.08,4.68,38.16,5.91,56.41,3.96l1.5-.17c2.22-.26,4.42-.56,6.61-.92.64-.1,1.28-.21,1.92-.32,1.68-.29,3.36-.62,5.03-.97,2.3-.48,4.59-1.01,6.86-1.6,2.72-.7,5.4-1.47,8.05-2.32.71-.23,1.42-.46,2.13-.7,2.25-.76,4.48-1.57,6.67-2.44,7.05-2.77,13.84-6.09,20.29-9.92,2.42-1.44,4.79-2.94,7.11-4.53,10.83-7.37,20.58-16.32,28.87-26.72,4.84-6.06,9.19-12.62,12.99-19.65.79-1.47,1.56-2.96,2.3-4.47.14-.27.27-.55.4-.83.01-.02.02-.05.04-.07.33-.69.65-1.36.97-2.05,2.15-4.66,4.07-9.5,5.74-14.52.17-.52.35-1.05.51-1.58.27-.84.54-1.69.79-2.55.85-2.84,1.63-5.74,2.33-8.7.14-.61.28-1.22.42-1.83.26-1.14.51-2.29.75-3.45.27-1.32.53-2.65.77-3.98.7-3.81,1.27-7.7,1.75-11.64,1.06-8.82,1.56-17.95,1.52-27.23,0-2.17-.05-4.34-.12-6.51-.28-8.84-1.05-17.78-2.31-26.7-.4-2.84-.84-5.68-1.35-8.51-1.29-7.34-2.91-14.63-4.86-21.79,1.27,2.25,2.5,4.53,3.71,6.83-.02-.05-.05-.09-.07-.14.3.58.61,1.16.91,1.74.3.58.6,1.17.9,1.75.3.58.59,1.18.88,1.76.29.59.58,1.17.87,1.76.29.59.57,1.18.86,1.77.28.59.56,1.19.85,1.78.46.96.91,1.93,1.34,2.89.93,2.03,1.84,4.07,2.72,6.12.53,1.21,1.04,2.43,1.54,3.65.02.05.04.09.06.14.24.58.48,1.17.72,1.75s.47,1.17.7,1.75c.74,1.85,1.45,3.7,2.14,5.57.58,1.55,1.16,3.12,1.71,4.69.11.3.21.59.32.89.43,1.25.86,2.49,1.28,3.74.07.2.14.4.2.6.14.42.28.84.42,1.26.21.63.41,1.26.61,1.88.2.63.4,1.25.6,1.88.73,2.34,1.43,4.69,2.1,7.05.22.78.44,1.57.65,2.35.17.63.35,1.26.51,1.88.16.63.33,1.26.49,1.89.13.49.25.98.37,1.47.2.77.39,1.53.57,2.3.14.55.27,1.1.4,1.65.02.1.05.21.07.31.13.56.27,1.12.39,1.69.02.07.04.14.05.22.13.56.25,1.13.38,1.69.01.05.02.1.03.15.12.51.23,1.03.34,1.54.02.08.03.16.05.24.08.41.17.82.26,1.22.1.49.21.97.3,1.45.08.4.16.79.24,1.19.11.59.23,1.18.34,1.77.07.37.14.74.21,1.11.31,1.63.59,3.25.85,4.87.16.95.31,1.9.45,2.85.33,2.17.63,4.33.9,6.47.08.63.15,1.25.22,1.87.07.56.13,1.13.19,1.69.08.77.15,1.53.23,2.29.06.6.12,1.21.17,1.81.06.6.1,1.19.15,1.78,0,.07,0,.15.01.23,0,.14.02.27.03.41.01.13.02.27.03.4.03.34.05.67.07,1.01.02.34.05.69.07,1.03.01.18.03.37.04.56.04.77.08,1.53.12,2.29.03.51.05,1.02.07,1.52,0,.12.01.23.01.34.02.51.04,1.01.06,1.51.05,1.6.08,3.19.09,4.77,0,.36,0,.73,0,1.09Z"/><path class="cls-1" d="M175.18,169.85c-12.7,60.3-58.08,99.56-102.52,93.28-31.19-4.41-53.63-30.08-59.85-65.84-2.64-15.19-2.36-32.21,1.43-50.19C26.95,86.79,80.62,8.13,125.06,14.41c23.8,3.36,40.13,30.4,48.21,64.06,7.01,29.19,7.82,63.36,1.92,91.37Z"/><path class="cls-2" d="M111.22,36.68c-.16-.02-.33-.03-.49-.04-7.74-.63-15.91,4.3-22.37,9.45-1.89,1.51-3.64,3.04-5.18,4.45-11.24,10.3-21.21,22.77-29.58,36.57-2.21,3.63-4.3,7.35-6.28,11.15-3.41,6.53-6.46,13.3-9.14,20.2-1.94,4.98-3.68,10.03-5.21,15.13-1.55,5.16-2.89,10.36-4,15.58-.63,2.95-1.19,5.91-1.68,8.87-1.37,8.34-2.16,16.69-2.3,24.9-.06,2.91-.03,5.8.07,8.67.08,2.2.21,4.4.39,6.57.42,5.04.23,11.69,2.8,16.34.35.63.74,1.21,1.19,1.75,3.37,4.05,9.58,5.62,14.52,3.89,1.67-.58,3.19-1.53,4.41-2.88,6.07-6.7,4.88-21.76,6.31-30.32,1.26-7.57,2.65-15.22,4.26-22.86.51-2.44,1.04-4.88,1.6-7.32,1.61-7.05,3.43-14.06,5.54-20.94.81-2.66,1.66-5.29,2.56-7.9,1.29-3.76,2.67-7.47,4.17-11.12.66-1.63,1.35-3.24,2.06-4.85,2.96-6.68,6.19-13.22,9.63-19.66,2.73-5.1,5.58-10.14,8.52-15.12,2.02-3.43,4.08-6.83,6.17-10.22,4.56-7.39,9.25-14.69,13.96-21.97.84-1.29,1.7-2.67,1.71-4.2.02-2.73-1.47-3.89-3.66-4.13Z"/><path class="cls-2" d="M80.33,126.82c-3.76,10.85-6.09,22.37-6.95,33.84-.7,9.32,6.15,16.16,10.9,6.84,5.22-10.22,16.09-58.42,10.16-60.89-4.94-2.07-11.99,14.06-14.11,20.21Z"/></svg>