<?xml version="1.0" encoding="UTF-8"?><svg id="_ÎÓÈ_1" xmlns="http://www.w3.org/2000/svg" xmlns:xlink="http://www.w3.org/1999/xlink" viewBox="0 0 272.64 348.59"><defs><style>.cls-1{fill:#1d1d1b;}.cls-1,.cls-2{opacity:.2;}.cls-3{fill:#59cefa;}.cls-2,.cls-4,.cls-5{fill:#fff;}.cls-4{opacity:.42;}.cls-5{opacity:.35;}.cls-6{fill:#ffc055;}.cls-7{opacity:.16;}.cls-8{fill:url(#_ÂÁ_Ï_ÌÌ_È_ËÂÌÚ_41);}</style><linearGradient id="_ÂÁ_Ï_ÌÌ_È_ËÂÌÚ_41" x1="166.97" y1="341.97" x2="93.38" y2="1.24" gradientUnits="userSpaceOnUse"><stop offset=".17" stop-color="#960000"/><stop offset=".83" stop-color="#93a3a6"/></linearGradient></defs><path class="cls-8" d="M272.64,201.91c0,.67,0,1.35,0,2.01-.19,16.8-2.81,32.7-7.46,47.38-2.32,7.33-5.16,14.35-8.46,21.03-22.92,46.43-68.23,76.26-120.39,76.26-.48,0-.95,0-1.43,0-.29,0-.58,0-.86,0-.47,0-.94-.02-1.41-.03-.52-.01-1.03-.03-1.55-.05-.03,0-.05,0-.07,0-.52-.02-1.04-.04-1.56-.07-.06,0-.12,0-.18,0-.51-.02-1.02-.06-1.53-.09-.41-.02-.81-.05-1.22-.08-.38-.03-.76-.06-1.14-.09-.02,0-.05,0-.07,0-.94-.07-1.88-.16-2.81-.26-1.57-.16-3.12-.35-4.67-.57-.31-.04-.62-.09-.93-.13-.49-.07-.98-.14-1.47-.22-.48-.07-.97-.15-1.45-.24-1.48-.25-2.95-.52-4.42-.83-.28-.06-.57-.12-.84-.18-.64-.13-1.27-.27-1.89-.42-.35-.08-.71-.16-1.06-.25-.1-.02-.2-.05-.3-.07-.48-.12-.97-.23-1.45-.35-.03,0-.06-.01-.08-.02-.55-.13-1.09-.28-1.64-.42-.58-.15-1.15-.31-1.72-.46-.51-.14-1.02-.29-1.53-.44-.47-.14-.94-.28-1.41-.42-.15-.05-.31-.09-.46-.14-.45-.14-.9-.28-1.35-.43-.53-.17-1.06-.34-1.6-.52-.51-.17-1.03-.34-1.54-.52-.02,0-.03,0-.05-.02-.48-.17-.97-.34-1.45-.51-1.12-.4-2.23-.83-3.33-1.26-.5-.19-.99-.39-1.48-.59-.45-.19-.91-.37-1.36-.56-.58-.25-1.17-.5-1.75-.75-.23-.1-.45-.2-.67-.3-.2-.09-.4-.18-.59-.26-1.68-.76-3.34-1.55-4.99-2.38-.41-.2-.83-.42-1.24-.63-.45-.23-.89-.46-1.33-.69-.08-.05-.17-.09-.25-.13-.45-.25-.91-.49-1.36-.74-.49-.27-.97-.54-1.46-.81-.45-.26-.9-.51-1.35-.77-1.01-.58-2.01-1.19-3.01-1.8-.45-.28-.9-.56-1.35-.84-.1-.06-.2-.12-.3-.19-.37-.23-.73-.47-1.1-.71-.5-.32-1-.66-1.5-.99-.3-.2-.6-.4-.89-.61-.3-.2-.59-.4-.88-.61-.16-.11-.32-.22-.48-.33-.48-.34-.96-.68-1.43-1.03-.1-.06-.19-.13-.29-.21-.19-.13-.38-.27-.57-.42-.46-.33-.92-.68-1.38-1.03-.08-.06-.16-.12-.23-.18-.58-.44-1.15-.88-1.72-1.33-.47-.36-.93-.73-1.39-1.1-.04-.03-.08-.06-.12-.1-.25-.2-.5-.4-.74-.61-.37-.3-.73-.59-1.09-.9-.64-.53-1.27-1.07-1.89-1.61-.27-.24-.55-.47-.82-.71-.25-.21-.49-.43-.73-.65-.22-.19-.44-.39-.65-.58-.13-.12-.26-.24-.39-.36-.13-.12-.26-.24-.39-.36-.25-.23-.5-.46-.75-.7-.55-.52-1.1-1.04-1.65-1.57-.57-.54-1.13-1.09-1.68-1.65-.49-.49-.98-.98-1.46-1.48-.16-.17-.33-.34-.49-.51-.45-.46-.89-.93-1.33-1.41-.54-.58-1.07-1.16-1.6-1.74-.01,0-.02-.02-.03-.03-.48-.53-.96-1.08-1.43-1.62-.08-.09-.15-.18-.23-.26-.45-.52-.9-1.04-1.34-1.57-.11-.13-.21-.25-.32-.38-.42-.5-.83-1-1.24-1.5-.06-.07-.13-.15-.19-.23-.34-.42-.68-.84-1.01-1.27-.2-.26-.4-.51-.6-.77-.44-.56-.88-1.13-1.31-1.7-.42-.56-.84-1.13-1.26-1.7-.04-.06-.08-.11-.12-.17-.45-.61-.89-1.22-1.32-1.84-.4-.56-.79-1.13-1.17-1.69-.14-.21-.29-.42-.43-.63-.32-.48-.64-.96-.96-1.44-.09-.13-.18-.27-.26-.4-.8-1.23-1.58-2.46-2.34-3.72-.07-.12-.15-.25-.23-.37-.35-.58-.71-1.17-1.05-1.77-.51-.87-1.02-1.75-1.51-2.64-.26-.47-.52-.95-.78-1.43-.08-.15-.16-.3-.24-.45-.36-.66-.71-1.32-1.05-1.99,0-.01-.01-.03-.02-.04-.37-.72-.74-1.44-1.1-2.17,0-.03-.02-.05-.04-.08-.35-.71-.7-1.42-1.04-2.14-3.4-7.14-6.28-14.64-8.57-22.48-1.62-5.51-2.95-11.19-3.97-17.01-1.64-9.34-2.51-19.06-2.51-29.1,0-15.27,1.99-31.6,5.7-48.13,1.6-7.16,3.53-14.35,5.75-21.5,4.61-14.82,10.5-29.47,17.49-43.34,5.53-10.99,11.75-21.48,18.55-31.15C71.34,23.85,102.38,0,136.32,0c6.34,0,12.57.83,18.67,2.4,2.98.77,5.93,1.71,8.85,2.83,5.95,2.26,11.76,5.22,17.39,8.78,4.86,3.07,9.58,6.58,14.17,10.49,5.73,4.88,11.24,10.37,16.49,16.36,4.5,5.13,8.81,10.62,12.91,16.42,3.12,4.41,6.12,9,8.99,13.73,1.37,2.27,2.72,4.57,4.03,6.9.34.6.67,1.2,1.01,1.8.33.6.67,1.21,1,1.81.33.6.65,1.21.97,1.81,0,.01.01.03.02.04.32.6.64,1.21.96,1.81.1.2.21.39.31.59.16.29.31.58.46.88.07.14.15.29.22.43.17.32.33.65.5.98.13.25.25.51.38.76.31.61.62,1.22.92,1.84.01.03.03.06.05.1.14.27.27.55.4.83.18.35.35.7.52,1.04,0,.02.01.03.02.05.07.15.14.29.21.44.11.24.22.47.33.7.09.18.17.35.25.53.03.06.06.12.08.17.03.06.06.12.09.19.07.14.13.29.2.43.11.22.21.44.31.65.09.19.18.39.27.58.09.19.17.37.26.56.17.38.34.77.52,1.15.19.42.39.84.58,1.27.06.14.13.29.2.43.07.14.13.29.2.44.23.51.45,1.01.68,1.52.2.45.39.9.59,1.35.15.34.29.67.43,1.01,0,.02.01.03.02.05.21.5.42.98.63,1.47.13.3.25.59.37.89.19.44.37.87.54,1.3.02.05.04.09.06.14.2.49.4.98.6,1.47.03.07.06.15.09.22.23.55.45,1.09.66,1.64.03.06.05.13.07.19.05.12.1.24.15.36.2.52.41,1.03.61,1.55.23.59.46,1.18.68,1.78.05.11.09.22.13.33.17.44.33.88.5,1.32.1.26.19.53.3.79.04.12.09.25.13.37.11.3.22.6.32.9.23.62.45,1.24.67,1.86.12.31.23.62.34.94.02.07.05.13.06.19.26.71.5,1.42.75,2.13.25.71.49,1.42.73,2.13.06.17.12.34.17.52.18.54.36,1.08.53,1.61.2.61.39,1.21.58,1.82.02.05.04.1.05.15.02.06.04.12.06.17.2.6.38,1.2.57,1.8.07.23.14.46.21.69.15.47.29.94.43,1.41.05.14.09.28.13.42.1.33.2.66.29.99.12.38.23.75.33,1.12.07.25.15.5.22.76.13.45.26.89.38,1.34.05.18.11.37.15.55.08.27.16.54.23.81.1.36.2.71.29,1.07.02.07.04.14.06.21.15.56.31,1.12.45,1.67.17.63.33,1.26.5,1.88.04.15.08.29.12.44.1.38.19.75.28,1.12.03.11.06.22.08.32.05.19.1.37.14.56.11.44.22.88.32,1.33.07.28.14.56.21.84.08.34.16.69.24,1.03.06.26.13.52.19.78.02.12.05.23.08.35.05.23.1.45.16.68.07.28.13.57.19.85.05.2.09.4.13.59.05.19.09.38.13.57.11.51.23,1.03.33,1.54.02.09.04.18.06.27.06.3.12.59.19.89.07.33.14.65.2.98,0,0,0,.02,0,.03.12.6.25,1.2.36,1.8.07.33.13.66.2.99.04.2.08.4.12.6.02.1.04.21.06.31.07.36.14.72.21,1.09.01.06.02.13.03.19.01.06.02.12.03.18.03.13.05.27.07.41.1.51.19,1.02.27,1.53.02.11.04.22.06.33,0,.01,0,.03,0,.04.09.55.19,1.09.28,1.64,0,.06.02.12.03.18.09.55.18,1.1.27,1.65.1.6.19,1.21.28,1.81.01.08.02.16.04.24,0,.01,0,.03,0,.05.04.26.07.53.11.79.02.15.05.3.07.45.12.8.23,1.6.33,2.4.04.31.08.61.12.92.01.08.02.16.03.25.01.09.02.18.03.27.04.25.07.51.1.76.06.47.12.94.17,1.41.02.14.03.28.05.42,0,.05,0,.09.01.13.04.36.08.71.12,1.06,0,.09.02.18.03.27.02.17.04.33.06.5.02.16.04.33.06.5,0,.08.01.17.02.26,0,.07.02.14.02.22.05.43.09.85.13,1.28.01.13.03.26.04.39.06.69.13,1.38.19,2.07.01.15.03.3.04.45.02.2.04.41.05.62,0,.14.02.28.03.42.04.49.07.97.11,1.46,0,.05,0,.09,0,.13.03.34.05.69.07,1.03,0,.08.01.16.01.24.03.48.06.96.08,1.44,0,.07.01.14.01.22.02.37.04.73.06,1.09.01.19.02.37.03.55.01.28.03.56.04.83,0,.12.01.23.01.34.01.32.03.64.04.96.03.82.06,1.63.07,2.44.01.44.02.88.02,1.32,0,.03,0,.06,0,.09,0,.24,0,.48,0,.72,0,.62,0,1.23,0,1.85Z"/><path class="cls-1" d="M182.9,236.13c-1.02-1.24-2.88-1.46-4.33-1.14-2.28.5-3.52,2.13-5,3.75-.76.83-1.45,1.64-2.15,2.51-.04.05-.12.14-.23.27-.29.34-.58.68-.87,1.01-1.78,2.01-3.59,4.31-3.96,7.04-.42,3.15.69,6.79,4.08,7.77,5.44,1.56,9.87-2.48,12.07-7.08,1.04-2.17,1.73-4.22,2.05-6.6.13-.94.24-1.88.22-2.83-.04-1.9-.69-3.23-1.88-4.68Z"/><path class="cls-1" d="M159.21,262.55c-.31-1.25-1.25-2.2-2.4-2.68-.49-.26-1.02-.38-1.59-.36-.75,0-1.44.19-2.09.57-.17.07-.34.13-.5.22-.31.24-.62.48-.92.71-.04.03-.08.07-.12.1-.71.74-1.13,1.64-1.27,2.65-.08.61-.06,1.17-.03,1.78.07,1.42.72,2.71,1.97,3.44,1.17.68,2.87.79,4.02,0,.59-.4,1.38-.83,1.84-1.34.53-.57.98-1.28,1.19-2.04.11-.39.18-.97.18-1.37-.01-.56-.14-1.13-.28-1.68Z"/><path class="cls-1" d="M144.09,243.97c-.04-.18-.08-.36-.12-.55-.22-.96-.98-1.7-1.85-2.07-.38-.2-.79-.29-1.23-.28-.58,0-1.11.15-1.61.44-.18.08-.35.15-.53.23-.66.29-1.27.94-1.62,1.56-.37.66-.46,1.35-.59,2.08-.14.79-.14,1.49.17,2.25.28.66.76,1.3,1.41,1.65,1.34.71,3.09.6,4.18-.54.61-.63,1.24-1.23,1.59-2.06.38-.9.43-1.73.22-2.71Z"/><path class="cls-1" d="M210.72,55.28c-.68-.77-1.58-1.41-2.51-1.86-.89-.43-1.93-.38-2.66.34-.69.69-.83,1.82-.34,2.66.08.14.16.29.24.43.02.04.04.08.06.11,0,.02.01.04.03.09.12.35.21.71.28,1.08.11.52.24.99.55,1.44.32.46.72.83,1.06,1.27,1.21,1.54,3.76.55,4.21-1.11.16-.57.29-1.2.28-1.78,0-1.08-.51-1.88-1.2-2.67Z"/><path class="cls-1" d="M221.89,95.55c-.68-3.57-3.31-6.82-5.86-9.28-1.29-1.24-3.22-1.64-4.86-.92-1.48.65-2.92,2.31-2.74,4.07.2,1.93.43,3.72,1.03,5.58.34,1.07.72,2.21,1.22,3.21.52,1.02,1.24,1.85,1.99,2.71,1.54,1.76,4.74,2.12,6.68.86,2.18-1.4,3.01-3.72,2.53-6.23Z"/><path class="cls-1" d="M203.25,69.44c-.03-.22-.06-.41-.1-.62-.1-.23-.2-.47-.3-.7-.19-.34-.44-.62-.76-.83-.18-.18-.4-.31-.65-.38-.35-.18-.73-.27-1.14-.25-.52.02-1.02.16-1.49.4-.34.19-.62.44-.83.76-.26.28-.44.62-.53,1-.05.21-.08.4-.1.62-.09.4-.07.8.05,1.2.09.27.2.53.33.78.48.91,1.55,1.47,2.56,1.47s2.08-.55,2.56-1.47c.13-.25.24-.51.33-.78.12-.4.14-.8.05-1.2Z"/><path class="cls-6" d="M138.22,161.98s.06-.03.09-.04c-3.25,1.29-.83.35-.09.04Z"/><path class="cls-3" d="M250.34,103.11c-.12.34-.24.66-.37.99-.98,2.63-2.11,5.21-3.33,7.73-.54,1.12-1.12,2.22-1.74,3.31-3.13,5.56-7.13,10.68-11.37,15.41-8.37,9.34-18.37,17.33-28.56,24.58-9.38,6.67-19.33,12.49-29.6,17.68-3.76,1.9-7.55,3.72-11.37,5.47-18.07,8.31-36.78,15.22-55.46,22.01-16.75,6.09-33.71,11.59-50.46,17.69-16.55,6.03-35,12.78-47.65,25.55-.77.77-1.52,1.57-2.24,2.39-.43.49-.84.98-1.25,1.48-.13.15-.22.26-.29.34-.05.07-.1.16-.18.27-1.62-5.51-2.95-11.19-3.97-17.01,1.19-1.41,2.43-2.76,3.7-4.06,12.28-12.59,27.99-21.32,43.7-28.89,17.41-8.39,35.29-15.66,53.39-22.43,33.16-12.4,65.48-25.7,94.25-46.74,15.22-13.12,26.2-26.69,33.2-45.75-.07.42-.14.84-.2,1.25.75-2.07,4.4-11.48,3.25-13.37,1.37,2.27,2.72,4.57,4.03,6.9.34.6.67,1.2,1.01,1.8.33.6.67,1.21,1,1.81.33.6.65,1.21.97,1.81,0,.01.01.03.02.04.32.6.64,1.21.96,1.81.1.2.21.39.31.59.16.29.31.58.46.88.07.14.15.29.22.43.17.32.33.65.5.98.13.25.25.51.38.76.31.61.62,1.22.92,1.84.01.03.03.06.05.1.14.27.27.55.4.83.18.35.35.7.52,1.04,0,.02.01.03.02.05.07.15.14.29.21.44.11.24.22.47.33.7.09.18.17.35.25.53.03.06.06.12.08.17.03.06.06.12.09.19.07.14.13.29.2.43.11.22.21.44.31.65.09.19.18.39.27.58.09.19.17.37.26.56.17.38.34.77.52,1.15.19.42.39.84.58,1.27.06.14.13.29.2.43.07.14.13.29.2.44.23.51.45,1.01.68,1.52.2.45.39.9.59,1.35Z"/><path class="cls-3" d="M272.64,201.91c0,.67,0,1.35,0,2.01-1.68,3.06-3.47,6.05-5.36,8.99-24.72,38.29-64.71,61.13-106.2,77.29-1.63.64-3.27,1.26-4.91,1.88-12.26,4.65-24.67,8.74-37.25,12.4-17.58,5.12-37.1,8.57-53.36,17.77-.63.35-1.25.71-1.87,1.09-.91.56-1.82,1.13-2.72,1.71-.16-.11-.32-.22-.48-.33-.48-.34-.96-.68-1.43-1.03-.1-.06-.19-.13-.29-.21-.19-.13-.38-.27-.57-.42-.46-.33-.92-.68-1.38-1.03-.08-.06-.16-.12-.23-.18-.58-.44-1.15-.88-1.72-1.33-.47-.36-.93-.73-1.39-1.1-.04-.03-.08-.06-.12-.1-.25-.2-.5-.4-.74-.61-.37-.3-.73-.59-1.09-.9-.64-.53-1.27-1.07-1.89-1.61-.27-.24-.55-.47-.82-.71-.25-.21-.49-.43-.73-.65-.22-.19-.44-.39-.65-.58-.13-.12-.26-.24-.39-.36-.13-.12-.26-.24-.39-.36.92-.81,1.86-1.6,2.82-2.36,1.99-1.61,4.02-3.14,6.08-4.63,18-13.01,38.75-21.81,59.73-28.78,43.34-14.39,89.48-30.4,121.89-64.13,8.93-9.3,16.7-19.63,22.79-31.01,1.49-2.79,2.84-5.64,4.17-8.51.12-.26.19-.45.24-.55.2-.48.41-.97.61-1.45.31-.65.65-1.28.96-1.93.27-.57.55-1.15.82-1.73.24-.51.45-1.02.64-1.54-.13.37-.22.6-.26.73.16-.41.59-1.6.7-1.85.26-.68.52-1.35.78-2.04.08-.22.17-.45.25-.67.02.05.03.12.04.18.01.06.02.12.03.18.03.13.05.27.07.41.1.51.19,1.02.27,1.53.02.11.04.22.06.33,0,.01,0,.03,0,.04.09.55.19,1.09.28,1.64,0,.06.02.12.03.18.09.55.18,1.1.27,1.65.1.6.19,1.21.28,1.81.01.08.02.16.04.24,0,.01,0,.03,0,.05.06.41.12.83.18,1.24.12.8.23,1.6.33,2.4.04.31.08.61.12.92.01.08.02.16.03.25.03.22.06.45.09.67.01.12.03.24.04.36.06.47.12.94.17,1.41.02.14.03.28.05.42,0,.05,0,.09.01.13.04.36.08.71.12,1.06,0,.09.02.18.03.27.02.17.04.33.06.5.02.16.04.33.06.5,0,.08.01.17.02.26,0,.07.02.14.02.22.05.43.09.85.13,1.28.01.13.03.26.04.39.06.69.13,1.38.19,2.07.01.15.03.3.04.45.02.2.04.41.05.62,0,.14.02.28.03.42.04.49.07.97.11,1.46,0,.05,0,.09,0,.13.03.34.05.69.07,1.03,0,.08.01.16.01.24.03.43.06.86.08,1.29,0,.12.01.25.02.37.02.37.04.73.06,1.09.01.19.02.37.03.55.01.28.03.56.04.83,0,.12.01.23.01.34.01.32.03.64.04.96.03.82.06,1.63.07,2.44.01.44.02.88.02,1.32,0,.03,0,.06,0,.09,0,.24,0,.48,0,.72,0,.62,0,1.23,0,1.85Z"/><path class="cls-6" d="M220.25,228.89c.72-.57,2.11-1.77,0,0h0Z"/><path class="cls-6" d="M165.87,259.73s.05-.02.07-.03c-3.43,1.28-.84.36-.07.03Z"/><path class="cls-3" d="M195.4,24.5c-1.14,3.04-2.39,6.06-3.75,9.06-4.05,8.96-9.04,17.83-14.76,25.84-3.32,4.65-7.04,9.3-11.14,13.31-.12.11-.23.23-.35.34-4.53,4.37-9.84,8.16-14.94,11.82-8.89,6.39-18.31,11.83-28.17,16.55-15.65,7.49-31.37,13.29-47.88,18.48-19.06,5.98-40.67,11.23-56.9,23.13-4.28,3.14-8.22,6.68-11.82,10.75,1.6-7.16,3.53-14.35,5.75-21.5,3.27-2.91,6.73-5.62,10.32-8.16.27-.19.54-.38.81-.57,8.55-6.01,17.59-11.83,27.05-16.31.32-.15.64-.31.97-.45,10.16-4.7,20.44-9.14,30.55-13.94,1.39-.66,2.78-1.31,4.17-1.95,8.43-3.92,16.92-7.69,25.13-12.1,10.47-5.61,20.36-11.8,29.95-18.78,16.15-11.76,31.74-25.32,39.96-43.92.08-.17.52-1.24.57-1.34.1-.25.2-.5.3-.76,4.86,3.07,9.58,6.58,14.17,10.49Z"/><path class="cls-5" d="M272.64,201.91c0,.67,0,1.35,0,2.01-.19,16.8-2.81,32.7-7.46,47.38-2.32,7.33-5.16,14.35-8.46,21.03-22.92,46.43-68.23,76.26-120.39,76.26-.48,0-.95,0-1.43,0-.29,0-.58,0-.86,0-.47,0-.94-.02-1.41-.03-.52-.01-1.03-.03-1.55-.05-.03,0-.05,0-.07,0-.52-.02-1.04-.04-1.56-.07-.06,0-.12,0-.18,0-.51-.02-1.02-.06-1.53-.09-.41-.02-.81-.05-1.22-.08-.38-.03-.76-.06-1.14-.09-.02,0-.05,0-.07,0-.94-.07-1.88-.16-2.81-.26-1.57-.16-3.12-.35-4.67-.57-.31-.04-.62-.09-.93-.13-.49-.07-.98-.14-1.47-.22-.48-.07-.97-.15-1.45-.24-1.48-.25-2.95-.52-4.42-.83-.28-.06-.57-.12-.84-.18-.64-.13-1.27-.27-1.89-.42-.35-.08-.71-.16-1.06-.25-.1-.02-.2-.05-.3-.07-.48-.12-.97-.23-1.45-.35-.03,0-.06-.01-.08-.02-.55-.13-1.09-.28-1.64-.42-.58-.15-1.15-.31-1.72-.46-.51-.14-1.02-.29-1.53-.44-.47-.14-.94-.28-1.41-.42-.15-.05-.31-.09-.46-.14-.45-.14-.9-.28-1.35-.43-.53-.17-1.06-.34-1.6-.52-.51-.17-1.03-.34-1.54-.52-.02,0-.03,0-.05-.02-.48-.17-.97-.34-1.45-.51-1.12-.4-2.23-.83-3.33-1.26-.5-.19-.99-.39-1.48-.59-.45-.19-.91-.37-1.36-.56-.58-.25-1.17-.5-1.75-.75-.22-.1-.45-.2-.67-.3-.2-.09-.39-.18-.59-.27-1.68-.76-3.34-1.55-4.99-2.38-.41-.2-.83-.42-1.24-.63-.45-.23-.89-.46-1.33-.69-.08-.05-.17-.09-.25-.13-.45-.25-.91-.49-1.36-.74-.49-.27-.97-.54-1.46-.81-.45-.26-.9-.51-1.35-.77-1.01-.58-2.01-1.19-3.01-1.8-.45-.28-.9-.56-1.35-.84-.1-.06-.2-.12-.3-.19-.37-.23-.73-.47-1.1-.71-.5-.32-1-.66-1.5-.99-.3-.2-.6-.4-.89-.61-.3-.2-.59-.4-.88-.61-.16-.11-.32-.22-.48-.33-.48-.34-.96-.68-1.43-1.03-.1-.06-.19-.13-.29-.21-.19-.13-.38-.27-.57-.42-.46-.33-.92-.68-1.38-1.03-.08-.06-.16-.12-.23-.18-.58-.44-1.15-.88-1.72-1.33-.47-.36-.93-.73-1.39-1.1-.04-.03-.08-.06-.12-.1-.25-.2-.5-.4-.74-.61-.37-.3-.73-.59-1.09-.9-.64-.53-1.27-1.07-1.89-1.61-.27-.24-.55-.47-.82-.71-.25-.21-.49-.43-.73-.65-.22-.19-.44-.39-.65-.58-.13-.12-.26-.24-.39-.36-.13-.12-.26-.24-.39-.36-.25-.23-.5-.46-.75-.69-.55-.52-1.1-1.04-1.65-1.57-.57-.54-1.13-1.09-1.68-1.65-.49-.49-.98-.98-1.46-1.48-.16-.17-.33-.34-.49-.51-.45-.46-.89-.93-1.33-1.41-.54-.58-1.07-1.16-1.6-1.74-.01,0-.02-.02-.03-.03-.48-.53-.96-1.08-1.43-1.62-.08-.09-.15-.18-.23-.26-.45-.52-.9-1.04-1.34-1.57-.11-.13-.21-.25-.32-.38-.42-.5-.83-1-1.24-1.5-.06-.07-.13-.15-.19-.23-.34-.42-.68-.84-1.01-1.27-.2-.26-.4-.51-.6-.77-.44-.56-.88-1.13-1.31-1.7-.42-.56-.84-1.13-1.26-1.7-.04-.06-.08-.11-.12-.17-.45-.61-.89-1.22-1.32-1.84-.4-.56-.79-1.13-1.17-1.69-.14-.21-.29-.42-.43-.63-.32-.48-.64-.96-.96-1.44-.09-.13-.18-.27-.26-.4-.8-1.23-1.58-2.46-2.34-3.72-.07-.12-.15-.25-.23-.37-.35-.58-.71-1.17-1.05-1.77-.51-.87-1.02-1.75-1.51-2.64-.26-.47-.52-.95-.78-1.43-.08-.15-.16-.3-.24-.45-.36-.66-.71-1.32-1.05-1.99,0-.01-.01-.03-.02-.04-.37-.72-.74-1.44-1.1-2.17,0-.03-.02-.05-.04-.08-.35-.71-.7-1.42-1.04-2.14.05.02.1.05.16.08,8.92,15.91,20.56,29.65,34.25,40.61,5.1,4.08,10.48,7.78,16.1,11.06,6.27,3.66,12.86,6.81,19.69,9.39,7.82,2.96,15.96,5.18,24.37,6.6,7.3,1.24,14.79,1.88,22.43,1.88.65,0,1.3,0,1.95-.01,5.82-.08,11.55-.54,17.17-1.35,41.42-5.96,76.87-31.1,97.62-67.98,4.18-7.44,7.77-15.35,10.68-23.67,3.76-10.75,6.41-22.19,7.79-34.2.73-6.34,1.1-12.83,1.1-19.46,0-8.07-.56-16.43-1.63-24.97-2.65-21.09-8.44-43.21-16.77-64.38-2.59-6.61-5.44-13.13-8.51-19.49.31.58.61,1.16.91,1.74.3.58.6,1.16.9,1.74.13.25.25.51.38.76.17.33.33.67.5,1,.29.59.58,1.17.87,1.76.29.59.58,1.18.86,1.78.28.59.57,1.18.85,1.78.19.41.39.83.58,1.24.09.19.17.37.26.56.37.8.74,1.61,1.1,2.42.06.14.13.29.2.43.49,1.1.98,2.2,1.46,3.31.15.33.29.66.44,1,0,.02.01.03.02.05.33.79.67,1.57,1,2.36.19.44.37.87.54,1.3.02.05.04.09.06.14.2.49.4.98.6,1.47.03.07.06.15.09.22.25.61.49,1.22.74,1.84.49,1.22.97,2.46,1.44,3.69.24.62.47,1.23.7,1.85.23.62.46,1.24.69,1.86.23.62.45,1.24.67,1.86.67,1.87,1.31,3.73,1.94,5.6.42,1.25.83,2.5,1.23,3.74.02.05.04.1.05.15.02.06.04.12.06.17.26.83.52,1.66.78,2.49.15.47.29.94.43,1.41.14.47.28.94.42,1.41.19.63.37,1.25.55,1.88.18.63.36,1.25.54,1.88.18.63.35,1.25.52,1.88.17.63.34,1.26.51,1.88.17.63.33,1.26.5,1.88.16.63.32,1.25.48,1.88.16.63.32,1.26.47,1.88.15.63.3,1.25.45,1.88.09.38.18.76.27,1.14.05.23.1.45.16.68.07.28.13.57.19.85.05.2.09.4.13.59.05.19.09.38.13.57.11.51.23,1.03.33,1.54.02.09.04.18.06.27.06.3.12.59.19.89.07.33.14.65.2.98,0,0,0,.02,0,.03.12.6.25,1.2.36,1.8.07.33.13.66.2.99.04.2.08.4.12.6.02.1.04.21.06.31.07.37.14.73.2,1.09.01.06.03.12.04.19.01.06.02.12.03.18.03.13.05.27.07.41.1.51.19,1.02.27,1.53.02.11.04.22.06.33,0,.01,0,.03,0,.04.03.16.05.32.08.49.07.39.13.77.2,1.16,0,.06.02.12.03.18.09.55.18,1.1.27,1.65.1.6.19,1.21.28,1.81.01.08.02.16.04.24,0,.01,0,.03,0,.05.04.26.07.53.11.79.02.15.05.3.07.45.12.8.23,1.6.33,2.4.04.31.08.61.12.92.01.08.02.16.03.25.03.22.06.45.09.67.01.12.03.24.04.36.06.47.12.94.17,1.41.02.14.03.28.05.42,0,.05,0,.09.01.13.05.45.1.89.15,1.34.02.17.04.33.06.5.03.25.06.5.08.75,0,.07.02.14.02.22.05.43.09.85.13,1.28.01.13.03.26.04.39.06.69.13,1.38.19,2.07.01.15.03.3.04.45.02.2.04.41.05.62,0,.14.02.28.03.42.04.49.07.97.11,1.46,0,.05,0,.09,0,.13.03.34.05.69.07,1.03,0,.08.01.16.01.24.03.43.06.86.08,1.29,0,.12.01.25.02.37.02.37.04.73.06,1.09.01.19.02.37.03.55.01.28.03.56.04.83,0,.12.01.23.01.34.01.32.03.64.04.96.03.82.06,1.63.07,2.44.01.44.02.88.02,1.32,0,.03,0,.06,0,.09,0,.24,0,.48,0,.72,0,.62,0,1.23,0,1.85Z"/><path class="cls-2" d="M171.45,169.63c-12.51,59.36-57.17,98.01-100.92,91.83-30.7-4.34-52.8-29.61-58.92-64.81-2.6-14.96-2.32-31.71,1.41-49.41C25.52,87.87,78.36,10.43,122.11,16.62c23.43,3.31,39.5,29.93,47.45,63.06,6.9,28.74,7.69,62.37,1.89,89.95Z"/><path class="cls-7" d="M272.64,201.91c0,.67,0,1.35,0,2.01-.19,16.8-2.81,32.7-7.46,47.38-2.32,7.33-5.16,14.35-8.46,21.03-22.92,46.43-68.23,76.26-120.39,76.26-.48,0-.95,0-1.43,0-.29,0-.58,0-.86,0-.47,0-.94-.02-1.41-.03-.52-.01-1.03-.03-1.55-.05-.03,0-.05,0-.07,0-.52-.02-1.04-.04-1.56-.07-.06,0-.12,0-.18,0-.51-.02-1.02-.06-1.53-.09-.41-.02-.81-.05-1.22-.08-.38-.03-.76-.06-1.14-.09-.02,0-.05,0-.07,0-.94-.07-1.88-.16-2.81-.26-1.57-.16-3.12-.35-4.67-.57-.31-.04-.62-.09-.93-.13-.49-.07-.98-.14-1.47-.22-.48-.07-.97-.15-1.45-.24-1.48-.25-2.95-.52-4.42-.83-.28-.06-.57-.12-.84-.18-.64-.13-1.27-.27-1.89-.42-.35-.08-.71-.16-1.06-.25-.1-.02-.2-.05-.3-.07-.48-.12-.97-.23-1.45-.35-.03,0-.06-.01-.08-.02-.55-.13-1.09-.28-1.64-.42-.58-.15-1.15-.31-1.72-.46-.51-.14-1.02-.29-1.53-.44-.47-.14-.94-.28-1.41-.42-.15-.05-.31-.09-.46-.14-.45-.14-.9-.28-1.35-.43-.53-.17-1.06-.34-1.6-.52-.51-.17-1.03-.34-1.54-.52-.02,0-.03,0-.05-.02-.48-.17-.97-.34-1.45-.51-1.12-.4-2.23-.83-3.33-1.26-.5-.19-.99-.39-1.48-.59-.45-.19-.91-.37-1.36-.56-.58-.25-1.17-.5-1.75-.75-.22-.1-.45-.2-.67-.3-.2-.09-.39-.18-.59-.27-1.68-.76-3.34-1.55-4.99-2.38-.41-.2-.83-.42-1.24-.63-.45-.23-.89-.46-1.33-.69-.08-.05-.17-.09-.25-.13-.45-.25-.91-.49-1.36-.74-.49-.27-.97-.54-1.46-.81-.45-.26-.9-.51-1.35-.77-1.01-.58-2.01-1.19-3.01-1.8-.45-.28-.9-.56-1.35-.84-.1-.06-.2-.12-.3-.19-.37-.23-.73-.47-1.1-.71-.5-.32-1-.66-1.5-.99-.3-.2-.6-.4-.89-.61-.3-.2-.59-.4-.88-.61-.16-.11-.32-.22-.48-.33-.48-.34-.96-.68-1.43-1.03-.1-.06-.19-.13-.29-.21-.19-.13-.38-.27-.57-.42-.46-.33-.92-.68-1.38-1.03-.08-.06-.16-.12-.23-.18-.58-.44-1.15-.88-1.72-1.33-.47-.36-.93-.73-1.39-1.1-.04-.03-.08-.06-.12-.1-.25-.2-.5-.4-.74-.61-.37-.3-.73-.59-1.09-.9-.64-.53-1.27-1.07-1.89-1.61-.27-.24-.55-.47-.82-.71-.25-.21-.49-.43-.73-.65-.22-.19-.44-.39-.65-.58-.13-.12-.26-.24-.39-.36-.13-.12-.26-.24-.39-.36-.25-.23-.5-.46-.75-.69-.55-.52-1.1-1.04-1.65-1.57-.57-.54-1.13-1.09-1.68-1.65-.49-.49-.98-.98-1.46-1.48-.16-.17-.33-.34-.49-.51-.45-.46-.89-.93-1.33-1.41-.54-.58-1.07-1.16-1.6-1.74-.01,0-.02-.02-.03-.03-.48-.53-.96-1.08-1.43-1.62-.08-.09-.15-.18-.23-.26-.45-.52-.9-1.04-1.34-1.57-.11-.13-.21-.25-.32-.38-.42-.5-.83-1-1.24-1.5-.06-.07-.13-.15-.19-.23-.34-.42-.68-.84-1.01-1.27-.2-.26-.4-.51-.6-.77-.44-.56-.88-1.13-1.31-1.7-.42-.56-.84-1.13-1.26-1.7-.04-.06-.08-.11-.12-.17-.45-.61-.89-1.22-1.32-1.84-.4-.56-.79-1.13-1.17-1.69-.14-.21-.29-.42-.43-.63-.32-.48-.64-.96-.96-1.44-.09-.13-.18-.27-.26-.4-.8-1.23-1.58-2.46-2.34-3.72-.07-.12-.15-.25-.23-.37-.35-.58-.71-1.17-1.05-1.77-.51-.87-1.02-1.75-1.51-2.64-.26-.47-.52-.95-.78-1.43-.08-.15-.16-.3-.24-.45-.36-.66-.71-1.32-1.05-1.99,0-.01-.01-.03-.02-.04-.37-.72-.74-1.44-1.1-2.17,0-.03-.02-.05-.04-.08-.35-.71-.7-1.42-1.04-2.14.05.02.1.05.16.08,2.8,1.71,5.67,3.34,8.61,4.89,2.99,1.59,6.05,3.09,9.18,4.5,5.54,2.53,11.29,4.79,17.23,6.76,8.87,2.95,17.78,5.13,26.66,6.58,63.8,10.41,125.5-17.22,153.23-72.75,2.88-5.76,5.39-11.82,7.5-18.17,1.53-4.58,2.85-9.36,3.98-14.28,2.71-11.79,4.28-24.46,4.74-37.54.41-11.59-.06-23.52-1.41-35.44-1.41-12.52-3.77-25.05-7.08-37.22.34.6.67,1.2,1.01,1.8.33.6.67,1.21,1,1.81.33.6.65,1.21.97,1.81,0,.01.01.03.02.04.32.6.64,1.21.96,1.81.1.2.21.39.31.59.1.19.19.37.28.55.06.11.12.22.18.33.07.14.15.29.22.43.17.32.33.65.5.98.13.25.25.51.38.76.17.33.33.67.5,1,.14.28.28.56.42.84.01.03.03.06.05.1.14.27.27.55.4.83.18.35.35.7.52,1.04,0,.02.01.03.02.05.07.15.14.29.21.44.04.08.07.16.11.25.13.27.26.54.39.81.06.12.11.23.17.35.03.06.06.12.09.19.07.14.13.29.2.43.11.22.21.44.31.65.09.19.18.39.27.58.09.19.17.37.26.56.17.38.34.77.52,1.15.19.42.39.84.58,1.27.06.14.13.29.2.43.07.14.13.29.2.44.23.51.45,1.01.68,1.52.2.45.39.9.59,1.35.15.34.29.67.43,1.01,0,.02.01.03.02.05.21.5.42.98.63,1.47.13.3.25.59.37.89.19.44.37.87.54,1.3.02.05.04.09.06.14.2.49.4.98.6,1.47.03.07.06.15.09.22.23.55.45,1.09.66,1.64.07.19.15.37.22.56.2.52.41,1.03.61,1.55.23.59.46,1.18.68,1.78.05.11.09.22.13.33.17.44.33.88.5,1.32.02.06.05.13.07.2.08.19.15.39.23.59.04.12.09.25.13.37.11.3.22.6.32.9.23.62.45,1.24.67,1.86.12.31.23.62.34.94.02.07.05.13.06.19.26.71.5,1.42.75,2.13.25.71.49,1.42.73,2.13.02.07.05.14.06.21.04.1.07.2.11.31.18.54.36,1.08.53,1.61.2.61.39,1.21.58,1.82.02.05.04.1.05.15.02.06.04.12.06.17.2.6.38,1.2.57,1.8.07.23.14.46.21.69.15.47.29.94.43,1.41.05.14.09.28.13.42.1.33.2.66.29.99.12.38.23.75.33,1.12.07.25.15.5.22.76.13.45.26.89.38,1.34.05.18.11.37.15.55.08.27.16.54.23.81.1.36.2.71.29,1.07.02.07.04.14.06.21.15.56.31,1.12.45,1.67.17.63.33,1.26.5,1.88.04.15.08.29.12.44.1.38.19.75.28,1.12.07.29.15.59.22.88.11.44.22.88.32,1.33.07.28.14.56.21.84.14.6.29,1.21.43,1.82.02.12.05.23.08.35.05.23.1.45.16.68.07.28.13.57.19.85.05.2.09.4.13.59.05.19.09.38.13.57.11.51.23,1.03.33,1.54.02.09.04.18.06.27.06.3.12.59.19.89.07.33.14.65.2.98,0,0,0,.02,0,.03.12.6.25,1.2.36,1.8.07.33.13.66.2.99.04.2.08.4.12.6.02.1.04.21.06.31.07.37.14.73.2,1.09.01.06.03.12.04.19.01.06.02.12.03.18.03.13.05.27.07.41.1.51.19,1.02.27,1.53.02.11.04.22.06.33,0,.01,0,.03,0,.04.03.16.05.32.08.49.07.39.13.77.2,1.16,0,.06.02.12.03.18.09.55.18,1.1.27,1.65.1.6.19,1.21.28,1.81.01.08.02.16.04.24,0,.01,0,.03,0,.05.06.41.12.83.18,1.24.12.8.23,1.6.33,2.4.04.31.08.61.12.92.01.08.02.16.03.25.01.09.02.18.03.27.02.13.04.26.06.4.01.12.03.24.04.36.06.47.12.94.17,1.41.02.14.03.28.05.42,0,.05,0,.09.01.13.04.36.08.71.12,1.06,0,.09.02.18.03.27.02.17.04.33.06.5.02.16.04.33.06.5,0,.08.01.17.02.26,0,.07.02.14.02.22.05.43.09.85.13,1.28.01.13.03.26.04.39.06.69.13,1.38.19,2.07.01.15.03.3.04.45.02.2.04.41.05.62,0,.14.02.28.03.42.04.49.07.97.11,1.46,0,.05,0,.09,0,.13.03.34.05.69.07,1.03,0,.08.01.16.01.24.03.43.06.86.08,1.29,0,.05,0,.1,0,.15,0,.07.01.14.01.22.02.37.04.73.06,1.09.01.19.02.37.03.55.01.28.03.56.04.83,0,.12.01.23.01.34.01.32.03.64.04.96.03.82.06,1.63.07,2.44.01.44.02.88.02,1.32,0,.03,0,.06,0,.09,0,.24,0,.48,0,.72,0,.62,0,1.23,0,1.85Z"/><path class="cls-4" d="M119.19,25.69c-17.14-1.9-33.59,18.55-43.19,30.16-17.26,20.86-30.39,45.42-37.8,71.48-3.78,13.28-6.07,27.03-6.36,40.85-.22,10.21-1.36,28.74,5.59,37.11.41.5.86.95,1.35,1.37,4.86,4.17,13.16,4.54,17.59-.36.43-.48.83-1,1.19-1.56,5.06-7.79,4.21-19.49,5.3-28.42,1.47-12.02,3.73-23.94,6.76-35.66,5.32-20.62,13.62-40.35,23.43-59.22,4.91-9.46,10.22-18.71,15.76-27.82,2.24-3.68,21.39-26.72,10.39-27.94Z"/><path class="cls-4" d="M88.3,115.83c-3.76,10.85-6.09,22.37-6.95,33.84-.7,9.32,6.15,16.16,10.9,6.84,5.22-10.22,16.09-58.42,10.16-60.89-4.94-2.07-11.99,14.06-14.11,20.21Z"/></svg>