<?xml version="1.0" encoding="UTF-8"?><svg id="_횓횙횊_1" xmlns="http://www.w3.org/2000/svg" xmlns:xlink="http://www.w3.org/1999/xlink" viewBox="0 0 272.64 348.58"><defs><style>.cls-1{fill:#1d1d1b;opacity:.12;}.cls-2{fill:#f04637;}.cls-3{opacity:.25;}.cls-3,.cls-4,.cls-5{fill:#fff;}.cls-4{opacity:.32;}.cls-5{opacity:.37;}.cls-6{fill:#f43626;}.cls-7{fill:#f33b2a;}.cls-8{fill:url(#_횂횁_횕_횑횑_횊_횏횂횑횣_59);}</style><linearGradient id="_횂횁_횕_횑횑_횊_횏횂횑횣_59" x1="189.06" y1="327.4" x2="59.15" y2="3.93" gradientUnits="userSpaceOnUse"><stop offset=".05" stop-color="#aca5b6"/><stop offset=".97" stop-color="#edd9bf"/></linearGradient></defs><path class="cls-8" d="M272.64,201.91c0,21.99-4.13,42.46-11.57,60.72-5.79,14.23-13.6,27.12-23.02,38.33-12.4,14.75-27.6,26.6-44.71,34.79-17.35,8.3-36.66,12.85-57.02,12.85-15.07,0-29.57-2.49-43.13-7.15-18.68-6.43-35.56-16.98-49.66-30.83-11.54-11.32-21.22-24.84-28.49-40.12-1.3-2.72-2.52-5.51-3.66-8.34C4.06,244.01,0,223.7,0,201.91c0-.88,0-1.75.02-2.64.55-37.54,12.86-81.15,32.93-117.99,6.94-12.76,14.82-24.7,23.46-35.3C73.94,24.49,94.6,8.53,117.03,2.57c6.3-1.68,12.74-2.57,19.29-2.57,10.67,0,21.05,2.36,31.01,6.64,16.13,6.94,31.16,18.93,44.52,34.17,8.59,9.79,16.49,20.91,23.55,32.9.82,1.39,1.63,2.79,2.43,4.21,1.24,2.2,2.46,4.43,3.64,6.69.31.58.61,1.16.91,1.74.29.56.57,1.11.86,1.67.03.06.06.12.09.18.28.55.56,1.1.83,1.66.29.59.58,1.17.87,1.76.29.59.58,1.18.86,1.78.28.59.57,1.18.85,1.78.84,1.79,1.67,3.58,2.47,5.39.53,1.18,1.05,2.36,1.56,3.54,0,.03.02.06.03.08.52,1.22,1.04,2.43,1.54,3.65.26.61.5,1.22.75,1.83.25.61.49,1.23.74,1.84.37.92.73,1.84,1.09,2.76.36.92.7,1.85,1.05,2.77.23.62.46,1.24.69,1.86.23.62.45,1.24.67,1.86.22.62.45,1.24.66,1.86.44,1.24.86,2.49,1.28,3.73.21.62.42,1.25.62,1.87.2.63.41,1.25.61,1.87.2.63.39,1.25.59,1.88.73,2.35,1.43,4.69,2.1,7.05.22.78.44,1.57.65,2.35.17.63.34,1.26.51,1.88.17.63.33,1.25.5,1.88.12.49.25.98.38,1.47.19.77.39,1.53.57,2.3.15.6.29,1.19.44,1.79,0,.06.02.11.04.17.13.56.26,1.13.39,1.69.02.07.04.15.05.22.13.56.26,1.13.38,1.69.01.05.02.1.03.15.12.51.23,1.03.33,1.54.11.49.21.98.31,1.47.1.48.2.97.3,1.45.08.39.16.79.24,1.19.12.59.23,1.18.34,1.77.38,2,.73,3.99,1.06,5.98.16.95.31,1.9.45,2.85.33,2.17.63,4.32.9,6.47.08.63.15,1.25.22,1.87.06.57.13,1.13.19,1.69.08.77.16,1.53.23,2.29.06.6.12,1.21.17,1.81.06.6.1,1.19.15,1.79,0,.07,0,.15.01.23.05.61.09,1.21.13,1.81.04.53.07,1.06.11,1.59.05.77.09,1.53.13,2.29.03.51.05,1.02.07,1.52,0,.12.01.23.01.34.02.51.04,1.01.06,1.51.05,1.43.08,2.86.09,4.28,0,.53,0,1.06,0,1.59Z"/><path class="cls-6" d="M173.64,159.61c-3.11,4.8-7.33,9.21-11.98,12.94-5.78,4.64-12.21,8.23-17.97,10.21-2.43.83-10.16-4.78-12.14-6.1-2.22-1.48-4.36-3.11-6.37-4.86-.98-.85-1.92-1.73-2.84-2.63-2.84-2.81-5.45-5.92-7.63-9.28-.19-.29-.38-.59-.56-.89-2.14-3.46-3.82-7.18-4.85-11.09-.56-2.11-.73-4.26-.57-6.38l.05-.57c.04-.38.09-.77.15-1.15.2-1.28.53-2.55.96-3.77.07-.21.15-.41.23-.61.74-1.92,1.74-3.73,2.96-5.36,2.06-2.76,4.73-5,7.76-6.38,1.37-.62,2.81-1.07,4.3-1.31,2-.32,3.89-.23,5.67.13.13.03.25.05.38.08.16.04.31.07.46.11,1.19.3,2.32.73,3.38,1.22.85.4,1.65.84,2.4,1.3,4.01,2.49,6.45,5.6,6.45,5.6,0,0,0-.01.03-.04.03-.04.09-.11.17-.21.63-.73,2.67-2.98,5.7-4.95,1.62-1.05,3.53-2.03,5.64-2.65.88-.26,1.8-.46,2.75-.57,1.43-.17,2.94-.16,4.5.1,1.42.24,2.79.67,4.1,1.25.2.09.39.18.59.28,2.96,1.46,5.55,3.74,7.53,6.52,1.32,1.85,2.36,3.91,3.07,6.09,0,.02.01.04.02.06.43,1.35.74,2.74.9,4.15.02.13.03.26.04.4.59,6.34-1.55,12.61-5.27,18.33Z"/><path class="cls-2" d="M235.39,73.71c-.18.63-.37,1.26-.57,1.88-1.88,5.87-4.7,11.3-7.79,15.31-1.3,1.69-9.23,1.34-11.21,1.33-2.22-.01-4.44-.16-6.64-.45-1.06-.14-2.12-.32-3.17-.53-3.26-.64-6.49-1.61-9.54-2.94-.27-.12-.54-.24-.8-.36-3.07-1.42-5.94-3.22-8.44-5.47-1.35-1.21-2.46-2.62-3.32-4.16l-.23-.42c-.15-.28-.29-.57-.42-.86-.45-.98-.8-2.01-1.06-3.05-.05-.18-.09-.35-.13-.53-.37-1.67-.5-3.39-.4-5.07.17-2.86.99-5.63,2.47-7.98.66-1.06,1.46-2.03,2.38-2.88,1.24-1.14,2.6-1.94,3.99-2.51.1-.04.2-.08.3-.12.13-.05.25-.09.38-.13.97-.33,1.94-.56,2.9-.7.77-.12,1.53-.18,2.26-.19,3.92-.11,7.04.93,7.04.93,0,0,0-.01,0-.04,0-.04,0-.12.02-.22.1-.79.49-3.29,1.69-6.04.64-1.48,1.52-3.02,2.7-4.42.49-.58,1.04-1.14,1.64-1.66.71-.6,1.51-1.15,2.39-1.61,8.59,9.79,16.49,20.91,23.55,32.9Z"/><path class="cls-7" d="M85.02,77.42s0,.04-.01.06c-.27,1.15-.66,2.26-1.16,3.34-.05.1-.09.2-.14.3-2.32,4.75-6.55,8.28-11.66,10.74-4.29,2.06-9.19,3.37-14.09,4.01-.93.12-1.87.22-2.8.3-5.15.41-10.18.11-14.38-.81-2.08-.45-5.15-7.78-5.98-9.57-.08-.17-.15-.33-.23-.5-.59-1.31-1.13-2.64-1.61-4,6.94-12.76,14.82-24.7,23.46-35.3.45.32.86.67,1.25,1.03.08.07.15.14.23.22.09.09.19.19.28.28.71.73,1.34,1.52,1.87,2.32.06.09.12.18.18.27.36.56.68,1.13.97,1.69,1.77,3.5,2.15,6.76,2.15,6.76,0,0,.01,0,.04-.01.04-.01.11-.04.21-.07.76-.25,3.19-.96,6.18-1.05,1.61-.05,3.38.08,5.15.56.54.15,1.09.32,1.63.55.19.07.38.15.57.24,1.09.5,2.16,1.15,3.15,2.01.9.78,1.69,1.67,2.37,2.66.1.15.2.3.3.45,1.47,2.32,2.32,5.06,2.52,7.88.14,1.88,0,3.79-.45,5.65Z"/><path class="cls-6" d="M238.05,300.95c-12.4,14.75-27.6,26.6-44.71,34.79-.39-.9-.7-1.82-.94-2.77-.04-.18-.08-.35-.13-.53-.36-1.67-.5-3.38-.39-5.07.03-.52.08-1.04.16-1.56.33-2.3,1.1-4.5,2.31-6.42.66-1.06,1.46-2.03,2.38-2.88,1.24-1.13,2.6-1.94,3.99-2.5.1-.04.2-.08.3-.12.12-.05.25-.09.37-.13.97-.34,1.94-.56,2.9-.71.77-.11,1.53-.17,2.26-.19,2.14-.06,4.04.23,5.33.5,1.07.23,1.71.44,1.71.44,0,0,0-.01,0-.04,0-.04.01-.12.03-.23.04-.33.13-.95.31-1.76.26-1.15.68-2.67,1.38-4.28.64-1.47,1.52-3.02,2.7-4.42.49-.58,1.04-1.14,1.65-1.66.91-.77,1.96-1.46,3.16-1.99,1.09-.49,2.24-.82,3.41-1.01.18-.03.35-.06.53-.08.64-.08,1.28-.12,1.93-.12,2.12,0,4.25.41,6.28,1.2,1.07.41,2.1.92,3.08,1.53Z"/><path class="cls-6" d="M95.49,335.04c-.07.46-.16.92-.26,1.38,0,.02,0,.03-.01.06-.27,1.14-.66,2.26-1.16,3.34-.05.1-.09.2-.14.3-.22.45-.46.9-.72,1.33-18.68-6.43-35.56-16.98-49.66-30.83.14-.21.29-.43.44-.64l.28-.39c.2-.26.39-.51.6-.75.25-.29.5-.57.77-.84.49-.51,1-.98,1.54-1.42.14-.12.28-.23.43-.34,1.35-1.04,2.85-1.89,4.42-2.52,2.65-1.07,5.52-1.5,8.27-1.17,1.24.15,2.46.46,3.62.93,1.55.64,2.86,1.52,3.97,2.54.08.07.16.15.23.22.1.09.19.19.28.28.71.73,1.34,1.52,1.87,2.32.44.65.81,1.31,1.14,1.96,1.77,3.5,2.16,6.76,2.16,6.76,0,0,.01,0,.04-.01.04-.01.11-.04.21-.07.76-.25,3.18-.96,6.18-1.05,1.61-.05,3.38.08,5.15.56.74.19,1.48.45,2.2.78,1.09.5,2.15,1.16,3.15,2.01.91.78,1.7,1.68,2.37,2.66.1.15.2.3.3.45,1.47,2.31,2.32,5.05,2.53,7.88.1,1.42.04,2.85-.19,4.27Z"/><path class="cls-7" d="M167.32,6.64c-.05,4.38-1.87,8.59-4.71,12.35-2.48,3.28-5.72,6.23-9.25,8.66-4.38,3.03-9.17,5.28-13.4,6.41-1.79.47-7.04-3.94-8.39-4.99-1.52-1.17-2.96-2.45-4.31-3.81-.66-.66-1.29-1.34-1.9-2.03-1.89-2.16-3.6-4.52-5-7.04-.12-.22-.24-.45-.36-.67-1.36-2.59-2.38-5.34-2.91-8.19-.29-1.55-.31-3.09-.08-4.6l.02-.16c6.3-1.68,12.74-2.57,19.29-2.57,10.67,0,21.05,2.36,31.01,6.64Z"/><path class="cls-6" d="M155.73,256.02c-1.05,3.98-2.94,7.93-5.27,11.52-2.9,4.47-6.48,8.36-9.97,11.01-1.47,1.11-8.01-.98-9.65-1.43-1.85-.51-3.67-1.14-5.44-1.89-.86-.36-1.7-.75-2.53-1.16-2.57-1.28-5.05-2.82-7.29-4.62-.2-.16-.39-.32-.59-.48-2.24-1.88-4.22-4.04-5.8-6.48-.85-1.32-1.46-2.75-1.82-4.22l-.09-.4c-.06-.27-.11-.54-.15-.82-.15-.92-.21-1.86-.19-2.79,0-.16,0-.31.02-.47.07-1.48.35-2.94.82-4.32.79-2.34,2.11-4.47,3.87-6.1.79-.73,1.68-1.36,2.64-1.86,1.29-.67,2.61-1.03,3.9-1.19.09-.01.18-.02.28-.03.11-.01.23-.02.34-.03.88-.06,1.75-.03,2.58.07.67.08,1.32.2,1.93.35,3.29.8,5.66,2.38,5.66,2.38,0,0,0-.01.01-.03.01-.03.04-.1.07-.18.26-.64,1.15-2.63,2.78-4.66.87-1.08,1.95-2.18,3.26-3.07.54-.37,1.13-.71,1.75-1.01.94-.44,1.97-.77,3.09-.94,1.02-.16,2.06-.17,3.08-.07.15.02.31.03.46.06,2.35.33,4.63,1.31,6.6,2.76,1.31.96,2.49,2.14,3.47,3.47,0,.01.02.03.03.04.6.82,1.12,1.71,1.54,2.63.04.09.08.17.12.26,1.83,4.19,1.77,8.96.53,13.7Z"/><path class="cls-6" d="M272.64,201.91c0,21.99-4.13,42.46-11.57,60.72-2.26-.2-5.13-.89-7.32-1.48-1.22-.33-2.24-.62-2.82-.77-2.58-.68-5.13-1.53-7.6-2.53-1.2-.48-2.38-1.01-3.54-1.57-3.6-1.73-7.07-3.83-10.23-6.31-.27-.22-.55-.44-.82-.66-3.15-2.58-5.95-5.55-8.19-8.91-.43-.64-.82-1.31-1.16-2-.63-1.24-1.11-2.53-1.45-3.86l-.14-.56c-.09-.37-.16-.75-.23-1.13-.22-1.28-.32-2.58-.32-3.88,0-.22,0-.44.01-.65.08-2.06.45-4.09,1.07-6.03,1.05-3.28,2.85-6.26,5.28-8.55,1.09-1.03,2.31-1.92,3.65-2.63,1.79-.95,3.61-1.48,5.4-1.72.13-.01.26-.03.39-.04.16-.02.32-.04.48-.05.54-.04,1.08-.06,1.61-.06.67,0,1.33.05,1.98.12.93.1,1.84.26,2.69.45,4.6,1.05,7.92,3.21,7.92,3.21,0,0,0-.02.01-.05.02-.05.05-.13.1-.25.36-.9,1.56-3.68,3.79-6.53,1.19-1.53,2.68-3.07,4.48-4.34.75-.53,1.55-1.01,2.42-1.43,1.29-.63,2.72-1.11,4.28-1.36,1.42-.24,2.86-.28,4.28-.15.22.02.43.04.64.07.19.02.38.05.56.08,1.48.24,2.95.66,4.35,1.24,0,.53,0,1.06,0,1.59Z"/><path class="cls-6" d="M52.09,228.98c.01,1.3-.09,2.6-.32,3.88-.06.38-.14.76-.23,1.13l-.14.56c-.53,2.05-1.4,4.03-2.61,5.85-1.78,2.67-3.91,5.09-6.29,7.27-.62.57-1.25,1.11-1.9,1.65-.27.22-.54.44-.82.66-3.15,2.47-6.63,4.57-10.23,6.31-1.16.56-2.34,1.09-3.54,1.57-2.47,1.01-5.01,1.85-7.6,2.53-1.18.31-4.15,1.2-7.03,1.77C4.06,244.01,0,223.7,0,201.91c0-.88,0-1.75.02-2.64.53-.12,1.06-.21,1.6-.28.21-.03.43-.05.64-.07,1.42-.13,2.86-.09,4.28.15,1.18.2,2.29.52,3.32.93.33.13.65.28.97.43.86.42,1.67.9,2.42,1.43,1.81,1.27,3.29,2.81,4.48,4.34,2.23,2.84,3.43,5.63,3.79,6.53.05.12.08.2.1.25,0,.03.02.05.02.05,0,0,3.32-2.16,7.91-3.21.38-.09.77-.17,1.17-.24.5-.09,1.01-.16,1.52-.22,1.16-.12,2.36-.15,3.59-.06.16,0,.32.03.48.05.13.01.26.03.38.04,1.79.24,3.61.77,5.4,1.72,1.34.71,2.56,1.6,3.65,2.63,2.42,2.29,4.22,5.27,5.28,8.55.63,1.94.99,3.98,1.07,6.03,0,.22.01.43.01.65Z"/><path class="cls-3" d="M155.81,174.22c-16.7,60.42-60.8,98.06-100.03,89.67-27.54-5.89-45.36-32.88-47.77-69.34-1.02-15.49.73-32.69,5.71-50.7C30.43,83.41,85.43,6.3,124.67,14.69c21.01,4.49,33.24,32.59,37.5,67.01,3.7,29.85,1.4,64.45-6.36,92.52Z"/><path class="cls-5" d="M272.64,201.91c0,21.99-4.13,42.46-11.57,60.72-5.79,14.23-13.6,27.12-23.02,38.33-12.4,14.75-27.6,26.6-44.71,34.79-17.35,8.3-36.66,12.85-57.02,12.85-15.07,0-29.57-2.49-43.13-7.15-18.68-6.43-35.56-16.98-49.66-30.83-11.54-11.32-21.22-24.84-28.49-40.12.06.03.11.06.16.1,8.07,14.4,18.38,27.03,30.41,37.41,14.44,12.48,31.36,21.75,49.87,27.04,11.64,3.33,23.9,5.09,36.56,5.09,21.53,0,41.88-5.08,59.99-14.32,6.97-3.55,13.6-7.72,19.84-12.46.69-.51,1.37-1.04,2.05-1.59,5.22-4.12,10.16-8.65,14.76-13.55,10.07-10.71,18.55-23.18,25.06-37.07,8.64-18.45,13.8-39.41,14.53-62.08.06-1.86.09-3.74.09-5.62,0-34.22-10-73.82-26.91-108.85.31.58.61,1.16.91,1.74.29.56.57,1.11.86,1.67.03.06.06.12.09.18.28.55.56,1.1.83,1.66.29.59.58,1.17.87,1.76.29.59.58,1.18.86,1.78.28.59.57,1.18.85,1.78.84,1.79,1.67,3.58,2.47,5.39.53,1.18,1.05,2.36,1.56,3.54,0,.03.02.06.03.08.52,1.22,1.03,2.43,1.54,3.65.26.61.5,1.22.75,1.83.25.61.49,1.23.74,1.84.37.92.73,1.84,1.09,2.76.36.92.7,1.85,1.05,2.77.23.62.46,1.24.69,1.86.23.62.45,1.24.67,1.86.22.62.45,1.24.66,1.86.44,1.24.86,2.49,1.28,3.73.21.62.42,1.25.62,1.87.2.63.41,1.25.61,1.87.2.63.39,1.25.59,1.88.73,2.35,1.43,4.69,2.1,7.05.22.78.44,1.57.65,2.35.17.63.34,1.26.51,1.88.17.63.33,1.25.5,1.88.12.49.25.98.38,1.47.19.77.39,1.53.57,2.3.15.6.29,1.19.44,1.79,0,.06.02.11.04.17.13.56.26,1.13.39,1.69.02.07.04.15.05.22.13.56.26,1.13.38,1.69.01.05.02.1.03.15.12.51.23,1.03.33,1.54.11.49.21.98.31,1.47.1.48.2.97.3,1.45.08.39.16.79.24,1.19.12.59.23,1.18.34,1.77.38,2,.73,3.99,1.06,5.98.16.95.31,1.9.45,2.85.33,2.17.63,4.32.9,6.47.08.63.15,1.25.22,1.87.06.57.13,1.13.19,1.69.08.77.16,1.53.23,2.29.06.6.12,1.21.17,1.81.06.6.1,1.19.15,1.79,0,.07,0,.15.01.23.05.61.09,1.21.13,1.81.04.53.07,1.06.11,1.59.05.77.09,1.53.13,2.29.03.51.05,1.02.07,1.52,0,.12.01.23.01.34.02.51.04,1.01.06,1.51.05,1.43.08,2.86.09,4.28,0,.53,0,1.06,0,1.59Z"/><path class="cls-4" d="M106.63,36.69c-10.15-1.12-21.11,7.52-28.03,13.87-38.38,35.18-62.01,95.73-57.72,147.65.47,5.72.17,13.5,3.99,18.09,4.51,5.41,14.06,6.39,18.94,1.01,6.07-6.7,4.88-21.76,6.31-30.32,4.22-25.3,9.8-51.51,20.19-74.98,10.43-23.57,24.31-45.37,38.27-66.97.83-1.29,1.7-2.67,1.71-4.21.03-2.72-1.47-3.89-3.67-4.13Z"/><path class="cls-4" d="M75.75,126.82c-3.76,10.85-6.09,22.37-6.95,33.84-.7,9.32,6.15,16.16,10.9,6.84,5.22-10.22,16.09-58.42,10.16-60.89-4.94-2.07-11.98,14.06-14.11,20.21Z"/><path class="cls-1" d="M272.64,201.91c0,21.99-4.13,42.46-11.57,60.72-5.79,14.23-13.6,27.12-23.02,38.33-12.4,14.75-27.6,26.6-44.71,34.79-17.35,8.3-36.66,12.85-57.02,12.85-15.07,0-29.57-2.49-43.13-7.15-18.68-6.43-35.56-16.98-49.66-30.83-11.54-11.32-21.22-24.84-28.49-40.12.06.03.11.06.16.1,10.73,6.53,22.45,11.99,35.01,16.16,65.4,21.73,133.24,1.97,169.17-48.34,6.29-8.8,11.59-18.54,15.74-29.16.88-2.24,1.7-4.52,2.47-6.84,11.81-35.54,11.73-82.18.22-124.49,1.24,2.2,2.46,4.43,3.64,6.69.31.58.61,1.16.91,1.74.29.56.57,1.11.86,1.67.03.06.06.12.09.18.28.55.56,1.1.83,1.66.29.59.58,1.17.87,1.76.29.59.58,1.18.86,1.78.28.59.57,1.18.85,1.78.84,1.79,1.67,3.58,2.47,5.39.53,1.18,1.05,2.36,1.56,3.54,0,.03.02.06.03.08.52,1.22,1.04,2.43,1.54,3.65.26.61.5,1.22.75,1.83.25.61.49,1.23.74,1.84.37.92.73,1.84,1.09,2.76.36.92.7,1.85,1.05,2.77.23.62.46,1.24.69,1.86.23.62.45,1.24.67,1.86.22.62.45,1.24.66,1.86.44,1.24.86,2.49,1.28,3.73.21.62.42,1.25.62,1.87.2.63.41,1.25.61,1.87.2.63.39,1.25.59,1.88.73,2.35,1.43,4.69,2.1,7.05.22.78.44,1.57.65,2.35.17.63.34,1.26.51,1.88.17.63.33,1.25.5,1.88.12.49.25.98.38,1.47.19.77.39,1.53.57,2.3.15.6.29,1.19.44,1.79,0,.06.02.11.04.17.13.56.26,1.13.39,1.69.02.07.04.15.05.22.13.56.26,1.13.38,1.69.01.05.02.1.03.15.12.51.23,1.03.33,1.54.11.49.21.98.31,1.47.1.48.2.97.3,1.45.08.39.16.79.24,1.19.12.59.23,1.18.34,1.77.38,2,.73,3.99,1.06,5.98.16.95.31,1.9.45,2.85.33,2.17.63,4.32.9,6.47.08.63.15,1.25.22,1.87.06.57.13,1.13.19,1.69.08.77.16,1.53.23,2.29.06.6.12,1.21.17,1.81.06.6.1,1.19.15,1.79,0,.07,0,.15.01.23.05.61.09,1.21.13,1.81.04.53.07,1.06.11,1.59.05.77.09,1.53.13,2.29.03.51.05,1.02.07,1.52,0,.12.01.23.01.34.02.51.04,1.01.06,1.51.05,1.43.08,2.86.09,4.28,0,.53,0,1.06,0,1.59Z"/></svg>