<?xml version="1.0" encoding="UTF-8"?><svg id="_ÎÓÈ_1" xmlns="http://www.w3.org/2000/svg" xmlns:xlink="http://www.w3.org/1999/xlink" viewBox="0 0 272.64 348.59"><defs><style>.cls-1{fill:#231bf2;}.cls-2{fill:#383839;opacity:.15;}.cls-3{opacity:.18;}.cls-3,.cls-4,.cls-5{fill:#fff;}.cls-4{opacity:.33;}.cls-5{opacity:.42;}.cls-6{fill:url(#_ÂÁ_Ï_ÌÌ_È_ËÂÌÚ_78);}</style><linearGradient id="_ÂÁ_Ï_ÌÌ_È_ËÂÌÚ_78" x1="199.29" y1="325.97" x2="48.98" y2="11.45" gradientUnits="userSpaceOnUse"><stop offset=".17" stop-color="#878787"/><stop offset=".83" stop-color="#f3edea"/></linearGradient></defs><path class="cls-1" d="M157.27,17.27c-.02-.54-.18-1.03-.48-1.5-.21-.27-.42-.54-.63-.81-.36-.39-.8-.67-1.3-.83-.31-.18-.65-.27-1.02-.27-.53-.12-1.07-.1-1.6.07-1,.32-1.85.93-2.4,1.85-.18.29-.33.58-.47.9-.3.46-.46.97-.48,1.5-.12.54-.1,1.08.07,1.61.33,1.03.94,1.83,1.86,2.42.26.17.68.3.97.41.36.05.72.1,1.08.14.56.02,1.08-.1,1.56-.35.34-.1.64-.27.89-.52.44-.29.79-.66,1.04-1.14.34-.6.58-1.24.84-1.88.17-.53.19-1.07.07-1.6Z"/><path class="cls-6" d="M272.64,201.91c0,10.01-.85,19.69-2.49,29-2.27,12.99-6.06,25.24-11.16,36.57-.5,1.12-1.01,2.23-1.54,3.32-2.85,5.95-6.06,11.63-9.61,17.02-12.27,18.63-28.51,33.76-47.41,44.26-2.04,1.14-4.11,2.21-6.21,3.24-3.94,1.93-7.99,3.66-12.14,5.18-2.19.81-4.41,1.56-6.66,2.25-12.39,3.82-25.51,5.85-39.1,5.85-52.84,0-98.65-30.62-121.28-78.1-1.91-4.02-3.66-8.15-5.23-12.4-.42-1.12-.82-2.25-1.21-3.4-.94-2.73-1.8-5.5-2.59-8.32-2.21-7.87-3.85-16.06-4.84-24.54-.77-6.48-1.16-13.13-1.16-19.93,0-8.08.56-16.45,1.63-24.99.75-6,1.76-12.09,3.01-18.2,4.58-22.48,12.41-45.48,22.79-66.74,3.15-6.45,6.53-12.74,10.12-18.81,8.44-14.24,18.07-27.25,28.62-38.22,7.32-7.61,15.08-14.25,23.22-19.63C104.03,5.63,119.83,0,136.32,0c40.31,0,76.55,33.66,101.5,77.92.26.46.52.93.78,1.4.99,1.78,1.96,3.58,2.91,5.39-.02-.04-.03-.07-.05-.11.31.58.61,1.16.91,1.74.3.58.6,1.16.9,1.74.3.58.59,1.17.88,1.76.29.59.58,1.17.87,1.76.29.59.58,1.18.86,1.78.28.59.57,1.18.85,1.78.18.39.36.77.54,1.16.19.39.37.77.54,1.16.77,1.66,1.52,3.34,2.25,5.01.25.56.49,1.12.73,1.68.53,1.22,1.04,2.43,1.54,3.65.02.05.04.09.06.14.28.68.57,1.36.84,2.05.47,1.17.93,2.33,1.38,3.5.46,1.17.9,2.35,1.35,3.52.58,1.55,1.14,3.09,1.69,4.65.55,1.55,1.09,3.11,1.61,4.67.58,1.7,1.13,3.4,1.66,5.1.07.23.14.46.21.69.07.23.14.46.21.7.27.87.54,1.75.8,2.63.17.57.34,1.14.51,1.71.2.7.4,1.4.6,2.1.2.7.39,1.4.59,2.1.17.63.34,1.26.51,1.88.17.63.33,1.25.5,1.88.32,1.25.64,2.51.95,3.76.3,1.23.59,2.46.88,3.69,0,.06.02.12.04.18.13.56.25,1.13.38,1.69,0,.05.02.1.03.15.11.51.23,1.03.33,1.54.05.21.09.42.14.64.1.51.21,1.01.31,1.51.13.61.25,1.22.37,1.84,0,.04.02.08.03.12.12.59.23,1.18.34,1.77.16.87.32,1.74.48,2.61v.03c.77,4.24,1.41,8.48,1.93,12.65.07.59.14,1.18.21,1.77.06.48.11.96.16,1.43.06.49.11.98.16,1.47.09.9.18,1.79.26,2.68.02.17.03.33.04.5.04.44.08.89.12,1.33.03.37.06.74.08,1.1.03.4.06.8.09,1.21.04.53.07,1.06.11,1.59.05.77.09,1.53.13,2.29.03.51.05,1.02.07,1.52,0,.12.01.23.01.34.02.51.04,1.01.06,1.51.06,1.97.1,3.93.1,5.87Z"/><path class="cls-1" d="M260.92,131.45c-.15.35-.32.69-.51,1.02-.21.37-.43.73-.67,1.08-1.49,2.26-3.4,4.24-4.62,6.66-1.79,3.56-1.79,7.62-.46,11.32.45,1.29-6.6-1.56-8.28-3.64-3.6-4.44-5.74-10.01-5.99-15.82-.22-4.97,1.36-9.32,3.16-13.87.51-1.29.96-2.65,1.24-4.01.15-.73.25-1.46.29-2.18-.2-.17-.41-.33-.61-.5-8.65-6.96-18.49-12.09-28.82-16.11.64,1.48,1.33,2.95,2.15,4.38,2.03,3.59,4.25,7.07,5.89,10.87,3.48,8.04,1.81,26.46,1.71,25.24-.48-6.09-6.99-8.3-11.77-10.17-4.6-1.78-8.55-4.2-10.89-8.72-2.64-5.11-2-10.49-1.4-16,.4-3.69.38-7.48-1.07-10.8-2-.59-4-1.16-6.01-1.69-8.15-2.21-16.38-4.17-24.57-6.24-1.86-.47-3.72-.95-5.59-1.43,1.19,1.65,2.17,3.46,3.09,5.34,1.52,3.1,3.1,6.09,4.96,8.98.4.64.82,1.25,1.25,1.87,4.74,6.83,10.22,13.4,12.02,21.73.38,1.78-8.11-1.59-11.01-1.56h-.2c-2.87.02-5.73.13-8.45-.9-4.96-1.86-8.57-6.28-10.72-10.99-2.64-5.77-2.8-11.58-2.1-17.79.37-3.28.78-6.77-.57-9.89-.01-.03-.03-.07-.05-.1-7.67-2.31-15.24-4.97-22.6-8.3-3.88-1.76-7.72-3.73-11.44-5.92,1.05,1.63,1.99,3.3,2.82,4.88,2.16,4.09,3.76,8.51,4.44,13.09,1.35,8.92-9.13,25.04-8.85,23.68,2.55-12.03-9.71-20.66-15.19-29.79-.99-1.66-1.81-3.4-2.43-5.2-1.06-3.07-1.53-6.31-1.29-9.61.26-3.41,1.17-7.15,3.06-10.15-3.35-3.24-6.4-6.77-9.04-10.61-1.58-2.28-3.01-4.68-4.27-7.18-.4-.78-.78-1.57-1.14-2.38.01,1.09,0,2.19-.06,3.28-.08,1.74-.25,3.47-.49,5.2-.51,3.66-1.39,7.24-2.62,10.7-1.67,4.7-8.81,14.17-9.44,13.56-.25-.24-.39-.59-.33-1.07.64-4.88-1.09-9.35-2.97-13.74-.47-1.09-.95-2.18-1.41-3.26-1.35-3.2-2.38-6.45-2.88-9.81,7.32-7.61,15.08-14.25,23.22-19.63,1.46,2.27,3.33,4.15,5.86,5.64,2.78,1.64,5.75,2.33,8.81,2.1,1.11-.08,2.23-.29,3.35-.62,2.05-.6,4.01-1.35,5.99-1.97,2.51-.78,5.04-1.36,7.79-1.19,2.96.18,12.87,6.66,11.55,7.24-3.96,1.73-5.85,6-8.81,8.92-2.11,2.07-4.59,3.8-7.3,5.01-.97.44-1.98.81-3,1.1-4.2,1.22-8.91,1-13.01-.6,2.99,3.48,6.33,6.62,9.93,9.47,6.95,5.48,14.85,9.85,23.03,13.41.52-2.14,1.8-4.14,3.26-5.75,2.88-3.15,6.8-4.84,10.85-5.91,3.51-.92,7.08-1.5,10.6-2.36,1.3-.32,2.6-.67,3.88-1.09,4.9-1.61,15.81-6.75,16.03-5.84,2.19,8.92-4.39,17.24-12.28,20.62-.5.21-1,.41-1.5.59-4.37,1.59-9.03,2.15-13.66,2.42-2.66.16-5.33.18-7.98.34-.39.03-.85.06-1.32.13,2.06.77,4.13,1.48,6.19,2.16,6.64,2.19,13.38,4.02,20.16,5.73,2.52.64,5.05,1.27,7.59,1.88,7.94-.51,12.96-8.74,18.31-13.99,2.91-2.85,6.49-5.32,10.59-5.93,4.47-.66,8.44,1.92,12.85,1.72,1.17-.06-2.54,10.6-5.62,14.07-2.63,2.97-6.06,5.08-9.77,6.42-2.9,1.05-5.99,1.67-9.16,1.98,7.09,1.84,14.13,3.86,21.04,6.31,2.75.98,5.48,2.03,8.17,3.17,2.32-5.67,9.07-9.5,14.69-10.8.57-.13,1.13-.24,1.7-.32.13-.02.26-.04.39-.06.99,1.78,1.96,3.58,2.91,5.39-.02-.04-.03-.07-.05-.11.31.58.61,1.16.91,1.74.3.58.6,1.16.9,1.74.3.58.59,1.17.88,1.76.29.59.58,1.17.87,1.76.29.59.58,1.18.86,1.78.28.59.57,1.18.85,1.78.18.39.36.77.54,1.16.19.39.37.77.54,1.16-.16.06-.32.11-.47.16-1.55.49-3.17.85-4.84,1.06-1.34.18-2.7.26-4.07.25,1.57.96,3.12,1.96,4.63,3.01,3.01,2.06,5.91,4.3,8.65,6.7.51.44,1.01.89,1.5,1.35.48,1.17.94,2.34,1.39,3.51.46,1.17.9,2.35,1.35,3.52.58,1.55,1.14,3.09,1.69,4.65.55,1.55,1.09,3.11,1.61,4.67.58,1.7,1.13,3.4,1.66,5.1Z"/><path class="cls-1" d="M173.06,297.8c4.12,3.04,8.01,6.41,11.58,10.17,4.37,4.6,8.36,9.88,11.62,15.59,1.57,2.75,2.97,5.6,4.16,8.52-2.04,1.14-4.11,2.21-6.21,3.24-1.17-2.92-2.57-5.77-4.15-8.52-.29-.51-.58-1.01-.89-1.5-.13.71-.3,1.42-.52,2.11,0,.03-.02.06-.03.09-1.4,4.25-5.26,8.49-6.55,13-2.19.81-4.41,1.56-6.66,2.25-1.78-2.62-3.1-5.53-3.89-8.58-.74-2.87-1-5.87-.71-8.87.5-5.4,3.44-13.38,1.59-19.2-.88-.72-1.77-1.42-2.67-2.1-6.24-4.65-12.88-8.5-19.76-11.82,1.91,2.12,3.6,4.45,4.48,7.18,1.38,4.21-.18,8.03-2.35,11.63-1.87,3.11-1.75,14.4-3.21,13.9-3.89-1.32-7.19-3.91-9.31-7.46-2.4-4.01-2.5-8.17-1.99-12.7.51-4.53.1-8.59-2.05-12.58-.12-.22-.24-.44-.37-.66-2.41-4.09-6.16-6.98-10.54-8.7-.34-.13-.41-.47-.3-.71-9.86-3.28-19.9-6.17-29.8-9.33.85.46,1.69.93,2.52,1.42,4.14,2.44,8.29,5.61,10.45,10.03,1.78,3.64,1.68,7.43.81,11.2-.17.73-.37,1.47-.58,2.19-1.34,4.44-3.86,9.61-1.76,14.19.83,1.83-10.56-4.46-14.65-7.17-3.86-2.55-7.03-5.81-8.22-10.41-1.47-5.72-.06-11.7-1.29-17.43-1.15-5.32-4.82-9.31-9.39-11.97-8.3-3.45-16.32-7.47-23.84-12.52.18.31.36.62.55.92,2.25,3.84,4.44,7.66,5.46,12.03,1.05,4.5,1.03,9.21-.04,13.71-.49,2.06-2.27,5.32-2.88,8.25-.45,2.18,2.02,8.25.63,7.71-6.84-2.66-13.13-7.38-16.41-13.65-1.77-3.39-2.67-7.23-2.31-11.45.74-8.46,5.48-18.41,3.09-26.86-6.3-5.75-11.79-12.31-16.48-19.43-.07.39-.16.77-.27,1.16-1.09,3.74-3.92,6.48-6.71,9.04-3.19,2.93-6.21,5.86-7,10.32-.13.77-.2,1.54-.21,2.32-2.21-7.87-3.85-16.06-4.84-24.54.79-2.54,1.78-5.03,2.91-7.51,2.06-4.53,4.22-9.24,4.16-14.21-1.67-4.33-3.1-8.74-4.31-13.19-.89-3.3-1.65-6.64-2.3-10.01.75-6,1.76-12.09,3.01-18.2.35,3.67.83,7.33,1.43,10.97.76,1.28,1.71,2.44,2.9,3.43,2.47,2.07,5.49,2.97,8.65,3.41,3.4.48,6.97.42,10.21.71,1.14.1,2.25.24,3.34.43,4.87.86,9.21,2.79,12.52,6.88,3.93,4.87,5.98,11.08,10.61,15.4,1.27,1.19-12.42,4.4-17.97,3.45-2.25-.39-4.29-1.11-6.17-2.1-2.62-1.38-4.95-3.27-7.14-5.48-1.16-1.17-2.39-2.27-3.64-3.34-3.21-2.74-6.6-5.26-9.61-8.23-.24-.24-.48-.48-.72-.74,1.09,4.11,2.37,8.17,3.85,12.17,1.55,4.19,3.35,8.3,5.36,12.26,2.57,2.95,5.49,5.61,8.66,7.87.58.41,1.16.8,1.75,1.19,1.08.7,2.14,1.29,3.22,1.73,2.4.98,4.86,1.23,7.66.37,3.25-1.01,6.17-2.89,9.29-4.22,2.84-1.22,5.69-1.72,8.45-1.64,9.05.27,17.27,6.8,22.01,14.81.82,1.38-14.71,2.55-20,5.44-4.74,2.58-9.63,4.89-15.15,4.61-.26-.01-.51-.03-.77-.06-1-.09-2-.26-3.01-.5,4.25,3.93,8.86,7.49,13.84,10.61,4.6,2.88,9.37,5.4,14.25,7.67,2.81.06,5.62-.17,8.32-.74,1.84-.39,3.6-.96,5.32-1.63,3.78-1.48,7.34-3.48,11-5.29,6.9-3.41,15.61-6.03,22.74-2.77,1.47.67,2.86,1.58,4.17,2.79,1.26,1.16-.08,2.97-1.56,2.68-5.69-1.11-8.61,7.03-11.99,10.22-2.71,2.56-6.11,4.4-9.7,5.38,6.84,2.17,13.72,4.2,20.54,6.31,2.03-.39,3.98-1.11,5.63-1.97,5.08-2.65,9.19-6.76,14.04-9.77,9.21-5.71,20.43-7.3,30.93-4.89,1.25.29-5.6,9.02-7.63,12.39-2.32,3.85-5.77,6.95-9.71,9.05-3.15,1.67-6.59,2.67-10.12,3.07,4.81,1.86,9.57,3.88,14.2,6.13,2.19,1.07,4.35,2.19,6.47,3.37.76-.15,1.5-.38,2.12-.56,2.42-.7,4.8-1.55,7.18-2.37,4.44-1.54,8.87-3.18,13.5-4.04,7.45-1.38,15.47-.58,21.4,4.51.6.51-13.04,10.51-20.82,11.1-3.8.29-7.68-.05-11.38-.98Z"/><path class="cls-1" d="M270.14,230.91c-2.27,12.99-6.06,25.24-11.16,36.57-.62.88-1.16,1.8-1.57,2.81,0,.17.02.34.03.51-2.85,5.95-6.06,11.63-9.61,17.02-.11-.1-.23-.19-.35-.28-1.11-.83-2.38-1.48-3.62-2.1-1.11-.56-2.22-1.1-3.3-1.7-1.21-.66-2.38-1.4-3.47-2.29-4.78-3.93-7.21-18.46-6.15-17.3,2.13,2.32,5.29,2.67,8.23,3.26,2.74.56,5.32,1.38,7.62,3.03.53.38,1.03.79,1.49,1.22.66.61,1.26,1.27,1.8,1.96-.02-1.59-.11-3.16-.26-4.73-.58-6.15-2.14-12.09-4.59-17.7-1.53-.29-3.24-.18-4.58-.07-2.7.2-5.35.88-7.95,1.6-5.2,1.43-10.43,3.25-15.89,3.22-3.55-.03-6.97-.9-10.04-2.44-4.33-2.16-7.61-12.62-7.42-12.6.71.01,1.71-.34,2.39-.51,1.32-.32,2.62-.68,3.92-1.06,2.86-.85,5.67-1.84,8.52-2.73,2.54-.79,5.16-1.54,7.82-2.01,2.4-.43,4.83-.63,7.26-.43,1.87.16,3.89.54,5.86,1.16-2.58-3.01-5.4-5.82-8.38-8.47-5.69-5.05-11.97-9.47-18.35-13.47-.28-.17-.56-.34-.84-.52-4.77-1.33-9.01,6.41-11.83,9.35-3.97,4.13-8.73,7.59-14.17,9.49-9.65,3.38-26.24-11.4-24.94-10.79,5.87,2.8,11.44-2.48,15.53-6.01,4.09-3.53,8.63-6.38,13.79-8.07,2.63-.86,5.53-1.48,8.43-1.66-8.58-4.72-17.37-9.09-26.18-13.29-1.18-.57-2.36-1.11-3.54-1.67-.44.07-.88.15-1.31.27-.12.03-.24.06-.36.1-1.38.42-2.64,1.08-3.86,1.85-2.68,1.7-4.96,3.97-7.19,6.2-4.21,4.23-8.57,8.46-13.97,11.16-8.65,4.32-25.71-8.79-24.39-8.58,6.03.97,11.1-3.94,15.25-7.59,4.32-3.78,8.92-7.36,14.21-9.69,1.35-.59,2.73-1.09,4.14-1.49-7.74-3.28-15.55-6.38-23.41-9.36-3.24-1.23-6.48-2.44-9.72-3.69-3.62,2.44-5.09,7.29-7.19,10.99-2.85,5.05-7.43,8.96-12.78,11.15-11.15,4.58-30.52-12.05-29.31-12.01,5.13.17,10.23-.75,14.91-2.87,4.37-1.97,8.06-5.03,11.89-7.85,2.66-1.96,5.44-3.79,8.49-5.03-3.48-1.48-6.92-3.02-10.32-4.67-3.23-1.57-6.43-3.22-9.56-5-1.03-.58-2.05-1.17-3.06-1.78-2.94-1.77-5.82-3.65-8.61-5.66-.04.02-.07.05-.11.06-1.31.82-2.62,1.62-3.82,2.62-2.16,1.78-4.28,3.66-6.76,4.98-5.27,2.8-11.06,2.44-16.36-.07-1.94-.91-3.73-2.07-5.4-3.38-3.21-2.52-5.96-5.66-8.37-8.91-1.74-2.35-3.34-4.79-4.79-7.31-1.34-2.32-2.53-14.42-1.69-12.15.3.82.63,1.64.97,2.47.69,1.15,1.65,2.1,2.75,2.89,1.43,1.04,3.11,1.81,4.75,2.42,3.61,1.33,7.41,2.24,11.25,2.74,1.38.18,2.77.31,4.15.39,2.46.14,5.52.11,8.56.38-1.74-1.85-3.39-3.76-4.95-5.75-1.5-1.91-2.89-3.87-4.17-5.89-4.12-6.46-7.15-13.44-9.1-20.8-.37-1.36-.69-2.74-.98-4.13-2.44-1.61-4.77-3.23-6.97-5.28,3.15-6.45,6.53-12.74,10.12-18.81-.39,7.01,0,14.04,1.36,21.02.53,2.76,1.23,5.5,2.09,8.23.46,1.45.96,2.87,1.51,4.25-.09-.99-.13-1.99-.14-2.98-.06-9.39,3.62-18.43,8.43-26.34.72-1.19,5.82,9.81,6.3,14.74.3,3.11.31,6.24,0,9.36-.38,4.05-1.34,7.94-2.48,11.84-1.03,3.51-2.01,6.99-2.06,10.64,4.96,6.22,10.9,11.62,17.43,16.36,2.6,1.89,5.3,3.67,8.06,5.36,1.82,1.12,3.67,2.19,5.55,3.22-.56-.85-1.07-1.72-1.54-2.56-1.2-2.15-2.14-4.43-2.84-6.78-.56-1.87-.96-3.79-1.21-5.73-.9-6.94.48-13.94.84-20.88.2-4.05.06-8.09-1.1-12.09-.31-1.06,3.99,1.08,5,2.22,3.02,3.41,5.42,7.32,7.2,11.51,1.18,2.76,2.09,5.63,2.75,8.56,1.17,5.22,1.7,10.62,1.78,15.97v.22c.04,2.68-.02,5.36-.11,8.05-.08,2.2.08,4.57-.57,6.69,2.95,1.38,5.91,2.68,8.86,3.91,6.2,2.58,12.48,4.99,18.77,7.36-1.81-3.1-3.01-6.66-3.68-9.6-2.04-8.87-.57-18,.83-26.86.2-1.32,12.96,12.3,14.5,20.32.77,4.02.97,8.14.44,12.19-.29,2.21-.7,5.32-1.72,7.86,5.24,1.99,10.46,4.01,15.63,6.16,6.24,2.6,12.44,5.31,18.58,8.13,2.38,1.09,4.76,2.2,7.12,3.33-1.86-2.74-3.08-5.9-3.6-9.22-.22-1.4-.33-2.84-.37-4.3-.25-9.1-2.25-29.53-1.16-28.74,1.92,1.4,3.79,2.85,5.6,4.38,6.08,5.16,11.32,11.2,14.21,18.82,1.84,4.83,2.62,10.12,1.93,15.26-.49,3.66-2.53,7.52-1.72,11.16,1.25.64,2.51,1.29,3.76,1.94,7.75,4.06,15.8,8.42,23.49,13.36-1-1.92-1.74-3.95-2.12-6.09-1.01-5.66.61-11.17,2.25-16.55,1.35-4.44,3.6-10.68-.05-14.61-1.26-1.36,16.59,9.95,18.49,19.25,1.03,5.07.87,10.38-.54,15.36-.7,2.5-1.75,4.86-2.98,7.14-.88,1.64-1.46,3.2-1.97,4.84.62.5,1.24,1.01,1.85,1.52,8.29,6.98,15.45,15.06,20.4,24.72.42-1.93,1.01-3.82,1.77-5.64,1.87-4.45,4.89-7.9,7.93-11.58,2.57-3.09,5.87-16.37,7.07-15.9.46.18.85.57,1.06,1.2.41,1.29.6,2.51.63,3.71.71,4.65,1.08,9.33,1.09,14.02Z"/><path class="cls-1" d="M137.94,230.08c-.16-.5-.44-.93-.83-1.3-.36-.39-.8-.67-1.29-.83-.48-.25-1-.37-1.55-.35-1.04.05-2.12.39-2.84,1.18-.21.27-.42.54-.63.81-.36.63-.55,1.3-.55,2.03.03.2.05.4.08.6.09.73.12,1.39.54,2.04.35.54.8,1.03,1.36,1.36.58.43,1.28.68,2.04.68.72,0,1.38-.23,1.94-.61.16-.08.32-.18.44-.32.43-.28.77-.65,1.01-1.11l.4-.94c.05-.37.1-.73.15-1.1.03-.2.05-.4.08-.6.02-.55-.09-1.07-.35-1.55Z"/><path class="cls-1" d="M97.41,211.2c-.25-.2-.51-.39-.76-.59-.51-.3-1.07-.46-1.65-.5-.03,0-.05-.01-.08-.02-1.32-.32-2.86-.03-3.81,1.01-.7.77-1.15,1.71-1.15,2.77,0,1,.44,2.06,1.15,2.77.99.99,2.45,1.37,3.81,1.01.03,0,.06-.02.1-.03.42-.02.81-.12,1.18-.32.47-.15.87-.41,1.21-.78.65-.65,1.14-1.72,1.1-2.66-.04-.97-.36-1.98-1.1-2.66Z"/><path class="cls-1" d="M188.9,258.2s-.04-.06-.06-.09c-.18-.23-.36-.47-.54-.7-.31-.34-.69-.58-1.12-.72-.27-.16-.56-.24-.88-.24-.46-.1-.92-.08-1.38.06-.38.11-.73.29-1.09.45-.5.3-.9.7-1.2,1.2-.3.52-.46,1.09-.46,1.69,0,.6.15,1.17.46,1.69.3.5.7.9,1.2,1.2.36.16.71.34,1.09.45.31.04.61.08.92.12.48.02.92-.08,1.34-.3.29-.08.55-.23.77-.45.38-.24.68-.57.89-.97.02-.03.04-.06.06-.09.62-.87.62-2.46,0-3.32Z"/><path class="cls-1" d="M226.66,291.53s0-.02,0-.03c.08-.31.08-.63,0-.94,0-.32-.08-.62-.24-.9-.08-.3-.24-.56-.46-.79-.25-.39-.59-.69-1-.92-.18-.09-.69-.31-.88-.37-.01,0-.03,0-.04-.01-.32-.06-.64-.1-.96-.13,0,0-.02,0-.02,0-.09,0-.88.11-.97.13-.01,0-.03,0-.04.01-.1.03-.79.32-.88.37-.29.15-.57.37-.79.61,0,0-.02.02-.03.03-.19.25-.38.49-.57.74,0,0,0,.01-.01.02-.17.3-.29.62-.4.94,0,.03-.02.06-.03.08,0,0,0,.02,0,.03-.04.33-.09.66-.13.99,0,.02,0,.03,0,.05-.02.51.09.99.32,1.44.15.46.41.86.77,1.2.25.19.5.39.76.58.58.34,1.21.51,1.89.51.82-.09,1.16-.09,1.89-.51.44-.23.79-.56,1.05-.96.33-.36.55-.78.67-1.27.02-.17.05-.34.07-.51.03-.13.05-.26.05-.4Z"/><path class="cls-1" d="M71.73,313.86c-.19-.67-.52-1.25-1.01-1.74-.27-.2-.53-.41-.8-.61-.61-.36-1.28-.54-1.99-.54-.35.05-.7.09-1.05.14-.37.12-.72.27-1.05.46-.52.31-.93.72-1.24,1.24-.19.33-.34.68-.46,1.05-.16.52-.19,1.05-.07,1.57.02.52.18,1.01.47,1.46.25.46.59.83,1.01,1.1.38.35.83.58,1.34.7.7.19,1.39.19,2.09,0,.31-.13.63-.26.94-.4.59-.35,1.06-.82,1.41-1.41.29-.45.44-.94.47-1.46.12-.52.09-1.05-.07-1.57Z"/><path class="cls-1" d="M120.13,331.4c-.36-.64-.93-1.11-1.56-1.47-1.19-.69-2.69-.7-3.89,0-1.17.69-1.91,1.97-1.91,3.32s.74,2.64,1.91,3.32c1.19.7,2.69.69,3.89,0,.63-.36,1.2-.82,1.56-1.47.33-.58.53-1.18.53-1.86s-.21-1.27-.53-1.86Z"/><path class="cls-1" d="M157.56,334.14c-4.31,0-4.32,6.7,0,6.7s4.32-6.7,0-6.7Z"/><path class="cls-1" d="M260.21,183.29c-.19-.68-.53-1.27-1.03-1.77-.27-.21-.54-.42-.81-.63-.62-.36-1.3-.54-2.02-.55-.55-.02-1.06.09-1.54.34-.5.16-.93.44-1.29.83-.39.36-.67.79-.83,1.29-.25.48-.37.99-.34,1.54.05.35.1.71.14,1.06.19.68.53,1.27,1.03,1.77.27.21.54.42.81.63.62.36,1.3.54,2.02.55.55.02,1.06-.09,1.54-.34.5-.16.93-.44,1.29-.83.39-.36.67-.79.83-1.29.25-.48.37-.99.34-1.54-.05-.35-.1-.71-.14-1.06Z"/><path class="cls-1" d="M228.44,153.25c-.15-.47-.41-.88-.78-1.22-.47-.47-1.03-.8-1.67-.98-.67-.18-1.35-.18-2.02,0-.08.03-.17.06-.25.09-.3.12-.59.25-.89.37-.43.23-.78.55-1.04.95-.23.23-.39.5-.48.82-.23.44-.34.92-.32,1.43.04.33.09.66.13.99.12.3.25.59.37.88.23.43.55.78.95,1.04.36.33.78.55,1.26.66.08.03.16.06.25.09.67.18,1.34.18,2.02,0,.64-.18,1.2-.51,1.67-.98.2-.26.4-.51.59-.77.34-.59.52-1.23.52-1.92.02-.52-.09-1.01-.33-1.46Z"/><path class="cls-1" d="M187.87,134.89c-.15-.47-.42-.89-.79-1.23-.48-.47-1.04-.8-1.69-.98-.68-.18-1.36-.18-2.03,0-.43.09-.79.23-1.2.46-1.15.64-1.86,1.94-1.86,3.23s.71,2.6,1.86,3.23c.41.23.77.37,1.2.46.68.18,1.36.18,2.03,0,.65-.18,1.21-.51,1.69-.98.2-.26.4-.52.6-.77.35-.6.52-1.24.52-1.93.02-.53-.09-1.02-.33-1.47Z"/><path class="cls-1" d="M138.03,113.24c-.61-.35-1.26-.53-1.97-.53-.7,0-1.36.18-1.97.53-.07.04-.14.07-.21.11-.57.34-1.02.79-1.35,1.35-.34.59-.51,1.22-.52,1.91,0,.68.17,1.32.52,1.91.34.57.79,1.02,1.35,1.35.07.04.14.07.21.11.61.35,1.26.53,1.97.53.7,0,1.36-.18,1.97-.53,1.19-.69,1.93-1.99,1.93-3.37s-.75-2.67-1.93-3.37Z"/><path class="cls-1" d="M85.54,77.46c-.13-.31-.26-.62-.39-.93-.2-.26-.41-.53-.61-.79-.26-.2-.53-.41-.79-.61-.31-.13-.62-.26-.93-.39-.52-.16-1.04-.19-1.56-.07-.35,0-.68.09-.98.27-.48.16-.9.43-1.26.81-.03.04-.07.08-.1.12-.36.34-.62.74-.77,1.2-.23.45-.34.92-.32,1.44.04.33.09.66.13.99.18.63.5,1.18.96,1.65.03.04.07.08.1.12.26.2.53.41.79.61.31.13.62.26.93.39.52.16,1.04.19,1.56.07.35,0,.68-.09.98-.27.33-.09.62-.26.86-.5.29-.17.53-.41.7-.7.24-.24.41-.53.5-.86.24-.46.36-.97.34-1.5-.05-.35-.09-.69-.14-1.04Z"/><path class="cls-1" d="M61.01,50.62c-.31-.96-.89-1.79-1.78-2.31-.87-.51-2.01-.66-2.98-.39-1.28.35-2.37,1.4-2.7,2.7l-.12.48-.05.21c-.01.05-.03.11-.04.16-.04.33-.09.65-.13.98,0,.29.06.58.09.86,0,.31.08.6.24.87.08.29.23.55.44.76.31.4.45.62.97.89.83.44,1.72.55,2.65.34.4-.09.76-.3,1.1-.52.43-.28.7-.5.99-.85l.34-.42c.48-.48.81-1.05,1-1.71.18-.69.18-1.37,0-2.06Z"/><path class="cls-1" d="M197.01,36.39c0-.32-.08-.61-.24-.89-.14-.44-.38-.81-.73-1.13-.24-.18-.48-.37-.71-.55-.28-.12-.56-.24-.84-.36-.47-.15-.94-.17-1.41-.06-.47.02-.91.16-1.31.42-.54.34-1.04.74-1.54,1.13-.36.33-.62.73-.76,1.19-.23.44-.34.92-.32,1.42-.02.51.09.98.32,1.42.15.46.4.86.76,1.19.25.19.5.39.75.58.58.33,1.2.5,1.87.5.33-.04.66-.09.98-.13.63-.18,1.17-.49,1.63-.95.39-.51.79-1,1.13-1.54.12-.28.24-.56.36-.84.15-.47.17-.94.06-1.4Z"/><path class="cls-3" d="M272.64,201.91c0,10.01-.85,19.69-2.49,29-2.27,12.99-6.06,25.24-11.16,36.57-.5,1.12-1.01,2.23-1.54,3.32-2.85,5.95-6.06,11.63-9.61,17.02-12.27,18.63-28.51,33.76-47.41,44.26-2.04,1.14-4.11,2.21-6.21,3.24-3.94,1.93-7.99,3.66-12.14,5.18-2.19.81-4.41,1.56-6.66,2.25-12.39,3.82-25.51,5.85-39.1,5.85-52.84,0-98.65-30.62-121.28-78.1.05.03.11.06.16.1,23.85,42.57,67.26,69.54,116.84,69.54,13.73,0,26.99-2.07,39.49-5.97,5.87-1.82,11.58-4.06,17.09-6.67.48-.23.96-.46,1.44-.7,2.1-1.02,4.17-2.1,6.2-3.24,17.35-9.66,32.46-23.22,44.3-39.82,2.76-3.86,5.34-7.89,7.72-12.07.52-.91,1.04-1.84,1.54-2.76,9.14-16.83,15.26-36.03,17.54-56.92.66-6.04,1-12.22,1-18.53,0-18.89-3.05-39.41-8.62-59.89-2.26-8.35-4.95-16.68-8.03-24.9-1.38-3.7-2.84-7.38-4.38-11.02-1.84-4.36-3.79-8.68-5.83-12.93-.02-.04-.03-.07-.05-.11.31.58.61,1.16.91,1.74.3.58.6,1.16.9,1.74.3.58.59,1.17.88,1.76.29.59.58,1.17.87,1.76.29.59.58,1.18.86,1.78.28.59.57,1.18.85,1.78.18.39.36.77.54,1.16.18.39.36.78.53,1.16.77,1.66,1.52,3.33,2.26,5.01.25.56.49,1.12.73,1.68.52,1.22,1.03,2.43,1.54,3.65.02.05.04.09.06.14.28.68.56,1.36.83,2.04.47,1.16.93,2.33,1.39,3.51.46,1.17.9,2.35,1.35,3.52.58,1.55,1.14,3.09,1.69,4.65.55,1.55,1.09,3.11,1.61,4.67.57,1.7,1.12,3.41,1.66,5.12.07.23.14.45.21.68.07.23.14.46.21.7.27.87.54,1.75.8,2.63.17.57.34,1.14.51,1.71.2.7.4,1.4.6,2.1.2.7.39,1.4.59,2.1.17.63.34,1.26.51,1.88.17.63.33,1.25.5,1.88.32,1.25.64,2.51.95,3.76.3,1.23.59,2.46.88,3.69,0,.06.02.12.04.18.13.56.25,1.13.38,1.69,0,.05.02.1.03.15.11.51.23,1.03.33,1.54.05.21.09.42.14.64.1.51.21,1.01.31,1.51.13.61.25,1.22.37,1.84,0,.04.02.08.03.12.12.59.23,1.18.34,1.77.16.87.32,1.74.48,2.61v.03c.77,4.24,1.41,8.48,1.93,12.65.07.59.14,1.18.21,1.77.06.48.11.96.16,1.43.06.49.11.98.16,1.47.09.9.18,1.79.26,2.68.02.17.03.33.04.5.04.44.08.89.12,1.33.03.37.06.74.08,1.1.03.4.06.8.09,1.21.04.53.07,1.06.11,1.59.05.77.09,1.53.13,2.29.03.51.05,1.02.07,1.52,0,.12.01.23.01.34.02.51.04,1.01.06,1.51.06,1.97.1,3.93.1,5.87Z"/><path class="cls-4" d="M170.17,171.28c-12.8,61.39-57.73,101.51-101.54,95.32-30.75-4.35-52.77-30.35-58.75-66.7-2.54-15.44-2.18-32.75,1.63-51.05C24.32,87.47,77.61,7.23,121.42,13.42c23.46,3.32,39.45,30.75,47.27,64.94,6.79,29.66,7.43,64.4,1.49,92.92Z"/><path class="cls-2" d="M272.64,201.91c0,10.01-.85,19.69-2.49,29-2.27,12.99-6.06,25.24-11.16,36.57-.5,1.12-1.01,2.23-1.54,3.32-2.85,5.95-6.06,11.63-9.61,17.02-12.27,18.63-28.51,33.76-47.41,44.26-2.04,1.14-4.11,2.21-6.21,3.24-3.94,1.93-7.99,3.66-12.14,5.18-2.19.81-4.41,1.56-6.66,2.25-12.39,3.82-25.51,5.85-39.1,5.85-52.84,0-98.65-30.62-121.28-78.1.05.03.11.06.16.1,6.54,3.98,13.44,7.56,20.69,10.69,4.64,2.01,9.42,3.84,14.33,5.47.49.16.97.32,1.46.47,10.47,3.38,21,5.7,31.44,7,8.48,1.06,16.91,1.45,25.21,1.19,9.27-.29,18.39-1.38,27.23-3.26,6.51-1.37,12.88-3.17,19.06-5.38,19.79-7.06,37.63-18.29,52.16-33.26,5.59-5.76,10.69-12.07,15.22-18.91,1.66-2.51,3.25-5.08,4.75-7.73,1.21-2.12,2.36-4.27,3.45-6.48,2.84-5.71,5.32-11.71,7.4-17.99,5.43-16.33,8.34-34.99,8.79-54.51.26-11.05-.28-22.37-1.59-33.7-.1-.9-.21-1.79-.32-2.68-.41-3.19-.87-6.38-1.41-9.57-.18-1.09-.37-2.18-.57-3.26-1.17-6.5-2.6-12.96-4.29-19.32-.13-.49-.26-.97-.39-1.46.26.46.52.93.78,1.4.99,1.78,1.96,3.58,2.91,5.39-.02-.04-.03-.07-.05-.11.31.58.61,1.16.91,1.74.3.58.6,1.16.9,1.74.3.58.59,1.17.88,1.76.29.59.58,1.17.87,1.76.29.59.58,1.18.86,1.78.28.59.57,1.18.85,1.78.18.39.36.77.54,1.16.19.39.37.77.54,1.16.77,1.66,1.52,3.34,2.25,5.01.25.56.49,1.12.73,1.68.53,1.22,1.04,2.43,1.54,3.65.02.05.04.09.06.14.28.68.57,1.36.84,2.05.47,1.17.93,2.33,1.38,3.5.46,1.17.9,2.35,1.35,3.52.58,1.55,1.14,3.09,1.69,4.65.55,1.55,1.09,3.11,1.61,4.67.58,1.7,1.13,3.4,1.66,5.1.07.23.14.46.21.69.07.23.14.46.21.7.27.87.54,1.75.8,2.63.17.57.34,1.14.51,1.71.2.7.4,1.4.6,2.1.2.7.39,1.4.59,2.1.17.63.34,1.26.51,1.88.17.63.33,1.25.5,1.88.32,1.25.64,2.51.95,3.76.3,1.23.59,2.46.88,3.69,0,.06.02.12.04.18.13.56.25,1.13.38,1.69,0,.05.02.1.03.15.11.51.23,1.03.33,1.54.05.21.09.42.14.64.1.51.21,1.01.31,1.51.13.61.25,1.22.37,1.84,0,.04.02.08.03.12.12.59.23,1.18.34,1.77.16.87.32,1.74.48,2.61v.03c.77,4.24,1.41,8.48,1.93,12.65.07.59.14,1.18.21,1.77.06.48.11.96.16,1.43.06.49.11.98.16,1.47.09.9.18,1.79.26,2.68.02.17.03.33.04.5.04.44.08.89.12,1.33.03.37.06.74.08,1.1.03.4.06.8.09,1.21.04.53.07,1.06.11,1.59.05.77.09,1.53.13,2.29.03.51.05,1.02.07,1.52,0,.12.01.23.01.34.02.51.04,1.01.06,1.51.06,1.97.1,3.93.1,5.87Z"/><path class="cls-5" d="M106.67,28.45c-10.15-1.13-21.11,7.52-28.03,13.87-38.38,35.18-62,95.73-57.72,147.65.47,5.72.17,13.5,3.99,18.09,4.51,5.41,14.06,6.39,18.94,1.01,6.07-6.7,4.88-21.76,6.31-30.32,4.22-25.3,9.8-51.51,20.19-74.98,10.43-23.57,24.31-45.37,38.27-66.97.83-1.29,1.7-2.67,1.71-4.21.03-2.72-1.47-3.89-3.67-4.13Z"/><path class="cls-5" d="M75.78,118.59c-3.76,10.85-6.09,22.37-6.95,33.84-.7,9.32,6.15,16.16,10.9,6.84,5.22-10.22,16.09-58.42,10.16-60.89-4.94-2.07-11.98,14.06-14.11,20.21Z"/></svg>