<?xml version="1.0" encoding="UTF-8"?><svg id="_ÎÓÈ_1" xmlns="http://www.w3.org/2000/svg" xmlns:xlink="http://www.w3.org/1999/xlink" viewBox="0 0 272.64 348.59"><defs><style>.cls-1{opacity:.42;}.cls-1,.cls-2,.cls-3{fill:#fff;}.cls-2{opacity:.41;}.cls-3{opacity:.36;}.cls-4{fill:url(#_ÂÁ_Ï_ÌÌ_È_ËÂÌÚ_47);opacity:.67;}.cls-5{opacity:.14;}.cls-6{fill:url(#_ÂÁ_Ï_ÌÌ_È_ËÂÌÚ_48);}</style><linearGradient id="_ÂÁ_Ï_ÌÌ_È_ËÂÌÚ_48" x1="199.29" y1="325.96" x2="48.99" y2="11.45" gradientUnits="userSpaceOnUse"><stop offset=".17" stop-color="#c29dab"/><stop offset=".83" stop-color="#ffd0ff"/></linearGradient><linearGradient id="_ÂÁ_Ï_ÌÌ_È_ËÂÌÚ_47" x1="136.7" y1="348.59" x2="136.7" y2=".02" gradientUnits="userSpaceOnUse"><stop offset="0" stop-color="#cc0058"/><stop offset="1" stop-color="#bd93a2"/></linearGradient></defs><path class="cls-6" d="M272.64,201.91c0,2.27-.04,4.53-.13,6.76-.16,4.17-.47,8.28-.93,12.33-1.3,11.58-3.79,22.63-7.31,33.05-1.46,4.31-3.1,8.52-4.9,12.6-4.31,9.74-9.57,18.82-15.67,27.11-2.9,3.96-6,7.74-9.27,11.33-10.1,11.08-21.85,20.35-34.84,27.44-4.53,2.48-9.22,4.69-14.04,6.62-2.12.85-4.27,1.65-6.44,2.39-7.67,2.62-15.63,4.54-23.84,5.71-3.87.55-7.79.94-11.76,1.15-2.38.13-4.77.19-7.19.19-5.65,0-11.22-.35-16.68-1.03-4.45-.55-8.84-1.33-13.15-2.32-5.23-1.2-10.35-2.71-15.34-4.52-10.33-3.75-20.1-8.77-29.12-14.91-3.75-2.56-7.38-5.31-10.86-8.24-8.28-6.98-15.77-14.99-22.31-23.92-2.99-4.08-5.79-8.35-8.35-12.79-1.95-3.35-3.77-6.82-5.47-10.36-3.6-7.56-6.62-15.55-8.98-23.9-2.04-7.22-3.59-14.71-4.62-22.45-.96-7.21-1.45-14.63-1.45-22.23,0-5.94.3-12.05.89-18.26.77-8.1,2.01-16.39,3.72-24.75,1.86-9.16,4.26-18.41,7.16-27.59,1.35-4.31,2.82-8.6,4.39-12.86,4.08-11.08,8.86-21.97,14.24-32.36,1.67-3.21,3.39-6.38,5.17-9.49,5.4-9.46,11.33-18.42,17.7-26.65,1.78-2.3,3.59-4.53,5.43-6.71,5.57-6.58,11.44-12.6,17.58-17.91,2.07-1.8,4.17-3.52,6.3-5.14,8.38-6.43,17.21-11.54,26.36-15.01,3.54-1.34,7.13-2.44,10.76-3.27,1.37-.32,2.74-.59,4.12-.83,3.55-.61,7.14-.97,10.76-1.05.58-.02,1.15-.02,1.73-.02,11.28,0,22.25,2.63,32.73,7.4,2.55,1.16,5.07,2.44,7.56,3.85,7.98,4.5,15.65,10.22,22.93,16.91,2.78,2.57,5.51,5.27,8.18,8.11,7.47,7.94,14.47,16.91,20.9,26.6,3.22,4.85,6.29,9.88,9.21,15.05,1.32,2.33,2.6,4.69,3.86,7.08,2.84,5.42,5.52,10.98,8.01,16.63,2.11,4.77,4.09,9.6,5.93,14.48,3.73,9.88,6.91,19.93,9.47,29.97,1.33,5.18,2.49,10.35,3.48,15.5.67,3.48,1.26,6.94,1.77,10.39,1.03,6.98,1.73,13.87,2.07,20.59.16,3.16.24,6.28.24,9.36Z"/><path class="cls-4" d="M266.46,205.77c2.03-4.38,4.01-8.79,5.94-13.22-.34-6.72-1.04-13.61-2.07-20.59-4.56,9.63-9.33,19.14-14.29,28.55-3.01-1.56-5.99-3.15-8.96-4.78-7.46-4.08-14.79-8.37-22.03-12.83,4.83-9.12,9.46-18.34,13.87-27.68,1.19-2.52,2.36-5.07,3.52-7.61,8.56,4.84,17.27,9.56,26.13,13.96-.99-5.14-2.15-10.32-3.48-15.5-4.57-2.29-9.12-4.64-13.62-7.08-1.41-.77-2.82-1.55-4.22-2.32,2.9-6.78,5.68-13.62,8.34-20.5,0-.02.02-.04.02-.07-1.84-4.88-3.82-9.71-5.93-14.48-.08.19-.16.38-.24.57-4.06,9.6-8.24,19.13-12.59,28.59-7.33-4.24-14.57-8.61-21.73-13.12,4.29-8.17,8.45-16.41,12.46-24.72,1.88-3.91,3.72-7.84,5.52-11.78,2.84,1.3,5.7,2.58,8.56,3.83-1.25-2.39-2.54-4.75-3.86-7.08-2.92-5.17-5.99-10.2-9.21-15.05-.53,1.11-1.06,2.23-1.59,3.34-4.53-2.15-9.03-4.34-13.5-6.58-4.07-2.04-8.1-4.13-12.12-6.25,2.29-5.64,4.41-11.34,6.32-17.1-2.67-2.83-5.4-5.54-8.18-8.11-2.39,6.74-5.1,13.34-8.03,19.85-8.94-4.95-17.76-10.12-26.45-15.5,2.34-4.2,4.66-8.4,6.95-12.63,1.54-2.86,3.1-5.74,4.61-8.63-2.49-1.4-5.01-2.69-7.56-3.85-.71,1.15-1.42,2.29-2.14,3.42-3.44,5.45-6.84,10.93-10.25,16.4-6.6-4.21-13.13-8.54-19.6-12.98-2.71-1.86-5.41-3.75-8.09-5.65,1.14-1.69,2.27-3.4,3.39-5.1.75-1.15,1.49-2.31,2.23-3.48-3.62.08-7.21.44-10.76,1.05-.63.83-1.24,1.66-1.86,2.49-.75-.55-1.51-1.11-2.26-1.67-3.63.83-7.22,1.93-10.76,3.27,2.48,1.97,4.99,3.92,7.5,5.86-2.61,3.55-5.21,7.1-7.82,10.66-3.01,4.11-6.03,8.21-9.05,12.3-3.97-3.05-7.91-6.13-11.77-9.31-1.77-1.46-3.52-2.96-5.22-4.5-2.13,1.62-4.23,3.34-6.3,5.14.63.68,1.28,1.34,1.93,2,5.02,4.97,10.43,9.56,15.89,14.06-5.22,7.05-10.46,14.08-15.72,21.09-2.87-2.8-5.73-5.61-8.58-8.44-3.66-3.64-7.4-7.2-11.11-10.79-1.85,2.18-3.66,4.41-5.43,6.71,2.37,2.66,4.74,5.31,7.14,7.93,3.91,4.28,7.9,8.48,11.93,12.65-.58.77-1.15,1.54-1.73,2.31-5.66,7.5-11.34,14.99-17.03,22.46-3.39-3.37-6.74-6.78-10.07-10.21-2.69-2.78-5.31-5.64-7.94-8.49-1.78,3.11-3.51,6.27-5.17,9.49.8.92,1.6,1.84,2.39,2.76,4.54,5.25,9.2,10.39,13.95,15.43-6.68,8.75-13.37,17.49-20.09,26.2-3.57-3.95-7.07-7.97-10.5-12.03-1.57,4.26-3.03,8.55-4.39,12.86,1.19,1.42,2.38,2.84,3.58,4.26,1.29,1.52,2.58,3.02,3.89,4.51-4.86,6.29-9.74,12.56-14.63,18.82-1.7,8.36-2.95,16.65-3.72,24.75.24-.3.47-.61.71-.91,6.51,7.79,13.27,15.37,20.13,22.84.6.65,1.2,1.29,1.8,1.94-6.03,6.85-12.15,13.63-18.34,20.35-.06.06-.11.12-.16.17-1.18-1.29-2.37-2.57-3.54-3.86-.01-.01-.03-.03-.04-.05,1.03,7.74,2.57,15.23,4.62,22.45.43-.45.84-.9,1.27-1.34,4.58,5.66,9.24,11.26,14.06,16.7,2.85,3.22,5.73,6.42,8.65,9.58-3.15,3.13-6.33,6.24-9.53,9.32,2.57,4.44,5.36,8.71,8.35,12.79,3.87-3.68,7.71-7.41,11.5-11.17,6.39,6.59,12.96,13,19.75,19.2,1.19,1.08,2.38,2.15,3.58,3.22-4.13,4.27-8.31,8.49-12.52,12.67,3.48,2.93,7.11,5.68,10.86,8.24,3.98-3.99,7.91-8.03,11.8-12.11,8.01,6.74,16.25,13.19,24.71,19.36-2.44,2.57-4.9,5.12-7.39,7.65,4.99,1.81,10.1,3.32,15.34,4.52,1.26-1.3,2.5-2.61,3.74-3.92,3.11,2.12,6.24,4.2,9.4,6.24,5.47.69,11.04,1.03,16.68,1.03,2.41,0,4.81-.06,7.19-.19-8.62-4.92-17.06-10.13-25.33-15.62,6.99-7.6,13.83-15.34,20.51-23.22,10.26,7.2,20.74,14.07,31.44,20.57-4.86,5.79-9.81,11.5-14.86,17.11,8.21-1.17,16.17-3.09,23.84-5.71,1.15-1.36,2.28-2.73,3.41-4.11,1.01.57,2.02,1.15,3.03,1.72,4.82-1.93,9.51-4.14,14.04-6.62-3.04-1.63-6.07-3.29-9.09-4.98,4.84-6.1,9.59-12.27,14.23-18.52,3.48-4.7,6.91-9.45,10.28-14.24,6.34,3.58,12.81,7.06,19.42,10.3,3.27-3.59,6.36-7.37,9.27-11.33-5.91-2.8-11.76-5.82-17.62-9.04-1.01-.55-2-1.11-3-1.67,5.84-8.71,11.45-17.56,16.79-26.57,6.1,3.44,12.29,6.71,18.61,9.75.3.14.59.28.89.42,1.8-4.09,3.44-8.29,4.9-12.6-5.99-2.89-11.88-5.99-17.68-9.25,5.24-9.38,10.2-18.9,14.91-28.55,1.76.86,3.52,1.71,5.29,2.54,1.6.75,3.19,1.49,4.8,2.22.45-4.05.77-8.16.93-12.33-2.02-.95-4.04-1.92-6.04-2.9ZM231.85,141.51c-5.55,11.68-11.45,23.19-17.68,34.52-7.07-4.58-14.04-9.32-20.92-14.19-.72-.51-1.43-1.03-2.14-1.54,6.44-10.68,12.64-21.5,18.59-32.45,7.3,4.69,14.68,9.25,22.16,13.66ZM158.06,135.08c6.19-9.89,12.2-19.91,17.93-30.09,7.62,5.43,15.31,10.74,23.1,15.93-5.92,10.73-12.06,21.33-18.4,31.8-7.67-5.72-15.2-11.61-22.63-17.64ZM174.76,162.38c-4.86,7.8-9.85,15.53-14.96,23.17-7.81-5.86-15.57-11.8-23.26-17.82,5.32-7.65,10.49-15.4,15.54-23.24,7.44,6.11,14.99,12.08,22.68,17.88ZM147.48,126.32c-8.8-7.41-17.44-15.01-25.95-22.76,5.9-8.67,11.64-17.44,17.21-26.3,1.69,1.31,3.39,2.62,5.09,3.92,7.14,5.47,14.34,10.86,21.6,16.17-5.79,9.78-11.81,19.43-17.94,28.96ZM130.22,125.88c3.71,3.27,7.44,6.5,11.21,9.71-5.22,7.91-10.55,15.69-15.98,23.38-9.2-7.37-18.3-14.87-27.25-22.55,5.83-7.88,11.56-15.84,17.16-23.88,4.92,4.5,9.88,8.94,14.86,13.34ZM109.43,162.17c2.87,2.38,5.75,4.72,8.64,7.07-6.8,9.31-13.76,18.47-20.91,27.48-2.38-1.93-4.76-3.88-7.13-5.85-6.87-5.72-13.63-11.57-20.27-17.55,7.12-8.89,14.14-17.88,21.03-26.98,6.14,5.36,12.36,10.64,18.65,15.84ZM73.67,194.14c4.99,4.37,10.05,8.66,15.16,12.88-7.46,9.1-15.14,18.04-23.03,26.87-8.65-8.24-17.11-16.68-25.39-25.27,6.57-7.59,13.04-15.26,19.4-23.02.61-.74,1.22-1.49,1.82-2.24,3.97,3.65,7.98,7.24,12.03,10.79ZM100.14,216.2c7.97,6.34,16.05,12.54,24.23,18.6-7.78,10.04-15.89,20.03-24.24,29.85-7.99-6.7-15.82-13.59-23.51-20.64,8.04-9.1,15.88-18.37,23.52-27.81ZM108.49,205.73c7.1-9.06,14-18.27,20.71-27.61,7.73,6.1,15.53,12.12,23.39,18.07-6.46,9.37-13.1,18.62-19.92,27.73-8.18-5.94-16.23-11.98-24.18-18.19ZM162.93,203.97c1.04.78,2.09,1.56,3.14,2.34,6.88,5.13,13.77,10.24,20.72,15.28-5.54,8.45-11.26,16.77-17.08,25.04-.48.69-.97,1.38-1.47,2.07-4.45-3.02-8.89-6.05-13.31-9.08-3.93-2.7-7.83-5.41-11.7-8.14,6.75-9.04,13.31-18.21,19.7-27.51ZM179.93,200.46c-3.26-2.38-6.51-4.78-9.76-7.18,5.03-7.55,9.95-15.18,14.74-22.89.07-.11.14-.23.21-.34,7.66,5.54,15.45,10.91,23.37,16.07-4.71,8.24-9.59,16.39-14.64,24.43-4.66-3.34-9.3-6.71-13.93-10.09ZM192.53,73.33c1.6-3.33,3.15-6.68,4.65-10.06,8.26,4.46,16.62,8.73,25.08,12.8-.17.36-.35.72-.52,1.08-5.5,11.36-11.23,22.61-17.2,33.73-.45-.29-.89-.58-1.34-.87-7.36-4.82-14.63-9.76-21.85-14.78,3.89-7.22,7.63-14.52,11.18-21.9ZM160.01,41.49c1.35.86,2.71,1.71,4.07,2.56,7.54,4.69,15.18,9.22,22.91,13.59-.35.71-.7,1.43-1.05,2.14-4.7,9.5-9.74,18.85-15,28.09-8.97-6.41-17.84-12.94-26.65-19.56,2.12-3.46,4.2-6.94,6.26-10.43,3.2-5.43,6.35-10.9,9.46-16.38ZM112.07,33.01c3.86-5.51,7.73-11,11.55-16.54.98.73,1.96,1.47,2.94,2.19,8.07,5.96,16.32,11.68,24.7,17.18-1.73,2.73-3.47,5.45-5.24,8.16-3.72,5.72-7.5,11.4-11.29,17.08-7.53-5.75-15.03-11.55-22.5-17.36-1.65-1.29-3.31-2.57-4.98-3.85,1.61-2.28,3.22-4.57,4.82-6.86ZM101.75,47.64c9.03,7.39,18.09,14.74,27.25,21.99-5.66,8.37-11.38,16.71-17.17,25-5.42-5.06-10.8-10.18-16.12-15.34-3.26-3.16-6.51-6.31-9.77-9.46,5.3-7.37,10.56-14.77,15.81-22.18ZM79.86,78.25c.95.97,1.9,1.94,2.85,2.9,7.46,7.6,15.11,15.04,22.89,22.35-1.1,1.55-2.19,3.11-3.29,4.66-4.65,6.56-9.38,13.06-14.16,19.51-5.56-4.9-11.07-9.88-16.5-14.93-3.35-3.12-6.68-6.28-9.97-9.47,6.1-8.31,12.15-16.66,18.18-25.02ZM37.2,136.34c5.9-7.88,11.77-15.79,17.61-23.71.69.7,1.38,1.4,2.07,2.09,7.78,7.8,15.78,15.37,23.94,22.75-6.84,9.03-13.8,17.96-20.89,26.8-8.58-8.05-16.92-16.34-25.02-24.88.76-1.01,1.53-2.03,2.29-3.04ZM10.7,176.32c-.74-.81-1.47-1.63-2.19-2.46,6.35-8.17,12.68-16.37,18.95-24.61,7.87,8.58,16.02,16.89,24.43,24.95-6.8,8.29-13.72,16.5-20.75,24.62-6.89-7.42-13.63-14.99-20.43-22.5ZM37.56,263.97c-1.43-1.53-2.86-3.07-4.28-4.62-6.46-7.06-12.87-14.16-19.23-21.32,6.31-6.82,12.54-13.71,18.69-20.67,8.19,8.6,16.56,17.03,25.13,25.26-3.29,3.58-6.62,7.13-9.98,10.67-3.41,3.59-6.86,7.14-10.33,10.68ZM71.37,296.84c-8.03-7.08-15.82-14.44-23.36-22.05,1.38-1.41,2.75-2.82,4.12-4.24,5.61-5.82,11.13-11.74,16.58-17.72,7.71,7.13,15.58,14.1,23.61,20.89-5.98,6.84-12.06,13.59-18.21,20.2-.9.97-1.82,1.94-2.73,2.91ZM106.39,324.69c-8.54-6.08-16.82-12.48-24.87-19.17,7.13-7.66,14.13-15.44,20.97-23.35,8.08,6.58,16.32,12.96,24.71,19.14-6.78,7.93-13.72,15.73-20.81,23.38ZM135.06,291.96c-1.04-.76-2.09-1.52-3.13-2.29-7.33-5.39-14.53-10.96-21.62-16.66,8.27-9.83,16.33-19.84,24.18-30.01.13-.17.26-.33.39-.51,1.58,1.14,3.15,2.27,4.74,3.4,6.73,4.81,13.51,9.56,20.35,14.24-.81,1.09-1.61,2.19-2.43,3.28-2.1,2.82-4.23,5.62-6.37,8.42-.76.98-1.27,1.65-2.36,3.04-1.08,1.39-2.17,2.77-3.26,4.15-3.45,4.35-6.94,8.66-10.48,12.94ZM198.36,293.96c-6.88,9.5-13.06,17.6-20.21,26.44-10.74-6.41-21.27-13.19-31.57-20.3.86-1.05,1.72-2.1,2.58-3.15,7.71-9.49,15.2-19.15,22.44-28.99,10.26,6.81,20.66,13.42,31.23,19.73-1.48,2.09-2.96,4.18-4.47,6.26ZM210.88,276.03c-10.5-6.24-20.81-12.81-31-19.55,6.23-8.83,12.24-17.8,18.04-26.93,8.58,6.04,17.28,11.92,26.17,17.5,1.31.82,2.62,1.63,3.93,2.44-5.53,8.96-11.24,17.82-17.14,26.54ZM238.34,232.31c-1.11,1.91-2.24,3.81-3.37,5.71-10.26-6.21-20.25-12.84-30.09-19.68,5.05-8.31,9.93-16.72,14.63-25.23,5.15,3.17,10.35,6.26,15.61,9.25,5.08,2.89,10.22,5.68,15.41,8.38-3.96,7.25-8.03,14.44-12.2,21.57Z"/><path class="cls-3" d="M241.46,84.6c16.91,35.02,26.91,74.63,26.91,108.85,0,84.52-61.03,146.68-136.32,146.68-49.59,0-93-26.97-116.85-69.54-.05-.03-.11-.06-.16-.1,22.62,47.48,68.44,78.1,121.28,78.1,75.29,0,136.32-62.16,136.32-146.68,0-37.01-11.7-80.31-31.18-117.31Z"/><path class="cls-2" d="M168.42,168.89c-12.55,60.6-56.12,100.32-98.48,94.34-29.73-4.2-50.96-29.8-56.64-65.65-2.41-15.23-2.02-32.3,1.72-50.37C27.57,86.6,79.35,7.28,121.71,13.27c22.68,3.21,38.07,30.23,45.54,63.94,6.48,29.24,7.01,63.53,1.18,91.68Z"/><path class="cls-5" d="M272.64,201.9c0,84.52-61.03,146.68-136.32,146.68-52.84,0-98.65-30.62-121.28-78.1,10.77,6.57,22.55,12.06,35.17,16.26,79.26,26.33,162.11-8.27,187.38-84.34,11.81-35.54,11.73-82.18.22-124.49,21.65,38.38,34.82,84.73,34.82,123.99Z"/><path class="cls-1" d="M119.19,28.47c-17.14-1.9-33.59,18.55-43.19,30.16-17.26,20.86-30.39,45.42-37.8,71.48-3.78,13.28-6.07,27.03-6.36,40.85-.22,10.21-1.36,28.74,5.59,37.11.41.5.86.95,1.35,1.37,4.86,4.17,13.16,4.54,17.59-.36.43-.48.83-1,1.19-1.56,5.06-7.79,4.21-19.49,5.3-28.42,1.47-12.02,3.73-23.94,6.76-35.66,5.32-20.62,13.62-40.35,23.43-59.22,4.91-9.46,10.22-18.71,15.76-27.82,2.24-3.68,21.39-26.72,10.39-27.94Z"/><path class="cls-1" d="M88.31,118.61c-3.76,10.85-6.09,22.37-6.95,33.84-.7,9.32,6.15,16.16,10.9,6.84,5.22-10.22,16.09-58.42,10.16-60.89-4.94-2.07-11.99,14.06-14.11,20.21Z"/></svg>