<?xml version="1.0" encoding="UTF-8"?><svg id="_ÎÓÈ_1" xmlns="http://www.w3.org/2000/svg" xmlns:xlink="http://www.w3.org/1999/xlink" viewBox="0 0 272.64 348.59"><defs><style>.cls-1{fill:#1d1d1b;opacity:.23;}.cls-2{fill:url(#_ÂÁ_Ï_ÌÌ_È_ËÂÌÚ_38-18);}.cls-3{fill:url(#_ÂÁ_Ï_ÌÌ_È_ËÂÌÚ_38-19);}.cls-4{fill:url(#_ÂÁ_Ï_ÌÌ_È_ËÂÌÚ_38-16);}.cls-5{fill:url(#_ÂÁ_Ï_ÌÌ_È_ËÂÌÚ_38-17);}.cls-6{fill:url(#_ÂÁ_Ï_ÌÌ_È_ËÂÌÚ_38-14);}.cls-7{fill:url(#_ÂÁ_Ï_ÌÌ_È_ËÂÌÚ_38-15);}.cls-8{fill:url(#_ÂÁ_Ï_ÌÌ_È_ËÂÌÚ_38-12);}.cls-9{fill:url(#_ÂÁ_Ï_ÌÌ_È_ËÂÌÚ_38-13);}.cls-10{fill:url(#_ÂÁ_Ï_ÌÌ_È_ËÂÌÚ_38-10);}.cls-11{fill:url(#_ÂÁ_Ï_ÌÌ_È_ËÂÌÚ_38-11);}.cls-12{fill:url(#_ÂÁ_Ï_ÌÌ_È_ËÂÌÚ_38-26);}.cls-13{fill:url(#_ÂÁ_Ï_ÌÌ_È_ËÂÌÚ_38-20);}.cls-14{fill:url(#_ÂÁ_Ï_ÌÌ_È_ËÂÌÚ_38-25);}.cls-15{fill:url(#_ÂÁ_Ï_ÌÌ_È_ËÂÌÚ_38-21);}.cls-16{fill:url(#_ÂÁ_Ï_ÌÌ_È_ËÂÌÚ_38-22);}.cls-17{fill:url(#_ÂÁ_Ï_ÌÌ_È_ËÂÌÚ_38-23);}.cls-18{fill:url(#_ÂÁ_Ï_ÌÌ_È_ËÂÌÚ_38-24);}.cls-19{opacity:.18;}.cls-19,.cls-20,.cls-21{fill:#fff;}.cls-20{opacity:.28;}.cls-21{opacity:.42;}.cls-22{fill:url(#_ÂÁ_Ï_ÌÌ_È_ËÂÌÚ_38-3);}.cls-23{fill:url(#_ÂÁ_Ï_ÌÌ_È_ËÂÌÚ_38-4);}.cls-24{fill:url(#_ÂÁ_Ï_ÌÌ_È_ËÂÌÚ_38-5);}.cls-25{fill:url(#_ÂÁ_Ï_ÌÌ_È_ËÂÌÚ_38-6);}.cls-26{fill:url(#_ÂÁ_Ï_ÌÌ_È_ËÂÌÚ_38-2);}.cls-27{fill:url(#_ÂÁ_Ï_ÌÌ_È_ËÂÌÚ_38-7);}.cls-28{fill:url(#_ÂÁ_Ï_ÌÌ_È_ËÂÌÚ_38-8);}.cls-29{fill:url(#_ÂÁ_Ï_ÌÌ_È_ËÂÌÚ_38-9);}.cls-30{fill:url(#_ÂÁ_Ï_ÌÌ_È_ËÂÌÚ_38);}.cls-31{fill:url(#_ÂÁ_Ï_ÌÌ_È_ËÂÌÚ_39);}</style><linearGradient id="_ÂÁ_Ï_ÌÌ_È_ËÂÌÚ_39" x1="175.46" y1="333.92" x2="78.57" y2="-.93" gradientUnits="userSpaceOnUse"><stop offset=".17" stop-color="#d46627"/><stop offset="1" stop-color="#ddb877"/></linearGradient><linearGradient id="_ÂÁ_Ï_ÌÌ_È_ËÂÌÚ_38" x1="223.63" y1="-67.51" x2="215.17" y2="381.3" gradientUnits="userSpaceOnUse"><stop offset=".14" stop-color="#e0e5e8"/><stop offset=".15" stop-color="#dde4e7"/><stop offset=".5" stop-color="#a6d2de"/><stop offset=".75" stop-color="#84c7d8"/><stop offset=".89" stop-color="#78c3d6"/></linearGradient><linearGradient id="_ÂÁ_Ï_ÌÌ_È_ËÂÌÚ_38-2" x1="142.06" y1="-69.06" x2="133.59" y2="379.76" xlink:href="#_ÂÁ_Ï_ÌÌ_È_ËÂÌÚ_38"/><linearGradient id="_ÂÁ_Ï_ÌÌ_È_ËÂÌÚ_38-3" x1="145.84" y1="-1.18" x2="145.45" y2="19.57" xlink:href="#_ÂÁ_Ï_ÌÌ_È_ËÂÌÚ_38"/><linearGradient id="_ÂÁ_Ï_ÌÌ_È_ËÂÌÚ_38-4" x1="166.87" y1="-11.15" x2="162.47" y2="222.37" xlink:href="#_ÂÁ_Ï_ÌÌ_È_ËÂÌÚ_38"/><linearGradient id="_ÂÁ_Ï_ÌÌ_È_ËÂÌÚ_38-5" x1="155.58" y1="-68.8" x2="147.11" y2="380.02" xlink:href="#_ÂÁ_Ï_ÌÌ_È_ËÂÌÚ_38"/><linearGradient id="_ÂÁ_Ï_ÌÌ_È_ËÂÌÚ_38-6" x1="114.96" y1="-69.57" x2="106.49" y2="379.25" xlink:href="#_ÂÁ_Ï_ÌÌ_È_ËÂÌÚ_38"/><linearGradient id="_ÂÁ_Ï_ÌÌ_È_ËÂÌÚ_38-7" x1="262.91" y1="79.94" x2="260.69" y2="197.36" xlink:href="#_ÂÁ_Ï_ÌÌ_È_ËÂÌÚ_38"/><linearGradient id="_ÂÁ_Ï_ÌÌ_È_ËÂÌÚ_38-8" x1="229.42" y1="-67.41" x2="220.96" y2="381.42" xlink:href="#_ÂÁ_Ï_ÌÌ_È_ËÂÌÚ_38"/><linearGradient id="_ÂÁ_Ï_ÌÌ_È_ËÂÌÚ_38-9" x1="265.36" y1="93" x2="262.79" y2="229.38" xlink:href="#_ÂÁ_Ï_ÌÌ_È_ËÂÌÚ_38"/><linearGradient id="_ÂÁ_Ï_ÌÌ_È_ËÂÌÚ_38-10" x1="51.08" y1="62.05" x2="46.02" y2="330.43" xlink:href="#_ÂÁ_Ï_ÌÌ_È_ËÂÌÚ_38"/><linearGradient id="_ÂÁ_Ï_ÌÌ_È_ËÂÌÚ_38-11" x1="7.27" y1="113.87" x2="4.42" y2="265.26" xlink:href="#_ÂÁ_Ï_ÌÌ_È_ËÂÌÚ_38"/><linearGradient id="_ÂÁ_Ï_ÌÌ_È_ËÂÌÚ_38-12" x1="41.57" y1="-35.3" x2="34.04" y2="363.56" xlink:href="#_ÂÁ_Ï_ÌÌ_È_ËÂÌÚ_38"/><linearGradient id="_ÂÁ_Ï_ÌÌ_È_ËÂÌÚ_38-13" x1="91.44" y1="-70.01" x2="82.97" y2="378.81" xlink:href="#_ÂÁ_Ï_ÌÌ_È_ËÂÌÚ_38"/><linearGradient id="_ÂÁ_Ï_ÌÌ_È_ËÂÌÚ_38-14" x1="79.48" y1="2.99" x2="77.06" y2="131.3" xlink:href="#_ÂÁ_Ï_ÌÌ_È_ËÂÌÚ_38"/><linearGradient id="_ÂÁ_Ï_ÌÌ_È_ËÂÌÚ_38-15" x1="109.31" y1="-47.08" x2="102.62" y2="307.46" xlink:href="#_ÂÁ_Ï_ÌÌ_È_ËÂÌÚ_38"/><linearGradient id="_ÂÁ_Ï_ÌÌ_È_ËÂÌÚ_38-16" x1="269.72" y1="114.59" x2="267.41" y2="237.04" xlink:href="#_ÂÁ_Ï_ÌÌ_È_ËÂÌÚ_38"/><linearGradient id="_ÂÁ_Ï_ÌÌ_È_ËÂÌÚ_38-17" x1="259.47" y1="81.96" x2="255.18" y2="309.39" xlink:href="#_ÂÁ_Ï_ÌÌ_È_ËÂÌÚ_38"/><linearGradient id="_ÂÁ_Ï_ÌÌ_È_ËÂÌÚ_38-18" x1="103.1" y1="244.73" x2="101.15" y2="347.75" xlink:href="#_ÂÁ_Ï_ÌÌ_È_ËÂÌÚ_38"/><linearGradient id="_ÂÁ_Ï_ÌÌ_È_ËÂÌÚ_38-19" x1="131.2" y1="57.86" x2="125.61" y2="354.05" xlink:href="#_ÂÁ_Ï_ÌÌ_È_ËÂÌÚ_38"/><linearGradient id="_ÂÁ_Ï_ÌÌ_È_ËÂÌÚ_38-20" x1="201.93" y1="-28.7" x2="194.29" y2="375.8" xlink:href="#_ÂÁ_Ï_ÌÌ_È_ËÂÌÚ_38"/><linearGradient id="_ÂÁ_Ï_ÌÌ_È_ËÂÌÚ_38-21" x1="240.55" y1="166.58" x2="237.73" y2="316.26" xlink:href="#_ÂÁ_Ï_ÌÌ_È_ËÂÌÚ_38"/><linearGradient id="_ÂÁ_Ï_ÌÌ_È_ËÂÌÚ_38-22" x1="34.97" y1="-63.93" x2="26.72" y2="373.3" xlink:href="#_ÂÁ_Ï_ÌÌ_È_ËÂÌÚ_38"/><linearGradient id="_ÂÁ_Ï_ÌÌ_È_ËÂÌÚ_38-23" x1="194.5" y1="-68.07" x2="186.03" y2="380.75" xlink:href="#_ÂÁ_Ï_ÌÌ_È_ËÂÌÚ_38"/><linearGradient id="_ÂÁ_Ï_ÌÌ_È_ËÂÌÚ_38-24" x1="68.11" y1="-70.45" x2="59.65" y2="378.36" xlink:href="#_ÂÁ_Ï_ÌÌ_È_ËÂÌÚ_38"/><linearGradient id="_ÂÁ_Ï_ÌÌ_È_ËÂÌÚ_38-25" x1="217.29" y1="-67.64" x2="208.82" y2="381.19" xlink:href="#_ÂÁ_Ï_ÌÌ_È_ËÂÌÚ_38"/><linearGradient id="_ÂÁ_Ï_ÌÌ_È_ËÂÌÚ_38-26" x1="103.2" y1="-69.79" x2="94.73" y2="379.03" xlink:href="#_ÂÁ_Ï_ÌÌ_È_ËÂÌÚ_38"/></defs><path class="cls-31" d="M272.64,201.91v.44c0,2.31-.06,4.59-.15,6.87-.12,2.7-.29,5.38-.53,8.03-1.29,14.34-4.37,27.91-9,40.5-1.17,3.2-2.44,6.33-3.81,9.4-3.99,8.93-8.77,17.29-14.27,25-1.68,2.37-3.43,4.67-5.25,6.9-1.8,2.23-3.67,4.4-5.6,6.5-.7.75-1.4,1.5-2.11,2.23-.65.69-1.32,1.36-1.99,2.03-4.6,4.6-9.51,8.84-14.68,12.69-22.27,16.6-49.51,26.09-78.92,26.09-9.15,0-18.08-.92-26.73-2.69-.62-.12-1.23-.25-1.85-.39-.59-.13-1.17-.26-1.76-.39-2.57-.6-5.12-1.28-7.64-2.03-23.37-6.97-44.15-20.3-60.52-38.43-1.85-2.04-3.63-4.14-5.35-6.3-6.75-8.44-12.61-17.77-17.42-27.87-6.33-13.29-10.85-27.9-13.19-43.53-.08-.56-.16-1.11-.24-1.67-.16-1.16-.31-2.32-.45-3.49-.33-2.78-.59-5.59-.78-8.44-.25-3.77-.38-7.59-.38-11.45,0-18.63,2.96-38.86,8.4-59.08,2.03-7.55,4.4-15.1,7.09-22.56,4.82-13.38,10.66-26.47,17.37-38.82.33-.61.66-1.23,1-1.83,1.25-2.25,2.52-4.48,3.83-6.67,1.74-2.93,3.53-5.8,5.37-8.62,9.27-14.22,19.77-26.94,31.2-37.23,1.9-1.71,3.83-3.35,5.78-4.93.9-.72,1.8-1.43,2.71-2.12.54-.42,1.09-.83,1.64-1.23,3.98-2.95,8.06-5.59,12.22-7.9,3.46-1.92,6.97-3.61,10.54-5.05,9.4-3.8,19.17-5.88,29.18-5.88,1.55,0,3.09.05,4.62.15,3.28.21,6.54.64,9.75,1.28,3.99.79,7.92,1.9,11.8,3.3,7.22,2.61,14.24,6.24,21,10.75,7.8,5.19,15.27,11.53,22.32,18.79,2.17,2.23,4.3,4.54,6.38,6.94,2.8,3.2,5.52,6.54,8.15,10.01,2.23,2.92,4.39,5.92,6.5,9,2.45,3.58,4.82,7.27,7.11,11.06,1.32,2.18,2.62,4.4,3.88,6.65.71,1.27,1.42,2.54,2.11,3.82.51.95,1.03,1.91,1.53,2.86.31.58.61,1.16.91,1.74.3.58.6,1.16.9,1.75.3.58.59,1.17.88,1.75.29.59.58,1.18.87,1.77.29.59.57,1.18.86,1.77.28.59.57,1.19.85,1.78,1.41,2.97,2.76,5.98,4.06,9.01.52,1.21,1.04,2.43,1.54,3.65.02.05.04.1.06.14,1.24,3,2.44,6.03,3.57,9.07.7,1.85,1.37,3.72,2.02,5.58.44,1.24.86,2.49,1.28,3.73.21.62.42,1.24.62,1.87.16.48.32.97.48,1.46.26.82.52,1.63.77,2.44.42,1.35.83,2.7,1.23,4.05.39,1.35.78,2.7,1.16,4.05.66,2.35,1.28,4.69,1.87,7.02.14.55.27,1.1.41,1.66,0,.04.02.08.03.12.12.48.23.96.34,1.44.03.11.05.21.08.32,0,.02,0,.05.01.07.32,1.33.62,2.66.91,3.99.1.42.19.85.28,1.27.11.5.21,1,.32,1.5.11.52.21,1.03.32,1.54.07.33.14.67.2,1.01.02.08.03.17.05.26.01.04.02.07.02.11.1.5.2,1,.29,1.49.38,2,.74,3.99,1.06,5.98.16.95.31,1.9.45,2.85.31,2.01.59,4.02.84,6.01,0,.05,0,.09.01.14.02.11.03.21.04.32.08.63.15,1.25.22,1.87.06.57.13,1.13.19,1.69.08.77.16,1.53.23,2.29.06.6.12,1.21.17,1.81.06.6.1,1.19.15,1.79,0,.07,0,.15.01.23.05.61.09,1.21.13,1.81.04.53.07,1.06.11,1.59.05.77.09,1.53.12,2.29.03.51.05,1.02.07,1.52,0,.12.01.23.01.34.02.51.04,1.01.06,1.51,0,.3.02.6.03.9.02.77.04,1.52.05,2.27.02.9.02,1.8.02,2.69Z"/><path class="cls-30" d="M262.95,257.74c-1.17,3.2-2.44,6.33-3.81,9.4-.05,0-.1,0-.14,0-2.27-.19-4.54-.57-6.77-1.16-.25-.06-.5-.13-.74-.2-2.23-.62-4.43-1.43-6.53-2.44-.61-.3-1.23-.61-1.84-.94-2.08-.71-4-1.99-5.57-3.55-1.41-.48-2.68-.83-3.95-1.18-.2.02-.42-.05-.6-.17-.17-.02-.32-.04-.48-.07-.1-.02-.18-.06-.23-.13-.42-.12-.84-.24-1.26-.36-2.58-.74-5.16-1.52-7.72-2.35.12.09.23.18.34.26,1.46,1.14,2.78,2.44,3.97,3.83,2.2,2.58,4.35,5.75,4.47,9.1.05,1.38-.22,2.87-1.23,3.86-.97.93-2.47,1.26-3.85.86-3.39-.99-5.02-4.89-6.15-7.76-1.47-3.72-2.72-7.88-2.47-11.79-.64-.23-1.29-.45-1.92-.68-2.12-.76-4.23-1.54-6.33-2.35-3.31-1.28-6.59-2.62-9.84-4.02,1.8,1.59,3.52,3.26,4.96,5.16.57.74,1.1,1.55,1.57,2.4,1.05,1.91,1.74,4.02,1.6,6.08-.09,1.34-.62,2.8-1.78,3.56-1.24.82-2.85.55-4.1-.34-1-.71-1.84-1.67-2.54-2.76-1.18-1.83-1.96-4-2.45-5.86-.83-3.13-1.3-6.66-.97-9.87-2.94-1.33-5.86-2.71-8.76-4.14-1.86-.92-3.7-1.86-5.53-2.83,1.6,1.75,2.88,3.78,3.74,5.93,1.04,2.57,2.38,7.65-1.16,8.77-3.46,1.09-5.67-3.28-6.73-5.75-.88-2.06-1.56-4.16-2.08-6.3-.49-2.03-1.04-4.37-.71-6.41-.95-.51-1.91-1.05-2.63-1.8-.4-.43-.16-1.2.51-1.04,1.22.3,2.25,1.01,3.35,1.62.36,0,.59.01.83.03,3.34-2.49,6.68-4.99,10.02-7.48,2.65-1.97,6.31-5.52,10.11-3.2,3.6,2.19,1.2,6.4-.85,8.41-2.27,2.22-5.38,3.41-8.61,3.89-1.92.29-3.86.32-5.83.12-1.09-.11-2.26-.26-3.37-.54.35.25.74.46,1.13.67,2.24,1.22,4.5,2.4,6.78,3.56,3.75,1.89,7.54,3.7,11.37,5.41,1.55-3.44,3.78-6.56,6.58-9.12,2.29-2.09,5.62-4.9,9.22-4.09,1.53.35,2.75,1.53,3.07,3.02.31,1.45-.2,2.91-.94,4.1-1.64,2.64-4.26,4.74-7.12,6.09-1.67.79-3.44,1.35-5.31,1.64-.45.07-.9.13-1.38.16,2.98,1.27,5.98,2.49,9,3.64,2.36.91,4.74,1.79,7.13,2.63.01-.13.06-.26.14-.38.63-.84,1.43-1.57,2.13-2.35.71-.79,1.4-1.6,2.1-2.38,1.33-1.49,2.72-2.94,4.34-4.14,2.66-1.97,6.09-3.31,9.63-2.76,1.67.26,3.49,1.02,4.1,2.7.47,1.31-.06,2.63-.79,3.66-.92,1.29-2.25,2.15-3.62,2.93-1.58.9-3.25,1.67-4.99,2.27-3.13,1.09-6.48,1.68-9.86,1.54,2.65.9,5.32,1.76,7.99,2.58,1.19.37,2.38.72,3.58,1.07,1.54-1.97,3.76-3.33,6.25-4.04.58-.17,1.05.43.85.93-.67,1.76-2.1,3.26-3.86,4.05.45.13.9.26,1.35.39,5.85-1.77,12.54-3.61,18.72-2.35,2.25.46,4.44,1.33,6.49,2.77Z"/><path class="cls-26" d="M140.11,241.71c-.9.63-1.69,1.42-2.54,2.11-.85.7-1.72,1.39-2.57,2.09-1.61,1.32-3.18,2.7-4.5,4.29-2.18,2.61-3.75,5.94-3.39,9.32.17,1.59.84,3.31,2.54,3.85,1.31.41,2.71-.14,3.8-.87,1.37-.92,2.34-2.22,3.22-3.56,1.01-1.54,1.9-3.17,2.62-4.85,1.31-3.03,2.11-6.26,2.16-9.5.77,2.52,1.5,5.04,2.18,7.58.3,1.13.6,2.26.89,3.4-2.11,1.54-3.64,3.7-4.51,6.11-.2.56.38.99.91.79,1.84-.7,3.47-2.11,4.38-3.83.11.43.21.85.32,1.28-3,7.89-6.25,17.36-.69,24.63,1.06,1.38,2.51,2.79,4.32,3.15,1.81.36,3.42-.61,4.27-2.16.93-1.71,1-3.66.94-5.53-.07-2.18-.33-4.34-.8-6.46-.52-2.37-1.28-4.69-2.3-6.89-.27-.58-.55-1.16-.85-1.73-.61-1.98-1.81-3.78-3.33-5.23-.41-1.33-.69-2.54-.98-3.75.03-.19-.02-.4-.14-.57,0-.16-.02-.31-.04-.46-.01-.1-.06-.17-.12-.21-.1-.4-.2-.8-.29-1.2-.61-2.46-1.26-4.9-1.96-7.34.08.11.17.21.25.32,1.09,1.36,2.34,2.59,3.7,3.69,2.52,2.04,5.66,3.99,9.09,4.01,1.42,0,2.96-.3,4.03-1.3,1.01-.95,1.44-2.41,1.11-3.72-.82-3.22-4.74-4.67-7.61-5.66-3.73-1.29-7.94-2.37-11.96-2.01-.2-.61-.39-1.22-.59-1.82-1.68-5.17-3.55-10.28-5.6-15.31,1.53,1.68,3.15,3.28,5.01,4.6,2.38,1.7,5.46,3.08,8.52,2.79,1.39-.13,2.91-.68,3.76-1.82.91-1.21.73-2.75-.11-3.92-1.82-2.54-5.56-3.86-8.56-4.52-3.17-.7-6.76-1.05-10.08-.63-1.19-2.78-2.44-5.54-3.75-8.27-.84-1.75-1.7-3.49-2.58-5.22,1.71,1.48,3.72,2.65,5.87,3.41,2.59.92,7.72,2.04,9.07-1.38,1.32-3.35-3.04-5.34-5.52-6.28-2.06-.78-4.18-1.37-6.35-1.8-2.05-.41-4.43-.87-6.53-.49-.47-.9-.97-1.8-1.7-2.46-.41-.38-1.22-.12-1.1.51.23,1.16.9,2.13,1.47,3.17-.02.34-.02.56-.02.79-2.75,3.28-5.5,6.56-8.26,9.83-2.18,2.6-6.03,6.21-3.87,9.79,2.04,3.38,6.5.96,8.68-1.07,2.41-2.25,3.81-5.26,4.5-8.37.41-1.85.55-3.72.46-5.59-.05-1.04-.13-2.16-.36-3.22.23.33.43.69.62,1.06,1.12,2.11,2.21,4.25,3.26,6.39,1.73,3.53,3.36,7.11,4.9,10.73-3.62,1.59-6.95,3.82-9.74,6.58-2.28,2.26-5.36,5.54-4.74,8.96.27,1.46,1.41,2.59,2.92,2.85,1.47.25,3.01-.29,4.26-1.03,2.81-1.65,5.11-4.23,6.66-7.01.91-1.63,1.59-3.34,1.99-5.14.1-.43.18-.87.25-1.33,2.02,5.02,3.85,10.12,5.5,15.27-.14.02-.27.06-.39.15Z"/><path class="cls-22" d="M150.68,1.42c-.78.68-1.61,1.3-2.5,1.82-1.26.74-2.8,1.28-4.26,1.03-1.51-.26-2.65-1.39-2.92-2.85-.08-.43-.1-.85-.07-1.27,3.28.21,6.54.64,9.75,1.28Z"/><path class="cls-23" d="M183.48,15.48c-.19.32-.42.63-.7.89-1.07,1-2.61,1.3-4.03,1.29-3.43-.01-6.57-1.97-9.09-4.01-1.36-1.1-2.61-2.33-3.7-3.69-.08-.11-.17-.21-.25-.32.7,2.44,1.35,4.88,1.96,7.33.1.4.19.8.29,1.2.06.04.11.11.12.21.02.15.03.3.05.46.12.17.17.38.14.57.29,1.21.57,2.41.98,3.75,1.52,1.45,2.71,3.25,3.33,5.23.3.57.58,1.15.85,1.73,1.02,2.2,1.77,4.53,2.3,6.9.47,2.12.73,4.28.8,6.46.06,1.87,0,3.82-.94,5.53-.84,1.55-2.46,2.52-4.27,2.16-1.81-.36-3.26-1.77-4.32-3.15-5.56-7.27-2.31-16.74.7-24.63-.11-.43-.21-.85-.32-1.28-.91,1.72-2.54,3.13-4.38,3.83-.53.2-1.11-.23-.9-.79.87-2.41,2.39-4.57,4.51-6.11-.29-1.13-.59-2.26-.9-3.4-.68-2.54-1.41-5.07-2.18-7.59-.06,3.25-.85,6.48-2.16,9.51-.73,1.68-1.61,3.31-2.62,4.85-.89,1.34-1.85,2.64-3.22,3.56-1.09.74-2.49,1.29-3.8.87-1.7-.53-2.37-2.25-2.54-3.85-.36-3.38,1.21-6.71,3.39-9.32,1.33-1.59,2.9-2.97,4.5-4.28.85-.7,1.72-1.39,2.58-2.09.85-.7,1.64-1.49,2.54-2.12.12-.09.25-.13.39-.15-.03-.11-.07-.21-.1-.32,7.22,2.61,14.24,6.24,21,10.75Z"/><path class="cls-24" d="M149.91,82.3c.58-.94.98-1.98,1.48-2.96.5-.99,1.02-1.96,1.52-2.94.95-1.85,1.83-3.74,2.41-5.73.95-3.26,1.06-6.94-.63-9.89-.79-1.39-2.09-2.7-3.86-2.51-1.37.15-2.43,1.21-3.13,2.32-.89,1.39-1.25,2.97-1.52,4.55-.31,1.82-.47,3.66-.46,5.5.01,3.3.57,6.58,1.83,9.57-1.71-2-3.39-4.02-5.03-6.08-.73-.91-1.46-1.83-2.18-2.76,1.32-2.25,1.85-4.85,1.68-7.41-.04-.59-.74-.76-1.15-.36-1.41,1.38-2.34,3.32-2.48,5.26-.27-.35-.54-.7-.81-1.04-.41-8.43-1.22-18.41-9.23-22.84-1.52-.84-3.42-1.55-5.22-1.16-1.8.4-2.89,1.93-3.04,3.69-.17,1.94.55,3.75,1.35,5.44.93,1.97,2.04,3.85,3.32,5.6,1.43,1.96,3.05,3.79,4.87,5.4.48.43.97.84,1.48,1.25,1.35,1.57,3.17,2.74,5.14,3.46.91,1.06,1.65,2.05,2.4,3.04.05.19.18.36.36.47.07.14.14.27.22.4.05.08.12.13.19.15.25.33.5.65.75.98,1.54,2.01,3.12,3.99,4.73,5.94-.12-.06-.24-.13-.36-.19-1.54-.81-3.18-1.44-4.87-1.9-3.12-.86-6.78-1.39-9.93-.03-1.31.56-2.6,1.46-3.17,2.8-.55,1.28-.36,2.79.47,3.85,2.04,2.62,6.21,2.38,9.24,2.14,3.93-.31,8.22-1.01,11.76-2.95.43.48.85.96,1.27,1.43,3.61,4.07,7.37,8,11.27,11.79-2.07-.93-4.2-1.75-6.43-2.21-2.86-.6-6.23-.63-8.92.85-1.22.67-2.39,1.79-2.72,3.17-.35,1.48.44,2.81,1.67,3.55,2.68,1.59,6.64,1.31,9.66.72,3.18-.63,6.62-1.75,9.48-3.46,2.21,2.07,4.46,4.1,6.75,6.08,1.47,1.27,2.96,2.52,4.46,3.75-2.16-.67-4.47-.94-6.75-.77-2.74.2-7.89,1.22-7.76,4.9.13,3.6,4.92,3.68,7.57,3.54,2.2-.11,4.38-.42,6.54-.89,2.04-.45,4.41-.98,6.18-2.17.79.64,1.6,1.26,2.54,1.58.53.18,1.17-.38.8-.91-.68-.97-1.68-1.59-2.62-2.31-.12-.32-.2-.53-.29-.73,1.21-4.11,2.42-8.21,3.63-12.32.96-3.25,3.04-8.11-.37-10.53-3.22-2.28-6.34,1.73-7.53,4.45-1.31,3.03-1.38,6.35-.77,9.47.37,1.86.98,3.63,1.82,5.31.46.94.98,1.92,1.62,2.8-.34-.21-.67-.46-1-.72-1.87-1.49-3.72-3.01-5.55-4.55-3-2.55-5.93-5.17-8.79-7.88,2.68-2.91,4.84-6.28,6.29-9.93,1.18-2.98,2.7-7.22.75-10.11-.83-1.23-2.33-1.81-3.82-1.44-1.45.36-2.64,1.47-3.5,2.65-1.91,2.64-2.99,5.92-3.3,9.09-.18,1.86-.12,3.69.24,5.51.08.43.18.87.31,1.31-3.86-3.79-7.58-7.73-11.16-11.79.12-.07.22-.17.3-.29Z"/><path class="cls-25" d="M109.14,161.74c1.06.49,2.21.79,3.31,1.19,1.1.4,2.2.83,3.3,1.23,2.07.76,4.18,1.46,6.36,1.82,3.57.59,7.47.24,10.37-1.9,1.37-1.01,2.59-2.54,2.16-4.38-.33-1.42-1.58-2.4-2.84-3.01-1.58-.76-3.29-.95-5-1.03-1.96-.1-3.93-.03-5.86.2-3.48.43-6.88,1.43-9.88,3.12,1.9-2.05,3.83-4.07,5.79-6.06.87-.88,5.71-5.65,6.04-5.98,8.85-1.48,19.29-3.59,22.97-12.57.7-1.7,1.21-3.79.57-5.63-.64-1.85-2.4-2.8-4.28-2.74-2.07.06-3.9,1.05-5.58,2.1-1.96,1.23-3.81,2.62-5.5,4.19-1.89,1.75-3.62,3.68-5.09,5.8-.39.56-.77,1.13-1.13,1.71-1.48,1.62-2.5,3.68-3.01,5.84-.02.07-.02.14-.03.2-.98.89-1.94,1.79-2.89,2.7-.2.07-.36.24-.45.43-.14.09-.27.19-.4.29-.08.06-.12.14-.13.22-.32.3-.63.61-.94.91-1.93,1.88-3.82,3.78-5.68,5.72.05-.13.11-.27.16-.4.67-1.72,1.12-3.52,1.4-5.36.51-3.39.62-7.31-1.21-10.45-.76-1.3-1.86-2.55-3.36-2.99-1.42-.42-2.99-.03-4.01.98-2.51,2.47-1.74,6.83-1.11,9.99.82,4.1,2.09,8.52,4.59,12.01-.45.51-.91,1.01-1.36,1.51-3.84,4.3-7.53,8.75-11.04,13.33.72-2.29,1.32-4.63,1.53-7.05.28-3.08-.11-6.64-2.02-9.28-.86-1.2-2.19-2.29-3.69-2.46-1.61-.18-2.91.81-3.54,2.2-1.35,3.02-.55,7.15.45,10.25,1.06,3.27,2.68,6.74,4.84,9.54-1.91,2.58-3.77,5.2-5.58,7.86-1.16,1.7-2.29,3.42-3.4,5.16.44-2.36.43-4.82-.03-7.19-.55-2.85-2.27-8.15-6.15-7.55-3.79.59-3.27,5.64-2.79,8.4.39,2.3.99,4.56,1.76,6.77.73,2.09,1.58,4.51,3.07,6.23-.57.91-1.13,1.85-1.35,2.87-.12.58.55,1.18,1.06.73.94-.84,1.47-1.97,2.11-3.04.32-.17.53-.28.74-.4,4.49.76,8.98,1.52,13.46,2.27,3.56.6,8.95,2.18,11.07-1.71,2.01-3.67-2.62-6.46-5.65-7.36-3.36-1-6.87-.66-10.1.38-1.91.62-3.71,1.49-5.38,2.58-.93.61-1.91,1.28-2.76,2.05.17-.39.4-.76.64-1.14,1.34-2.16,2.71-4.29,4.12-6.41,2.31-3.47,4.72-6.89,7.22-10.23,3.41,2.46,7.24,4.31,11.28,5.37,3.3.87,7.96,1.93,10.77-.47,1.2-1.03,1.62-2.67,1.05-4.19-.56-1.48-1.88-2.59-3.24-3.35-3.02-1.68-6.63-2.4-10.01-2.33-1.98.04-3.91.34-5.79.94-.44.14-.9.3-1.35.49,3.52-4.54,7.21-8.94,11.05-13.21.09.11.2.21.35.28Z"/><path class="cls-27" d="M260.66,134.83c-.41-1.45-.64-3.46-.3-5.15.26.81.52,1.62.77,2.44.42,1.35.83,2.7,1.23,4.05.39,1.35.78,2.7,1.16,4.05-1.28-1.58-2.3-3.37-2.86-5.39Z"/><path class="cls-28" d="M263.45,148.95c-3.07-.1-6.13-.26-9.19-.49-1.18,3.24-3.19,6.37-5.33,8.94-.9,1.09-1.99,2.25-3.21,3.23-1.51,1.23-3.22,2.21-4.98,2.47-1.47.21-2.96-.35-3.65-1.76-.64-1.32-.43-2.98.11-4.31,1.18-2.95,3.9-5.11,6.57-6.49.84-.43,1.69-.8,2.56-1.13,1.32-.5,2.67-.91,4.03-1.27-1.33-.12-2.66-.26-3.99-.4-4.25-.46-8.49-1.04-12.72-1.74-.64-.11-1.29-.22-1.95-.33-1.57,3.86-4.54,7.21-7.49,10.02-2.27,2.16-5.45,5.07-8.79,4.29-1.36-.32-2.5-1.4-2.89-2.78-.42-1.46.03-3.02.71-4.31,1.63-3.14,4.91-5.08,7.97-6.43,1.66-.72,3.37-1.29,5.14-1.64.13-.02.27-.06.41-.08-2.57-.52-5.12-1.08-7.66-1.69-.41-.1-.83-.2-1.24-.3-.07.04-.16.05-.25,0-.15-.05-.3-.11-.45-.18-.21.03-.43-.02-.59-.14-1.24-.31-2.49-.62-3.73-.97-.06.03-.12.06-.18.08-2.05.71-4.26.94-6.37.57-.67,0-1.33-.01-1.99-.05-2.5-.11-4.99-.52-7.41-1.17-2.17-.58-4.27-1.37-6.3-2.34-1.74-.84-3.5-1.82-4.63-3.49-1.03-1.51-1.16-3.45.03-4.95,1.18-1.49,3.17-2.15,4.93-2.46,9.3-1.65,16.46,5.85,22.28,12.35.45.1,6.88,1.6,8.06,1.86,2.65.58,5.32,1.11,7.99,1.61-2.95-1.6-5.54-3.86-7.7-6.5-1.2-1.47-2.28-3.05-3.22-4.71-.82-1.45-1.55-2.95-1.75-4.65-.16-1.35,0-2.89.99-3.9,1.29-1.3,3.19-1.1,4.73-.5,3.28,1.27,5.59,4.3,6.95,7.54.83,1.97,1.36,4.07,1.81,6.17.24,1.12.46,2.24.7,3.35.24,1.11.59,2.21.74,3.34.02.15,0,.3-.05.43,4.63.79,9.28,1.44,13.94,1.94.89.1,1.78.19,2.67.28-.38-.27-.75-.57-1.1-.86-.54-.45-1.06-.94-1.54-1.45-.83-.86-1.56-1.8-2.24-2.82-1.81-2.75-3.09-6.09-3.29-9.45-.08-1.5.14-3.17,1.07-4.4.93-1.23,2.46-1.74,3.89-1.35.04,0,.07.02.11.03,3.44,1.06,4.99,5.44,5.99,8.61,1.22,3.87,1.69,7.99,1.45,12.07,3.21.25,6.43.43,9.65.54.77.03,1.54.05,2.31.07.14.55.27,1.1.41,1.66,0,.04.02.08.03.12-.73-.02-1.47-.04-2.19-.06-.06,0-.12,0-.18,0Z"/><path class="cls-29" d="M268.34,160.4c-.73.61-1.58,1.25-2.48,1.74-1.76.96-3.68,1.32-5.12-.32-2.51-2.88.95-7.05,3.01-8.98.14-.13.28-.26.42-.38.66-.59,1.36-1.13,2.1-1.61.32,1.33.62,2.66.91,3.99.1.42.19.85.28,1.27.11.5.21,1,.32,1.5.11.52.21,1.03.32,1.54.07.33.14.67.2,1.01.02.09.03.17.05.25Z"/><path class="cls-10" d="M65.51,284.82c-3.85.58-5.53-4.68-6.07-7.51-.45-2.36-.45-4.8,0-7.13-1.11,1.72-2.24,3.42-3.4,5.11-1.8,2.63-3.65,5.22-5.56,7.78,1.09,1.42,2.05,3.02,2.85,4.69.77,1.58,1.41,3.21,1.92,4.79.99,3.08,1.76,7.17.41,10.16-.62,1.38-1.92,2.36-3.51,2.17-1.48-.18-2.8-1.27-3.65-2.45-1.88-2.63-2.26-6.15-1.97-9.21.22-2.39.82-4.71,1.55-6.98-3.5,4.53-7.17,8.92-11,13.18-.08.09-.17.19-.26.28-.37.4-.73.8-1.09,1.21.82,1.16,1.51,2.42,2.09,3.74-1.85-2.04-3.63-4.14-5.35-6.3.65.22,1.31.44,1.93.73.14.07.26.17.35.28.29-.32.58-.64.85-.96,3.52-3.93,6.91-7.96,10.16-12.11-.45.18-.9.34-1.34.48-1.86.59-3.78.88-5.74.91-3.35.06-6.93-.67-9.92-2.35-1.34-.75-2.65-1.86-3.2-3.33-.56-1.51-.13-3.15,1.05-4.16.24-.2.5-.39.77-.54,2.82-1.65,6.93-.69,9.92.11,3.99,1.07,7.79,2.92,11.16,5.37,2.49-3.31,4.89-6.68,7.2-10.12,1.4-2.09,2.77-4.2,4.1-6.34.23-.37.46-.74.64-1.13-.84.77-1.82,1.43-2.74,2.03-1.66,1.07-3.44,1.93-5.34,2.54-3.2,1.02-6.69,1.35-10.02.34-3-.9-7.58-3.68-5.58-7.32,2.12-3.85,7.46-2.27,10.99-1.66,4.45.77,8.89,1.54,13.34,2.3.2-.12.41-.23.73-.4.64-1.06,1.17-2.18,2.11-3.01.51-.45,1.17.15,1.05.72-.22,1.02-.78,1.95-1.35,2.84,1.46,1.71,2.3,4.12,3.02,6.19.76,2.19,1.34,4.44,1.72,6.72.46,2.75.96,7.76-2.8,8.32Z"/><path class="cls-11" d="M1.98,221.5c-.27.11-.55.2-.82.3-.33-2.78-.59-5.59-.78-8.44,2-2.3,4.67-6.2,8.13-4.8,3.27,1.32,1.74,5.59.25,7.8-1.65,2.44-4.12,4.1-6.77,5.14Z"/><path class="cls-8" d="M70,236.88c-1.38,1.07-3.09,1.4-4.75,1.61-1.93.25-3.87.32-5.81.2-2.16-.13-4.32-.47-6.4-1.06-.55-.15-1.1-.32-1.65-.51-1.83-.26-3.58-1.06-5.08-2.2-.05-.04-.09-.08-.13-.12-1.11-.06-2.22-.13-3.32-.22-.16.06-.36.03-.52-.05-.14.01-.27.02-.41.03-.08,0-.15-.03-.2-.07-.37-.03-.73-.06-1.1-.09-.36-.03-.71-.06-1.07-.1-1.9-.17-3.79-.37-5.68-.6.11.06.21.12.32.18,1.35.77,2.61,1.69,3.77,2.74,2.14,1.93,4.31,4.43,4.79,7.45.2,1.25.15,2.65-.59,3.73-.71,1.03-1.93,1.61-3.13,1.5-2.95-.27-4.77-3.52-6.05-5.91-1.65-3.11-3.18-6.66-3.41-10.26-.57-.09-1.13-.18-1.69-.26-4.8-.75-9.57-1.68-14.29-2.79,1.69,1.11,3.33,2.32,4.75,3.77,1.83,1.86,3.47,4.38,3.63,7.12.08,1.24-.2,2.66-1.09,3.57-.95.98-2.33,1.03-3.47.45-2.49-1.25-4.18-4.36-5.17-6.91-1.05-2.7-1.85-5.81-1.93-8.8-2.62-.66-5.23-1.37-7.82-2.14-.21-.06-.41-.12-.62-.19-.08-.56-.16-1.11-.24-1.67,3.27,1,6.56,1.91,9.88,2.73.91-3.41,2.42-6.67,4.48-9.51,1.68-2.32,4.15-5.5,7.26-5.43,1.33.03,2.48.88,2.92,2.17.43,1.26.16,2.69-.32,3.9-1.07,2.7-3.03,5.1-5.27,6.86-1.31,1.03-2.73,1.86-4.26,2.47-.37.15-.75.28-1.14.4,4.71,1.08,9.46,1.98,14.24,2.71,0-.13.02-.25.08-.37.43-.88,1.02-1.69,1.52-2.54.51-.85.99-1.71,1.49-2.56.07-.12.14-.24.21-.35.23-.38.46-.76.7-1.14.68-1.08,1.42-2.13,2.26-3.09,2-2.29,4.73-4.14,7.77-4.3,1.42-.07,3.04.27,3.74,1.7.54,1.1.25,2.4-.25,3.47-.63,1.34-1.64,2.37-2.7,3.34-1.22,1.11-2.54,2.12-3.92,3-.54.34-1.1.66-1.66.96-.71.39-1.45.73-2.2,1.04-1.37.56-2.79.98-4.24,1.24,1.97.27,3.95.52,5.93.74.35.04.71.08,1.06.12,1.04.11,6.73.64,7.12.67,6.55-3.75,14.47-7.95,21.66-4.07,1.36.74,2.81,1.82,3.37,3.36.57,1.54-.07,3.1-1.32,4.06Z"/><path class="cls-9" d="M88.58,114.62c.09-1.05.37-2.08.55-3.12.18-1.04.34-2.09.51-3.13.33-1.96.73-3.93,1.42-5.79,1.13-3.06,3.15-5.96,6.13-7.27,1.4-.62,3.15-.89,4.4.26.97.89,1.17,2.31,1.08,3.57-.11,1.58-.73,3-1.43,4.38-.8,1.58-1.73,3.09-2.78,4.5-1.89,2.54-4.19,4.74-6.86,6.34,2.45-.57,4.9-1.17,7.33-1.82,1.08-.29,6.98-1.94,7.38-2.06,5.12-6.27,11.44-13.5,20.11-12.36,1.64.22,3.51.75,4.67,2.07,1.16,1.33,1.12,3.13.23,4.57-.98,1.59-2.56,2.58-4.14,3.43-1.84.99-3.76,1.81-5.74,2.43-2.21.7-4.5,1.18-6.81,1.39-.61.06-1.23.1-1.84.12-1.93.44-3.99.31-5.92-.26-.06-.02-.12-.04-.17-.07-1.13.37-2.27.71-3.41,1.05-.14.12-.34.17-.54.16-.14.07-.27.13-.4.18-.09.04-.17.03-.23,0-.38.11-.76.22-1.13.33-2.33.67-4.67,1.3-7.02,1.88.13.02.26.04.38.06,1.65.25,3.26.7,4.82,1.3,2.89,1.12,6,2.78,7.64,5.62.68,1.17,1.16,2.6.84,3.96-.31,1.3-1.32,2.35-2.56,2.7-3.06.86-6.12-1.7-8.32-3.6-2.84-2.48-5.73-5.45-7.35-8.96-.6.13-1.2.26-1.79.38-5.09,1.08-10.22,1.98-15.37,2.68,2.12.46,4.22,1.04,6.2,1.95,2.54,1.16,5.15,3.06,6.36,5.73.55,1.21.81,2.74.28,3.99-.57,1.34-1.94,1.92-3.3,1.78-2.97-.3-5.85-2.77-7.82-4.94-2.09-2.29-4.08-5.11-5.3-8.06-2.88.34-5.76.63-8.65.85-1.85.14-3.71.26-5.56.36,2.04.71,3.96,1.82,5.62,3.24,1.99,1.71,5.36,5.43,3.16,8.19-2.15,2.7-5.87.04-7.83-1.57-1.62-1.34-3.13-2.81-4.51-4.4-1.31-1.51-2.83-3.26-3.51-5.19-.97.04-1.95.06-2.85-.23-.51-.16-.68-.96-.09-1.15,1.08-.36,2.2-.27,3.33-.29.27-.18.46-.29.64-.4,1.41-3.85,2.83-7.71,4.24-11.56,1.12-3.05,2.29-7.98,6.29-7.9,3.78.07,3.88,4.94,3.24,7.71-.72,3.08-2.56,5.68-4.81,7.74-1.34,1.22-2.82,2.24-4.42,3.06-.89.46-1.85.92-2.84,1.24.38.04.78.03,1.18.01,2.29-.08,4.57-.2,6.85-.36,3.75-.26,7.5-.62,11.24-1.07-.4-3.77-.14-7.6.84-11.23.79-2.97,2.05-7.1,5.19-8.22,1.34-.48,2.82-.07,3.75,1.06.91,1.1,1.19,2.63,1.17,4.03-.04,3.12-1.09,6.27-2.65,8.88-.92,1.54-2.02,2.91-3.32,4.11-.31.28-.64.57-.98.84,5.13-.73,10.23-1.65,15.29-2.75-.05-.12-.08-.25-.06-.4Z"/><path class="cls-6" d="M83.73,29.36c.07,1.24-.2,2.66-1.09,3.57-.95.97-2.33,1.03-3.47.45-2.29-1.15-3.9-3.87-4.91-6.28,1.9-1.71,3.83-3.35,5.78-4.93.02.02.04.04.07.06,1.82,1.86,3.47,4.38,3.63,7.12Z"/><path class="cls-7" d="M133.24,22.96c-.17.9-.7,1.72-1.47,2.31-1.38,1.06-3.09,1.4-4.76,1.61-1.93.25-3.88.32-5.81.2-2.16-.13-4.32-.47-6.41-1.06-.55-.16-1.1-.32-1.65-.51-1.83-.26-3.59-1.06-5.08-2.2-.05-.03-.09-.07-.13-.12-1.11-.06-2.22-.13-3.32-.22-.12.05-.26.04-.39,0-.05,0-.09-.03-.13-.05-.14.01-.27.02-.41.03-.09,0-.15-.03-.2-.08-.37-.03-.73-.06-1.1-.09-2.25-.19-4.5-.42-6.75-.7.11.06.21.12.32.18,1.33.75,2.57,1.67,3.72,2.7.02.02.04.03.06.05,1.81,1.64,3.64,3.67,4.45,6.1.14.44.26.89.33,1.35.2,1.25.14,2.65-.59,3.73-.7,1.03-1.93,1.61-3.13,1.5-1.59-.14-2.84-1.15-3.86-2.42-.89-1.09-1.6-2.39-2.19-3.5-.55-1.03-1.08-2.1-1.55-3.22-.97-2.25-1.7-4.64-1.86-7.05-.57-.09-1.13-.17-1.69-.26-2.31-.36-4.6-.77-6.89-1.21.54-.42,1.09-.83,1.64-1.23,2.25.42,4.51.81,6.77,1.15,0-.12.02-.25.07-.37.43-.89,1.02-1.69,1.52-2.54.5-.85.99-1.71,1.49-2.56.73-1.23,1.49-2.45,2.36-3.59,3.46-1.92,6.97-3.61,10.54-5.05.75.24,1.4.7,1.78,1.47.54,1.1.26,2.4-.25,3.47-.62,1.34-1.64,2.37-2.7,3.34-1.22,1.11-2.54,2.12-3.92,2.99-2.5,1.58-5.24,2.74-8.1,3.24,2.33.32,4.66.61,7,.86.86.09,4.96.47,6.53.61.31.03.52.05.59.06.27-.15.54-.31.82-.46,6.39-3.62,13.95-7.33,20.84-3.6,1.36.74,2.81,1.82,3.38,3.36.21.59.26,1.19.15,1.75Z"/><path class="cls-4" d="M265.83,187.78c-1.51-2.86-2.32-6.26-1.33-9.33.45-1.42,1.38-2.85,2.99-3.07.03,0,.07,0,.11-.01,1.29-.12,2.48.66,3.35,1.56.02.02.04.04.06.06.02.11.03.21.04.32.08.63.15,1.25.22,1.87.06.57.13,1.13.19,1.69.08.77.16,1.53.23,2.29.06.6.12,1.21.17,1.81.06.6.1,1.19.15,1.79,0,.07,0,.15.01.23.05.61.09,1.21.13,1.81.04.53.07,1.06.11,1.59.05.77.09,1.53.12,2.29.03.51.05,1.02.07,1.52,0,.12.01.23.01.34.02.51.04,1.01.06,1.51,0,.3.02.6.03.9-.49-.6-.93-1.24-1.41-1.85-.65-.82-1.32-1.62-1.98-2.44-.28-.34-.55-.69-.82-1.04-.93-1.22-1.81-2.48-2.52-3.83Z"/><path class="cls-5" d="M267.51,210.59c-.51.78-1.02,1.55-1.54,2.32.46-.33.93-.66,1.4-.98,1.31-.88,2.68-1.68,4.14-2.32.32-.14.64-.27.97-.39-.12,2.7-.29,5.38-.53,8.03-1.7-.06-3.46-.25-5.16-.6-.97-.2-1.93-.46-2.85-.78-1.64,2.36-3.34,4.67-5.08,6.96-1.12,1.46-2.25,2.91-3.41,4.35,1.87-1.04,3.96-1.73,6.1-2.01,1.04-.14,2.46-.23,3.84-.06,2.04.25,3.95,1.07,4.31,3.13.55,3.24-3.49,4.28-6.01,4.7-.11.02-.22.04-.32.05-2.06.32-4.14.45-6.24.43-1.98-.03-4.28-.06-6.15-.83-.61.74-1.24,1.48-2.06,1.96-.45.26-1.16-.13-.91-.7.45-1.03,1.25-1.8,1.98-2.65.05-.32.09-.53.13-.74-1.92-3.59-3.83-7.18-5.75-10.77-1.52-2.84-4.38-6.96-1.69-9.87,2.55-2.74,6.22.39,7.84,2.7,1.8,2.57,2.51,5.64,2.54,8.67.02,1.8-.21,3.56-.66,5.29-.25.96-.54,1.98-.96,2.92.28-.26.53-.56.79-.86,1.45-1.74,2.87-3.52,4.26-5.31,2.29-2.95,4.5-5.95,6.62-9.01-3.05-2.19-5.71-4.92-7.75-8.04-1.67-2.55-3.9-6.2-2.65-9.26.53-1.3,1.81-2.13,3.26-2.08,1.41.06,2.73.86,3.75,1.8,2.28,2.08,3.92,4.94,4.82,7.83.53,1.69.83,3.41.85,5.17,0,.42,0,.84-.03,1.28.83-1.25,1.65-2.51,2.46-3.78,1.65-2.6,3.25-5.23,4.78-7.9.02.9.02,1.8.02,2.69v.44c-1.64,2.79-3.35,5.53-5.13,8.24Z"/><path class="cls-2" d="M106.24,341.55c.03,1.21-.05,2.39-.26,3.56-2.57-.6-5.12-1.28-7.64-2.03-.32-.77-.6-1.54-.85-2.33-.51-1.6-1.08-3.59-1.09-5.46,0-1.33.27-2.6,1.07-3.62.82-1.04,2.18-1.47,3.48-1.04,1.26.41,2.25,1.48,2.94,2.59.81,1.31,1.41,2.77,1.79,4.29.34,1.33.52,2.7.56,4.04Z"/><path class="cls-3" d="M144.51,308.39c.03,1.74-.73,3.32-1.55,4.77-.96,1.7-2.06,3.3-3.31,4.78-1.39,1.66-2.96,3.19-4.67,4.5-.45.35-.92.69-1.39,1.02-1.3,1.31-2.99,2.24-4.8,2.76-.06.02-.11.03-.17.03-.71.86-1.43,1.7-2.16,2.53-.06.17-.19.31-.35.39-.07.12-.14.24-.23.35-.05.07-.11.11-.18.12-.24.28-.49.55-.73.83-1.5,1.69-3.03,3.36-4.59,5,.11-.05.22-.1.33-.15,1.42-.63,2.92-1.08,4.45-1.38,2.83-.57,6.12-.81,8.83.61,1.12.58,2.21,1.47,2.64,2.7.32.94.22,1.97-.25,2.8-.12.22-.26.42-.43.6-1.98,2.21-5.67,1.73-8.35,1.32-2.89-.44-5.97-1.13-8.66-2.48-.56-.27-1.09-.58-1.61-.91-.23.22-.45.45-.68.67-.18.18-.36.36-.54.53-2.13,2.09-4.31,4.13-6.54,6.11-.62-.12-1.23-.25-1.85-.39,2.39-2.11,4.74-4.27,7.02-6.5.41-.4.83-.81,1.24-1.21-.1-.07-.19-.16-.25-.28-.45-.87-.75-1.83-1.13-2.73-.38-.91-.78-1.81-1.16-2.72-.72-1.72-1.39-3.46-1.78-5.28-.64-2.97-.5-6.27,1.2-8.79.79-1.19,2.04-2.27,3.6-1.99,1.21.22,2.08,1.24,2.64,2.27.7,1.3.92,2.73,1.06,4.17.16,1.64.18,3.3.05,4.94-.22,2.94-.93,5.83-2.24,8.42,1.65-1.67,3.28-3.37,4.87-5.1.71-.77,4.53-5.02,4.79-5.31.9-7.5,2.27-16.36,9.67-19.8,1.41-.65,3.14-1.16,4.71-.7,1.58.47,2.45,1.91,2.47,3.49Z"/><path class="cls-13" d="M228.87,306.47c1.72-.29,3.43-.6,5.14-.92-.7.75-1.4,1.5-2.11,2.23-.58.11-1.16.21-1.74.31-.06.57-.14,1.15-.25,1.72-4.6,4.6-9.51,8.84-14.68,12.69-.05-.55-.03-1.11.04-1.64.45-3.23,2.62-6.06,4.95-8.1,1.82-1.6,3.87-2.88,5.98-4.04-3.38.52-6.77.97-10.16,1.34-2.34.26-4.68.48-7.02.66-.67.05-1.35.1-2.03.15-.38,2.7-1.39,5.32-2.64,7.78-.72,1.42-1.53,2.78-2.35,4.07-1.73,2.72-4.18,6.41-7.71,6.45-1.43.02-2.83-.77-3.57-2.06-.1-.17-.18-.35-.26-.53-.5-1.24-.41-2.67-.11-3.95.85-3.53,3.63-6.29,6.35-8.38,1.48-1.14,3.05-2.12,4.72-2.91.13-.06.26-.12.39-.18-2.68.12-5.37.19-8.06.21-.44,0-.87,0-1.31,0-.06.06-.14.08-.25.07-.16-.01-.32-.04-.48-.07-.2.08-.44.09-.63,0-1.32,0-2.64,0-3.96-.04-.05.05-.1.09-.16.13-1.87,1.21-4.02,2-6.22,2.14-.66.17-1.33.32-2,.45-2.52.51-5.11.71-7.68.67-2.31-.04-4.6-.31-6.87-.77-1.95-.4-3.94-.95-5.48-2.34-1.4-1.25-2.01-3.16-1.2-4.94.81-1.78,2.63-2.93,4.31-3.68,8.87-3.94,17.87,1.75,25.29,6.8.46,0,7.26-.11,8.49-.14,2.79-.08,5.59-.21,8.37-.38-3.34-.85-6.48-2.47-9.29-4.57-1.56-1.16-3.03-2.48-4.38-3.9-1.17-1.25-2.28-2.56-2.9-4.2-.49-1.31-.72-2.89.02-4.14.97-1.62,2.91-1.89,4.59-1.67,3.58.46,6.64,2.9,8.81,5.79,1.32,1.76,2.36,3.73,3.33,5.71.52,1.06,1.02,2.12,1.54,3.17.51,1.04,1.14,2.06,1.57,3.15.06.15.07.3.06.44,3.74-.28,7.47-.65,11.19-1.1,1.98-.24,3.96-.51,5.93-.8-.46-.18-.89-.38-1.31-.58-.65-.32-1.28-.67-1.88-1.05-1.04-.66-2.02-1.42-2.95-2.28-2.49-2.29-4.6-5.3-5.62-8.61-.46-1.48-.64-3.2-.02-4.65.64-1.49,2.08-2.39,3.66-2.31,3.69.2,6.33,4.19,8.11,7.1,1.01,1.64,1.87,3.38,2.57,5.18.83,2.1,1.45,4.28,1.86,6.5Z"/><path class="cls-15" d="M244.87,292.14c-1.68,2.37-3.43,4.67-5.25,6.9-2.55-1.42-4.82-3.37-6.35-5.95-.04-.06-.07-.12-.11-.18-1.56-2.75-2.98-7.96,1.01-9.22,2.08-.66,3.82.19,5.3,1.56,1.53,1.41,2.78,3.39,3.88,4.86.51.68,1.01,1.36,1.52,2.04Z"/><path class="cls-16" d="M52.15,170.77c-1.03,1.03-2.54,1.38-3.95,1.42-3.39.1-6.56-1.74-9.11-3.67-1.38-1.05-2.65-2.22-3.77-3.53-.08-.1-.17-.2-.26-.31.77,2.39,1.48,4.79,2.16,7.21.11.39.22.78.33,1.18.06.04.11.11.13.2.02.15.04.3.06.45.12.17.19.37.16.57.32,1.18.64,2.38.93,3.57.05.03.11.06.15.11,1.55,1.39,2.78,3.14,3.45,5.08.32.56.61,1.12.9,1.69,1.07,2.15,1.89,4.43,2.48,6.76.53,2.09.85,4.22.98,6.38.12,1.86.11,3.79-.77,5.52-.79,1.56-2.35,2.58-4.15,2.28-1.8-.3-3.28-1.65-4.37-2.98-5.72-7.02-2.79-16.53-.06-24.44-.12-.42-1.87-6.51-2.2-7.62-.64-2.12-1.32-4.25-2.03-6.36-.12-.36-.24-.73-.36-1.09.05,3.22-.64,6.45-1.85,9.5-.67,1.69-1.49,3.34-2.44,4.9-.84,1.36-1.75,2.68-3.08,3.64-1.06.77-2.42,1.35-3.73.99-1.69-.47-2.41-2.16-2.63-3.73-.46-3.34.99-6.69,3.07-9.35,1.26-1.62,2.77-3.04,4.32-4.4.82-.72,1.66-1.43,2.48-2.15.82-.72,1.57-1.53,2.45-2.19.12-.09.25-.14.39-.16-1.79-5.06-3.76-10.04-5.91-14.96-.05.45-.12.9-.2,1.32-.34,1.8-.96,3.52-1.81,5.16-1.31,2.54-3.24,4.94-5.62,6.65-.25.19-.5.36-.76.52-1.22.77-2.73,1.36-4.19,1.16-1.5-.21-2.66-1.29-2.97-2.73-.72-3.37,2.23-6.72,4.42-9.04,1.76-1.87,3.77-3.52,5.94-4.9,1.12-.72,2.29-1.37,3.49-1.94-.65-1.42-1.32-2.83-2.01-4.24-1.02-2.1-2.07-4.18-3.16-6.24-1.11-2.1-2.25-4.18-3.42-6.23-.2-.36-.41-.72-.65-1.03.26,1.05.37,2.14.45,3.18.14,1.86.06,3.72-.29,5.56-.58,3.11-1.87,6.14-4.19,8.45-.67.66-1.56,1.37-2.54,1.92,2.03-7.55,4.4-15.1,7.09-22.56,1.96-.32,4.15.03,6.05.34,1.83.3,3.63.72,5.38,1.27.32.1.64.2.95.31,2.49.84,6.86,2.67,5.65,6.04-1.24,3.45-6.35,2.5-8.94,1.67-.1-.03-.19-.06-.29-.1-2.05-.68-3.97-1.74-5.62-3.09.93,1.68,1.83,3.38,2.71,5.09.5.97.99,1.94,1.47,2.92.85,1.71,1.68,3.43,2.49,5.16,3.26-.53,6.83-.31,9.98.28,1.03.19,2.14.46,3.24.83,2.1.7,4.13,1.76,5.36,3.37.86,1.13,1.09,2.64.23,3.88-.81,1.16-2.3,1.75-3.66,1.93-1.41.18-2.83,0-4.2-.41-1.55-.46-3.03-1.22-4.31-2.07-1.88-1.25-3.53-2.78-5.09-4.4,2.19,4.92,4.19,9.93,6,15,.21.59.42,1.19.64,1.79.16-.02.32-.04.48-.05,3.83-.36,7.83.53,11.41,1.64,2.87.9,6.79,2.2,7.7,5.36.37,1.29,0,2.74-.98,3.73Z"/><path class="cls-17" d="M190.17,181.27c.15,1.1.5,2.18.73,3.27.24,1.09.46,2.19.7,3.28.45,2.06.97,4.11,1.79,6.04,1.35,3.17,3.62,6.13,6.83,7.37,1.51.59,3.37.78,4.63-.5.97-.99,1.12-2.5.97-3.83-.2-1.66-.92-3.13-1.73-4.55-.92-1.63-1.98-3.18-3.16-4.61-2.13-2.58-4.66-4.8-7.56-6.36,2.62.48,5.23,1,7.83,1.56,1.16.25,7.47,1.7,7.9,1.81,5.72,6.36,12.75,13.69,21.86,12.06,1.73-.31,3.67-.96,4.82-2.42,1.16-1.46,1.02-3.36.02-4.84-1.11-1.63-2.83-2.6-4.55-3.42-1.99-.95-4.06-1.72-6.18-2.28-2.37-.63-4.82-1.03-7.27-1.13-.65-.03-1.3-.04-1.95-.04-2.06-.37-4.23-.13-6.24.57-.06.02-.12.05-.18.08-1.22-.33-2.43-.64-3.65-.94-.16-.12-.37-.17-.58-.14-.15-.06-.29-.12-.43-.17-.09-.03-.18-.03-.25.01-.41-.1-.81-.19-1.21-.29-2.49-.59-5-1.14-7.51-1.64.14-.03.27-.05.4-.08,1.73-.35,3.41-.9,5.03-1.62,2.99-1.32,6.2-3.24,7.79-6.32.66-1.27,1.1-2.8.69-4.23-.39-1.36-1.51-2.42-2.84-2.72-3.28-.76-6.38,2.1-8.6,4.22-2.88,2.76-5.78,6.04-7.32,9.83-.64-.1-1.28-.21-1.91-.32-5.43-.89-10.89-1.58-16.37-2.07,2.22-.59,4.4-1.31,6.45-2.37,2.62-1.35,5.28-3.48,6.43-6.37.52-1.31.72-2.93.09-4.23-.67-1.39-2.14-1.93-3.58-1.72-3.12.46-6.04,3.21-8.01,5.61-2.09,2.53-4.06,5.6-5.2,8.78-3.06-.22-6.11-.38-9.18-.47-1.96-.06-3.93-.09-5.89-.1,2.12-.85,4.09-2.12,5.77-3.7,2.01-1.9,5.39-6,2.93-8.81-2.41-2.75-6.2.25-8.19,2.05-1.65,1.49-3.16,3.13-4.55,4.88-1.31,1.66-2.82,3.58-3.45,5.65-1.02,0-2.06.03-3,.39-.53.2-.67,1.04-.04,1.22,1.16.33,2.34.18,3.53.14.3.17.5.28.7.39,1.69,4,3.37,8,5.06,12,1.33,3.17,2.82,8.31,7.04,8.03,3.98-.26,3.86-5.41,3.03-8.31-.91-3.22-2.98-5.87-5.47-7.93-1.48-1.22-3.09-2.22-4.82-3.01-.96-.44-2-.88-3.06-1.17.4-.06.82-.07,1.24-.07,2.42-.03,4.84-.02,7.26.04,3.98.08,7.95.28,11.92.57-.23,4,.24,8.03,1.44,11.82.99,3.1,2.52,7.4,5.89,8.42,1.44.44,2.98-.06,3.91-1.3.9-1.2,1.13-2.84,1.04-4.31-.19-3.29-1.46-6.56-3.24-9.25-1.05-1.58-2.27-2.98-3.71-4.18-.34-.29-.7-.57-1.08-.84,5.45.51,10.88,1.23,16.28,2.14-.05.13-.07.27-.05.42Z"/><path class="cls-18" d="M97.92,56.95c-.71.77-1.67,1.29-2.63,1.77.39,2.24-.13,4.76-.58,6.92-.48,2.29-1.14,4.54-1.98,6.71-1.02,2.62-3.17,7.21-6.72,5.77-3.63-1.48-2.38-6.91-1.38-9.64.84-2.27,2.09-4.38,3.68-6.18-1.85.91-3.71,1.8-5.58,2.67-2.92,1.35-5.86,2.63-8.83,3.86.41,3.52,0,7.32-.77,10.67-.73,3.17-2.18,7.12-4.89,9.02-1.25.87-2.88,1.05-4.16.06-1.2-.92-1.77-2.54-1.89-4.01-.07-.86-.02-1.73.13-2.58.42-2.35,1.58-4.58,2.91-6.42.7-.96,1.46-1.85,2.27-2.7.85-.9,1.75-1.74,2.67-2.56-.49.19-.98.38-1.48.58-4.89,1.89-9.84,3.61-14.85,5.16-.64.2-1.29.4-1.94.6.34,4.27-.84,8.72-2.25,12.66-1.09,3.03-2.66,7.17-6.09,7.99-1.39.33-2.94-.13-3.94-1.22-.4-.44-.7-.96-.91-1.51-.33-.88-.45-1.86-.43-2.78.05-3.63,2.16-6.93,4.35-9.58,1.19-1.43,2.51-2.74,3.96-3.87.11-.08.23-.18.34-.26-2.59.71-5.2,1.37-7.82,1.99-.42.1-.85.2-1.28.3-.05.06-.12.11-.22.12-.16.02-.32.03-.49.04-.18.12-.4.18-.61.14-1.22.28-2.44.55-3.67.79.33-.61.66-1.23,1-1.83,2.15-.52,5.83-1.41,6.7-1.63,2.7-.7,5.4-1.43,8.08-2.21-3.45-.1-6.87-.99-10.08-2.42-.3-.13-.59-.26-.88-.41,1.74-2.93,3.53-5.8,5.37-8.62,1.56,1.37,2.92,2.96,4.23,4.58.73.91,1.45,1.84,2.19,2.76.47.59.99,1.15,1.47,1.74.27.32.53.64.76.99.09.13.13.27.15.42,5.49-1.68,10.92-3.56,16.28-5.63-.48-.07-.95-.17-1.41-.28-1.92-.45-3.73-1.19-5.45-2.18-1.35-.77-2.64-1.71-3.82-2.79-1.4-1.28-2.62-2.74-3.55-4.37-.77-1.35-1.34-2.98-1.05-4.53.29-1.6,1.51-2.79,3.06-3.06,2.93-.5,5.74,1.54,7.96,3.64.54.51,1.05,1.02,1.52,1.5,2.56,2.63,4.67,5.7,6.27,9.03.22.45.43.92.63,1.38,3.86-1.58,7.68-3.27,11.45-5.05,2.29-1.09,4.57-2.21,6.82-3.37.39-.2.78-.41,1.13-.65-1.13.23-2.31.3-3.42.34-2,.07-3.98-.11-5.94-.56-1.54-.36-3.07-.88-4.49-1.61-1.62-.82-3.11-1.89-4.37-3.27-1.24-1.36-2.62-3.54-2.83-5.55-.16-1.44.27-2.78,1.78-3.67.79-.46,1.58-.65,2.36-.64,3,.03,5.84,3.02,8.01,4.88.22.19.43.37.65.56,3.24,2.77,6.48,5.55,9.72,8.33.24,0,.47,0,.84.03,1.1-.59,2.14-1.29,3.38-1.52.68-.12.94.74.53,1.17Z"/><path class="cls-14" d="M246.18,115.18c-.18.8-.54,1.54-1.05,2.12-.67.78-1.61,1.3-2.73,1.4-1.98.16-3.9-.87-5.4-1.99-7.91-5.9-7.33-16.71-6.54-25.8-.24-.41-3.7-6.38-4.35-7.47-1.46-2.44-2.96-4.84-4.49-7.23.9,3.39,1.03,6.98.56,10.52-.26,1.96-.69,3.92-1.29,5.82-.52,1.66-1.14,3.3-2.29,4.66-.92,1.09-2.2,2.07-3.68,2.04-1.92-.05-3.11-1.64-3.76-3.24-1.38-3.41-.73-7.33.76-10.69.9-2.05,2.12-3.95,3.4-5.79.68-.98,1.37-1.95,2.05-2.94.67-.97,1.26-2.03,2.01-2.95.1-.13.23-.21.37-.27-3.23-4.86-6.63-9.61-10.2-14.23.06.49.11.98.13,1.45.12,2-.08,3.97-.55,5.93-.79,3.35-2.42,6.71-4.84,9.26-1.09,1.14-2.52,2.16-4.11,2.33-1.64.18-3.15-.66-3.86-2.1-1.66-3.37.57-7.69,2.27-10.72,2.07-3.7,4.87-7.01,8.15-9.74-2.66-3.3-5.4-6.54-8.24-9.7-1.72-1.92-3.47-3.81-5.26-5.68-.31-.32-.62-.64-.96-.91.55,1.03.96,2.16,1.32,3.23.64,1.92,1.04,3.91,1.17,5.95.2,3.44-.35,6.99-2.19,10.04-1.66,2.75-5.57,6.6-8.68,3.69-3.29-3.08-.37-7.98,1.13-11.33,1.89-4.23,3.77-8.45,5.66-12.67-.06-.23-.13-.47-.21-.83-.9-.9-1.87-1.71-2.46-2.85-.32-.62.45-1.12.98-.86.96.47,1.74,1.26,2.49,2.06,2.06-1.02,4.67-1.25,6.91-1.43,2.37-.2,4.75-.21,7.11-.01.09,0,.19.01.28.02,2.17,2.23,4.3,4.54,6.38,6.94-1.79,2.01-5.78,2.2-8.09,2.06-2.46-.15-4.88-.77-7.09-1.8,1.43,1.54,2.83,3.09,4.22,4.66,2.16,2.45,4.26,4.95,6.32,7.49,3.31-1.42,7.14-2.13,10.62-2.35.69-.04,1.42-.06,2.17-.05,2.23,2.92,4.39,5.92,6.5,9-.18.09-.37.17-.56.25-3.09,1.21-6.69.69-9.65-.37-2.32-.82-4.47-2-6.55-3.29,3.61,4.62,7.05,9.37,10.31,14.25.38.57.76,1.15,1.15,1.72,3.88-1.49,8.31-1.69,12.4-1.5,1.32,2.18,2.62,4.4,3.88,6.65.71,1.27,1.42,2.54,2.11,3.82-.35.09-.7.16-1.05.21-3.15.44-6.43-.55-9.24-1.75-1.74-.74-3.4-1.65-4.92-2.74-.12-.08-.24-.17-.35-.26,1.44,2.32,2.83,4.67,4.19,7.04.22.39.44.77.66,1.16.08.03.14.08.19.18.07.15.13.31.19.47.17.14.29.34.31.55.65,1.16,1.3,2.34,1.93,3.53.06.01.13.04.19.07,2,1.06,3.77,2.58,4.99,4.44.48.51.95,1.03,1.4,1.55,1.7,1.99,3.17,4.18,4.41,6.49.19.35.37.71.55,1.07.86,1.74,1.59,3.55,2.18,5.4.61,1.93,1.12,3.98.65,6.03Z"/><path class="cls-12" d="M97.32,271.64c-.98-.24-1.91-.66-2.87-.98-.96-.32-1.92-.62-2.88-.94-1.81-.6-3.6-1.27-5.26-2.19-2.72-1.52-5.16-3.85-5.96-6.86-.38-1.41-.38-3.1.9-4.11.99-.78,2.35-.77,3.53-.5,1.47.34,2.73,1.13,3.92,1.99,1.37.99,2.66,2.09,3.84,3.29,2.12,2.16,3.86,4.66,4.98,7.41-.18-2.4-.39-4.8-.64-7.19-.11-1.06-.81-6.88-.86-7.27-5.16-5.76-11.06-12.79-8.71-20.81.45-1.52,1.22-3.2,2.65-4.1,1.43-.9,3.12-.59,4.35.45,1.36,1.16,2.06,2.8,2.63,4.42.66,1.88,1.15,3.81,1.45,5.78.33,2.19.46,4.43.31,6.64-.04.58-.09,1.17-.16,1.76.13,1.89-.3,3.82-1.11,5.55-.03.05-.06.11-.09.15.18,1.12.34,2.25.49,3.37.09.15.11.35.07.53.04.14.08.27.11.41.02.09,0,.16-.03.22.05.37.1.75.14,1.12.29,2.3.54,4.6.75,6.91.04-.12.07-.24.11-.35.48-1.52,1.14-2.98,1.94-4.36,1.48-2.56,3.51-5.26,6.43-6.39,1.21-.47,2.63-.71,3.87-.21,1.18.48,2.02,1.59,2.17,2.81.36,3.02-2.5,5.53-4.63,7.32-2.76,2.32-5.99,4.61-9.54,5.62.03.59.07,1.17.1,1.75.27,4.96.36,9.94.27,14.91.75-1.93,1.6-3.83,2.76-5.57,1.47-2.23,3.64-4.41,6.35-5.16,1.23-.34,2.71-.37,3.81.33,1.18.74,1.53,2.11,1.2,3.38-.72,2.76-3.47,5.11-5.81,6.66-2.47,1.63-5.43,3.1-8.39,3.82-.1,2.77-.26,5.53-.47,8.29-.14,1.77-.3,3.54-.48,5.3.97-1.82,2.3-3.47,3.89-4.83,1.9-1.63,5.91-4.27,8.2-1.78,2.23,2.43-.83,5.55-2.64,7.16-1.5,1.33-3.12,2.54-4.82,3.61-1.62,1.02-3.49,2.19-5.42,2.55-.1.92-.23,1.85-.64,2.66-.23.46-1,.5-1.1-.08-.18-1.07.07-2.12.21-3.18-.13-.28-.21-.47-.28-.67-3.43-1.9-6.86-3.8-10.29-5.71-2.72-1.51-7.2-3.34-6.54-7.1.62-3.55,5.23-2.94,7.76-1.92,2.8,1.13,4.99,3.25,6.6,5.69.96,1.45,1.7,3,2.24,4.63.3.91.6,1.88.75,2.87.09-.35.14-.73.18-1.11.26-2.17.48-4.35.67-6.53.31-3.58.52-7.18.64-10.77-3.61-.18-7.19-.99-10.48-2.44-2.69-1.19-6.4-2.98-7-6.11-.25-1.33.35-2.67,1.55-3.39,1.17-.69,2.66-.74,3.98-.51,2.94.49,5.76,1.95,8,3.81,1.31,1.09,2.46,2.33,3.39,3.74.22.34.44.69.65,1.05.07-4.95-.05-9.9-.34-14.84-.12.03-.25.03-.38,0Z"/><path class="cls-19" d="M272.64,201.91v.44c0,2.31-.06,4.59-.15,6.87-.12,2.7-.29,5.38-.53,8.03-1.29,14.34-4.37,27.91-9,40.5-1.17,3.2-2.44,6.33-3.81,9.4-3.99,8.93-8.77,17.29-14.27,25-1.68,2.37-3.43,4.67-5.25,6.9-1.8,2.23-3.67,4.4-5.6,6.5-.7.75-1.4,1.5-2.11,2.23-.65.69-1.32,1.36-1.99,2.03-4.6,4.6-9.51,8.84-14.68,12.69-22.27,16.6-49.51,26.09-78.92,26.09-9.15,0-18.08-.92-26.73-2.69-.62-.12-1.23-.25-1.85-.39-.59-.13-1.17-.26-1.76-.39-2.57-.6-5.12-1.28-7.64-2.03-23.37-6.97-44.15-20.3-60.52-38.43-1.85-2.04-3.63-4.14-5.35-6.3-6.75-8.44-12.61-17.77-17.42-27.87.06.03.11.06.16.1,5.73,10.22,12.59,19.55,20.39,27.82.4.43.81.86,1.23,1.29,16.39,16.92,36.8,29.26,59.57,35.6,3.05.85,6.15,1.59,9.28,2.22,2.99.6,6.02,1.1,9.08,1.5.64.08,1.27.16,1.91.24.76.09,1.52.17,2.29.24,4.31.42,8.68.64,13.09.64,1.46,0,2.9-.02,4.35-.07,19.31-.61,37.61-5.33,54.08-13.46,4.79-2.36,9.42-5.01,13.88-7.93,4.05-2.65,7.95-5.52,11.69-8.6.84-.69,1.67-1.39,2.49-2.1.92-.8,1.84-1.61,2.74-2.43,1.97-1.8,3.88-3.65,5.74-5.57,2.16-2.21,4.25-4.5,6.26-6.88,2.15-2.53,4.22-5.15,6.2-7.85,4.46-6.09,8.48-12.59,12.01-19.48,1.8-3.5,3.46-7.1,4.98-10.8,2.92-7.03,5.34-14.4,7.22-22.05.63-2.58,1.2-5.19,1.71-7.83.54-2.78,1.01-5.6,1.4-8.45.22-1.56.41-3.13.58-4.71.05-.45.1-.9.14-1.34.12-1.15.22-2.31.32-3.47.36-4.48.54-9.04.54-13.67,0-.61,0-1.23-.01-1.84-.05-5.29-.34-10.72-.86-16.22-.41-4.37-.96-8.79-1.64-13.24-.49-3.21-1.05-6.44-1.69-9.68-.23-1.17-.46-2.34-.71-3.51-.12-.59-.25-1.19-.38-1.78-4.57-21.11-11.97-42.59-21.62-62.57.31.58.61,1.16.91,1.74.3.58.6,1.16.9,1.75.3.58.59,1.17.88,1.75.29.59.58,1.18.87,1.77.29.59.57,1.18.86,1.77.28.59.57,1.19.85,1.78,1.41,2.97,2.76,5.98,4.06,9.01.52,1.21,1.03,2.43,1.54,3.65.02.05.04.1.06.14,1.24,3.01,2.43,6.03,3.57,9.07.7,1.86,1.37,3.72,2.02,5.58.44,1.24.86,2.49,1.28,3.73.21.62.42,1.24.62,1.87.16.48.32.97.48,1.46.26.82.52,1.63.77,2.44.42,1.35.83,2.7,1.23,4.05.39,1.35.78,2.7,1.16,4.05.66,2.35,1.28,4.69,1.87,7.02.14.55.27,1.1.41,1.66,0,.04.02.08.03.12.12.48.24.97.35,1.44.03.11.05.21.08.32,0,.03,0,.05.02.07.31,1.33.62,2.66.9,3.99.1.42.19.85.28,1.27.11.5.21,1,.32,1.5.11.52.21,1.03.32,1.54.07.33.14.67.2,1.01.02.09.03.17.05.25,0,.04.01.08.02.11.1.5.2,1,.29,1.49.38,2,.74,3.99,1.06,5.98.16.95.31,1.9.45,2.85.31,2.01.59,4.02.84,6.01,0,.05.01.1.02.14.01.1.02.2.04.31.08.63.15,1.25.22,1.87.06.57.13,1.13.19,1.69.08.77.16,1.53.23,2.29.06.6.12,1.21.17,1.81.06.6.1,1.19.15,1.79,0,.07,0,.15.01.23.05.61.09,1.21.13,1.81.04.53.07,1.06.11,1.59.05.77.09,1.53.12,2.29.03.51.05,1.02.07,1.52,0,.12.01.23.01.34.02.51.04,1.01.06,1.51,0,.3.02.6.03.9.02.77.04,1.52.05,2.27.02.9.02,1.8.02,2.69Z"/><path class="cls-20" d="M170.85,166.52c-12.44,59.07-56.89,97.52-100.42,91.37-30.55-4.32-52.54-29.46-58.63-64.49-2.59-14.88-2.31-31.55,1.4-49.16C25.65,85.16,78.22,8.11,121.76,14.27c23.31,3.3,39.31,29.78,47.22,62.75,6.87,28.59,7.66,62.06,1.88,89.5Z"/><path class="cls-1" d="M272.64,201.91v.44c0,2.31-.06,4.59-.15,6.87-.12,2.7-.29,5.38-.53,8.03-1.29,14.34-4.37,27.91-9,40.5-1.17,3.2-2.44,6.33-3.81,9.4-3.99,8.93-8.77,17.29-14.27,25-1.68,2.37-3.43,4.67-5.25,6.9-1.8,2.23-3.67,4.4-5.6,6.5-.7.75-1.4,1.5-2.11,2.23-.65.69-1.32,1.36-1.99,2.03-4.6,4.6-9.51,8.84-14.68,12.69-22.27,16.6-49.51,26.09-78.92,26.09-9.15,0-18.08-.92-26.73-2.69-.62-.12-1.23-.25-1.85-.39-.59-.13-1.17-.26-1.76-.39-2.57-.6-5.12-1.28-7.64-2.03-23.37-6.97-44.15-20.3-60.52-38.43-1.85-2.04-3.63-4.14-5.35-6.3-6.75-8.44-12.61-17.77-17.42-27.87.06.03.11.06.16.1,3.92,2.39,7.98,4.63,12.16,6.72,7.25,3.63,14.88,6.79,22.85,9.44,1.04.35,2.08.68,3.12,1.01,14.84,4.63,29.77,7.13,44.39,7.63.52.02,1.04.04,1.56.05,38.09.96,74.02-11.6,100.72-35.44,2.34-2.09,4.62-4.28,6.82-6.54,1.12-1.16,2.22-2.33,3.3-3.53.39-.43.77-.86,1.15-1.29,11.39-12.99,20.42-28.48,26.31-46.22,4.23-12.73,6.94-26.89,8.14-41.77.3-3.7.51-7.45.61-11.23.02-.56.04-1.11.05-1.67.01-.59.03-1.18.03-1.77.01-.68.02-1.35.02-2.03.04-5.95-.15-11.97-.57-18.01-.2-2.87-.44-5.74-.74-8.62-.46-4.51-1.06-9.04-1.78-13.54-1.16-7.34-2.66-14.64-4.48-21.82-.34-1.35-.7-2.69-1.06-4.03.71,1.27,1.42,2.54,2.11,3.82.51.95,1.03,1.91,1.53,2.86.31.58.61,1.16.91,1.74.3.58.6,1.16.9,1.75.3.58.59,1.17.88,1.75.29.59.58,1.18.87,1.77.29.59.57,1.18.86,1.77.28.59.57,1.19.85,1.78,1.41,2.97,2.76,5.98,4.06,9.01.52,1.21,1.04,2.43,1.54,3.65.02.05.04.1.06.14,1.24,3,2.44,6.03,3.57,9.07.7,1.85,1.37,3.72,2.02,5.58.44,1.24.86,2.49,1.28,3.73.21.62.42,1.24.62,1.87.16.48.32.97.48,1.46.26.82.52,1.63.77,2.44.42,1.35.83,2.7,1.23,4.05.39,1.35.78,2.7,1.16,4.05.66,2.35,1.28,4.69,1.87,7.02.14.55.27,1.1.41,1.66,0,.04.02.08.03.12.12.48.23.96.34,1.44.03.11.05.21.08.32,0,.02,0,.05.01.07.32,1.33.62,2.66.91,3.99.1.42.19.85.28,1.27.11.5.21,1,.32,1.5.11.52.21,1.03.32,1.54.07.33.14.67.2,1.01.02.08.03.17.05.26.01.04.02.07.02.11.1.5.2,1,.29,1.49.38,2,.74,3.99,1.06,5.98.16.95.31,1.9.45,2.85.31,2.01.59,4.02.84,6.01,0,.05,0,.09.01.14.02.11.03.21.04.32.08.63.15,1.25.22,1.87.06.57.13,1.13.19,1.69.08.77.16,1.53.23,2.29.06.6.12,1.21.17,1.81.06.6.1,1.19.15,1.79,0,.07,0,.15.01.23.05.61.09,1.21.13,1.81.04.53.07,1.06.11,1.59.05.77.09,1.53.12,2.29.03.51.05,1.02.07,1.52,0,.12.01.23.01.34.02.51.04,1.01.06,1.51,0,.3.02.6.03.9.02.77.04,1.52.05,2.27.02.9.02,1.8.02,2.69Z"/><path class="cls-21" d="M119.19,25.69c-17.14-1.9-33.59,18.55-43.19,30.16-17.26,20.86-30.39,45.42-37.8,71.48-3.78,13.28-6.07,27.03-6.36,40.85-.22,10.21-1.36,28.74,5.59,37.11.41.5.86.95,1.35,1.37,4.86,4.17,13.16,4.54,17.59-.36.43-.48.83-1,1.19-1.56,5.06-7.79,4.21-19.49,5.3-28.42,1.47-12.02,3.73-23.94,6.76-35.66,5.32-20.62,13.62-40.35,23.43-59.22,4.91-9.46,10.22-18.71,15.76-27.82,2.24-3.68,21.39-26.72,10.39-27.94Z"/><path class="cls-21" d="M88.3,115.83c-3.76,10.85-6.09,22.37-6.95,33.84-.7,9.32,6.15,16.16,10.9,6.84,5.22-10.22,16.09-58.42,10.16-60.89-4.94-2.07-11.98,14.06-14.11,20.21Z"/></svg>