<?xml version="1.0" encoding="UTF-8"?><svg id="_ÎÓÈ_1" xmlns="http://www.w3.org/2000/svg" xmlns:xlink="http://www.w3.org/1999/xlink" viewBox="0 0 272.64 348.59"><defs><style>.cls-1{opacity:.27;}.cls-1,.cls-2,.cls-3{fill:#fff;}.cls-2{opacity:.19;}.cls-3{opacity:.42;}.cls-4{fill:#219e96;}.cls-5{opacity:.09;}.cls-6{fill:url(#_ÂÁ_Ï_ÌÌ_È_ËÂÌÚ_36);}</style><linearGradient id="_ÂÁ_Ï_ÌÌ_È_ËÂÌÚ_36" x1="187.69" y1="325.99" x2="59.39" y2="1.88" gradientUnits="userSpaceOnUse"><stop offset="0" stop-color="#ebba93"/><stop offset=".6" stop-color="#f1d1b3"/><stop offset="1" stop-color="#f5dec5"/></linearGradient></defs><path class="cls-6" d="M272.64,201.91c0,1.14,0,2.26-.04,3.39-.28,14.59-2.39,28.49-6.08,41.48-7.75,27.29-22.46,50.6-41.86,68-7.7,6.91-16.14,12.89-25.18,17.81-18.89,10.29-40.37,15.99-63.16,15.99-20.42,0-39.78-4.57-57.16-12.92-12.83-6.16-24.58-14.38-34.87-24.33-11.87-11.47-21.81-25.25-29.24-40.85-5.63-11.81-9.82-24.65-12.33-38.33-1.78-9.69-2.71-19.8-2.71-30.25,0-3.65.11-7.35.34-11.11,2.09-35.32,13.9-74.99,32.31-108.97,5.6-10.35,11.81-20.16,18.55-29.17C69.06,28.79,90.59,10.6,114.15,3.39c7.22-2.21,14.62-3.39,22.17-3.39,5.93,0,11.77.73,17.5,2.11,25.9,6.25,49.53,25.89,68.78,52.12,2.97,4.05,5.85,8.26,8.6,12.61.13.19.25.38.37.58,2.16,3.42,4.25,6.93,6.26,10.5.69,1.22,1.37,2.46,2.05,3.7,20.43,37.63,32.77,82.28,32.77,120.29Z"/><path class="cls-4" d="M239.86,81.62l-15.61.49-10.19,15.83-6.37-17.72-18.21-4.79,14.88-11.54-1.07-18.8,15.57,10.59,3.73-1.45c2.97,4.05,5.85,8.26,8.6,12.61l-.03.09.39.48c2.16,3.42,4.25,6.93,6.26,10.5.69,1.22,1.37,2.46,2.05,3.7Z"/><path class="cls-4" d="M79.15,335.67c-12.83-6.16-24.57-14.38-34.87-24.33l-.37-6.56,15.57,10.59,17.55-6.82-5.26,18.08,7.38,9.04Z"/><polygon class="cls-4" points="93.86 243.87 111.31 236.8 115.38 218.42 127.5 232.83 146.24 231.02 136.28 247 143.79 264.26 125.52 259.72 111.42 272.2 110.09 253.42 93.86 243.87"/><path class="cls-4" d="M160.05,21.41l-18.27-4.54-14.1,12.48-1.33-18.78-12.2-7.18c7.21-2.21,14.61-3.39,22.16-3.39,5.93,0,11.77.73,17.5,2.11l-1.27,2.04,7.51,17.26Z"/><polygon class="cls-4" points="153.12 104.79 166.1 127.91 192.51 130.32 174.53 149.81 180.4 175.67 156.31 164.6 133.53 178.17 136.61 151.83 116.67 134.36 142.67 129.16 153.12 104.79"/><path class="cls-4" d="M56.89,204.14l-22.1,14.66-.45,26.51-20.77-16.48-10.86,3.33c-1.78-9.69-2.71-19.8-2.71-30.25,0-3.65.11-7.35.34-11.11l8.41.36,15.95-21.18,7.11,25.54,25.07,8.62Z"/><path class="cls-4" d="M272.6,205.3c-.28,14.59-2.39,28.49-6.08,41.48l-10.77-3.3-20.77,16.49-.45-26.51-22.09-14.66,25.07-8.62,7.11-25.54,15.95,21.18,12.03-.52Z"/><path class="cls-4" d="M76.14,75.43l-18.21,4.79-6.37,17.72-10.19-15.83-8.73-.27c5.6-10.35,11.81-20.16,18.55-29.17l11.13-7.57-1.07,18.8,14.88,11.54Z"/><path class="cls-4" d="M224.35,314.54l.31.24c-7.7,6.91-16.14,12.89-25.18,17.81,0,0-13.83-.43-13.83-.43l11.91-14.58-5.26-18.08,17.55,6.82,15.57-10.59-1.07,18.8Z"/><path class="cls-2" d="M241.45,84.6c16.91,35.02,26.91,74.63,26.91,108.85,0,84.52-61.03,146.68-136.32,146.68-49.59,0-93-26.97-116.85-69.54-.05-.03-.11-.06-.16-.1,22.62,47.48,68.44,78.1,121.28,78.1,75.29,0,136.32-62.16,136.32-146.68,0-37.01-11.7-80.31-31.18-117.31Z"/><path class="cls-1" d="M170.29,161.94c-11.88,56.39-54.31,93.09-95.86,87.22-29.16-4.12-50.15-28.12-55.96-61.56-2.47-14.21-2.2-30.12,1.34-46.93C31.68,84.28,81.87,10.73,123.43,16.6c22.25,3.15,37.52,28.43,45.07,59.9,6.56,27.29,7.31,59.24,1.79,85.43Z"/><path class="cls-5" d="M272.63,201.91c0,84.52-61.03,146.68-136.32,146.68-52.84,0-98.65-30.62-121.28-78.1,10.77,6.57,22.55,12.06,35.18,16.26,79.26,26.33,162.11-8.27,187.38-84.34,11.81-35.54,11.73-82.18.22-124.49,21.65,38.38,34.82,84.73,34.82,123.99Z"/><path class="cls-3" d="M119.19,25.7c-17.14-1.9-33.59,18.55-43.19,30.16-17.26,20.86-30.39,45.42-37.8,71.48-3.78,13.28-6.07,27.03-6.36,40.85-.22,10.21-1.36,28.74,5.59,37.11.41.5.86.95,1.35,1.37,4.86,4.17,13.16,4.54,17.59-.36.43-.48.83-1,1.19-1.56,5.06-7.79,4.21-19.49,5.3-28.42,1.47-12.02,3.73-23.94,6.76-35.66,5.32-20.62,13.62-40.35,23.43-59.22,4.91-9.46,10.22-18.71,15.76-27.82,2.24-3.68,21.39-26.72,10.39-27.94Z"/><path class="cls-3" d="M88.3,115.83c-3.76,10.85-6.09,22.37-6.95,33.84-.7,9.32,6.15,16.16,10.9,6.84,5.22-10.22,16.09-58.42,10.16-60.89-4.94-2.07-11.99,14.06-14.11,20.21Z"/></svg>