<?xml version="1.0" encoding="UTF-8"?><svg id="_횓횙횊_1" xmlns="http://www.w3.org/2000/svg" xmlns:xlink="http://www.w3.org/1999/xlink" viewBox="0 0 273.53 349.73"><defs><style>.cls-1{fill:#321113;}.cls-2{opacity:.21;}.cls-2,.cls-3,.cls-4{fill:#fff;}.cls-3{opacity:.32;}.cls-4{opacity:.42;}.cls-5{opacity:.22;}.cls-6{opacity:.16;}.cls-7{fill:url(#_횂횁_횕_횑횑_횊_횏횂횑횣_61);}</style><linearGradient id="_횂횁_횕_횑횑_횊_횏횂횑횣_61" x1="168.42" y1="380.7" x2="100.67" y2="-3.2" gradientUnits="userSpaceOnUse"><stop offset=".17" stop-color="#f9a964"/><stop offset=".83" stop-color="#ba7330"/></linearGradient></defs><path class="cls-7" d="M273.53,202.56c0,.66,0,1.33-.01,1.99,0,.35,0,.71-.01,1.06,0,.24,0,.48-.01.72,0,.52-.02,1.04-.04,1.56-.02.59-.04,1.17-.07,1.76-.02.53-.05,1.07-.07,1.61-.03.53-.06,1.06-.09,1.6-.03.53-.06,1.06-.1,1.59-.06.93-.13,1.86-.21,2.79-.03.36-.06.73-.1,1.09-.04.5-.09.99-.14,1.49-.02.26-.05.52-.08.78-.05.46-.1.91-.15,1.37-.05.46-.1.92-.16,1.38-.09.71-.18,1.43-.27,2.14-.08.58-.16,1.16-.25,1.74-.09.61-.18,1.22-.28,1.84-.09.54-.18,1.09-.27,1.63-.06.39-.13.79-.2,1.18s-.14.79-.21,1.18c-.09.51-.19,1.01-.29,1.51-.12.62-.24,1.24-.37,1.86-.03.19-.07.38-.12.56-.11.54-.23,1.08-.35,1.61-.37,1.67-.76,3.32-1.18,4.96-.1.4-.2.8-.31,1.19-.04.17-.09.33-.13.5-.11.42-.22.84-.34,1.26-.08.3-.17.6-.25.9-.04.13-.07.25-.11.37-.28,1-.57,1.99-.88,2.97-.16.54-.33,1.08-.51,1.61-.17.53-.34,1.07-.52,1.6-.18.53-.35,1.06-.53,1.59-.36,1.06-.73,2.11-1.12,3.15-.19.51-.37,1.01-.57,1.51,0,.02-.01.05-.03.07-.17.45-.34.9-.52,1.35-.06.16-.12.31-.19.47-.16.42-.33.83-.5,1.25-.77,1.91-1.58,3.78-2.42,5.64-.28.62-.56,1.23-.85,1.84-.08.19-.17.38-.26.56-.22.46-.44.93-.67,1.39-.13.27-.27.55-.41.83-.55,1.1-1.11,2.2-1.68,3.28-.17.32-.33.63-.5.94-.14.26-.28.53-.43.79-.18.33-.35.65-.54.98-.26.47-.52.94-.79,1.41-.21.37-.42.73-.63,1.09-.27.46-.54.92-.81,1.38-.34.57-.68,1.13-1.03,1.69-.32.52-.64,1.04-.97,1.56-.25.38-.49.77-.74,1.16-.58.9-1.17,1.79-1.77,2.67-.28.41-.56.82-.84,1.22-.07.09-.13.19-.2.29-.26.37-.52.74-.78,1.1-.32.46-.65.91-.98,1.36-.3.4-.59.81-.9,1.21-.32.43-.64.85-.96,1.27-.38.5-.77,1-1.15,1.49-.26.33-.53.67-.8,1-.33.41-.66.82-1,1.22-.33.41-.67.82-1.01,1.22-.7.84-1.41,1.67-2.13,2.48-.67.76-1.35,1.51-2.03,2.25-.36.39-.71.77-1.07,1.15-.33.35-.67.71-1,1.06-.07.06-.13.13-.2.2-.32.33-.65.66-.97,1-1.1,1.12-2.22,2.22-3.35,3.28-.38.36-.76.71-1.14,1.07-.38.35-.77.71-1.15,1.05-.77.71-1.55,1.4-2.34,2.07-1.18,1.02-2.38,2.02-3.59,2.99-2.42,1.96-4.91,3.82-7.46,5.59-.85.6-1.7,1.18-2.57,1.74-.43.28-.87.57-1.3.85-.87.57-1.75,1.12-2.63,1.65-.44.27-.88.54-1.33.8-.87.52-1.75,1.03-2.63,1.53-1.37.77-2.75,1.52-4.15,2.25-.36.19-.73.38-1.1.57-.15.07-.3.15-.46.23-.14.07-.27.14-.41.21-.27.13-.53.26-.8.39-.16.08-.32.16-.47.23-.31.15-.61.3-.92.44-.47.22-.94.44-1.41.66-.44.2-.88.4-1.33.6l-.18.08c-.38.17-.76.33-1.13.5-1.15.5-2.3.98-3.46,1.44-.34.13-.68.27-1.02.4-.04.01-.07.03-.11.04-.86.34-1.72.66-2.58.98-1.07.39-2.14.77-3.22,1.13-.41.14-.82.27-1.23.41-.45.15-.91.29-1.36.44-.31.1-.62.19-.93.28-1.18.36-2.38.71-3.57,1.03-.32.09-.64.18-.95.26-.43.12-.85.23-1.28.33-.41.11-.83.21-1.24.31-.51.12-1.03.25-1.54.37-2.05.48-4.12.91-6.21,1.29-.57.11-1.13.2-1.7.3-.48.08-.97.16-1.45.23-1.39.22-2.8.42-4.2.59-.39.05-.78.1-1.17.14-.51.06-1.03.12-1.54.17-.44.05-.88.09-1.32.13-1.4.13-2.8.25-4.21.33-.29.02-.58.04-.88.05-.28.02-.57.04-.85.05-.4.02-.81.04-1.21.06-.43.02-.87.03-1.3.05-.95.03-1.9.05-2.85.06-.47,0-.95,0-1.43,0-.72,0-1.43,0-2.15-.02-.29,0-.59,0-.88-.01-.28,0-.57-.01-.85-.02-.32,0-.64-.02-.96-.03-.56-.01-1.1-.04-1.65-.07-.65-.03-1.3-.06-1.95-.11-.53-.03-1.06-.06-1.58-.11-.29-.02-.58-.04-.86-.06-.75-.06-1.5-.13-2.24-.2-.28-.03-.57-.06-.85-.09-.09,0-.19-.02-.28-.03-.36-.04-.73-.08-1.09-.12-.36-.04-.71-.07-1.05-.12-.2-.02-.4-.06-.59-.08-.93-.12-1.87-.24-2.79-.38-1.12-.17-2.24-.34-3.35-.54-.56-.1-1.12-.2-1.68-.31-.8-.15-1.6-.31-2.39-.47-.4-.08-.79-.17-1.19-.25-.06-.01-.12-.02-.17-.04-.03,0-.06-.01-.08-.02-1.3-.28-2.59-.58-3.87-.91-.16-.04-.32-.08-.48-.12-.31-.08-.62-.16-.94-.24-.07-.02-.15-.04-.22-.06-.24-.06-.48-.13-.71-.19-.31-.08-.61-.17-.92-.25-.14-.04-.29-.08-.44-.13-.4-.11-.79-.23-1.19-.34-.54-.15-1.09-.32-1.62-.48-.1-.03-.19-.06-.29-.09-1.13-.34-2.25-.71-3.37-1.09-.4-.14-.81-.28-1.21-.42-.19-.06-.39-.13-.58-.2-.19-.07-.38-.14-.58-.2-.24-.08-.48-.17-.71-.26-.2-.07-.4-.15-.61-.22-.2-.08-.41-.15-.61-.23-.52-.19-1.05-.4-1.57-.6-.21-.08-.43-.17-.64-.26,0,0-.02,0-.03,0-.32-.13-.65-.26-.97-.39-.44-.18-.87-.36-1.3-.54-.19-.08-.37-.16-.55-.24-.56-.23-1.1-.48-1.66-.72-.45-.19-.89-.39-1.34-.6-.37-.16-.73-.33-1.1-.5-.65-.31-1.3-.62-1.95-.93-.39-.19-.78-.39-1.16-.58-.39-.19-.79-.39-1.18-.59-1.16-.6-2.32-1.21-3.47-1.84-.42-.24-.84-.47-1.26-.71-.5-.28-1-.57-1.5-.86-.19-.11-.38-.23-.57-.34-.27-.16-.54-.32-.81-.48-.22-.13-.44-.27-.66-.41-.25-.15-.51-.3-.76-.46-.11-.07-.21-.13-.32-.2-.37-.23-.73-.45-1.1-.69-.2-.13-.41-.26-.62-.4-.57-.37-1.14-.74-1.71-1.11-.16-.1-.32-.2-.47-.31-.36-.25-.72-.49-1.09-.74-.04-.03-.09-.06-.13-.09-.55-.38-1.1-.77-1.65-1.15-.42-.3-.83-.59-1.25-.89-.45-.33-.9-.66-1.35-.99-.44-.33-.89-.67-1.32-1.01-.04-.03-.07-.06-.11-.08-.41-.32-.82-.63-1.22-.95-.87-.68-1.73-1.37-2.58-2.08-.08-.07-.16-.13-.24-.2-.43-.35-.85-.7-1.27-1.06-.36-.31-.72-.62-1.08-.93-.22-.19-.44-.38-.65-.57-.19-.17-.38-.33-.57-.5-.03-.01-.05-.03-.07-.06-.2-.19-.41-.37-.61-.55-.08-.07-.16-.14-.24-.21-.2-.19-.4-.37-.61-.56-.2-.19-.4-.37-.6-.56-.33-.32-.67-.63-1.01-.94-.33-.32-.66-.63-.99-.95-.25-.24-.49-.48-.74-.72-.15-.15-.3-.3-.45-.45-.04-.04-.08-.08-.12-.13-.24-.23-.48-.46-.71-.7-.13-.13-.26-.27-.4-.41-.06-.06-.13-.13-.19-.2-.48-.5-.96-.98-1.41-1.47l-.02-.02c-.11-.11-.21-.22-.32-.33-.28-.3-.57-.6-.84-.91-.07-.07-.13-.14-.2-.22-.02-.02-.03-.04-.05-.06-.23-.25-.46-.5-.69-.75-.04-.04-.07-.08-.11-.13-.13-.13-.26-.27-.38-.41-.39-.43-.77-.86-1.15-1.29-.14-.16-.28-.32-.42-.48-.38-.44-.76-.88-1.13-1.31-.22-.26-.44-.51-.65-.77-.26-.32-.52-.63-.78-.95-.21-.26-.43-.53-.64-.79-.22-.26-.43-.53-.64-.8-.03-.04-.06-.07-.09-.11-.07-.09-.15-.19-.22-.28-.12-.15-.25-.31-.37-.47-.77-.97-1.53-1.96-2.26-2.96-.06-.08-.12-.17-.18-.25-.39-.52-.77-1.06-1.15-1.59-.22-.31-.44-.61-.65-.92-.1-.13-.19-.26-.28-.39-.23-.33-.47-.67-.7-1.01-.06-.09-.13-.19-.19-.28-.43-.62-.85-1.25-1.27-1.88-.04-.06-.08-.13-.12-.19-.38-.57-.75-1.14-1.11-1.72-.27-.43-.54-.85-.8-1.28-2.31-3.7-4.47-7.54-6.47-11.5C7.73,256.86,2.13,237.09.5,215.67.17,211.37,0,207,0,202.57c0-3.88.13-7.83.38-11.83C5.64,107.24,64.69,0,136.77,0c10.87,0,21.44,2.44,31.57,6.87.12.05.23.1.35.15.12.06.23.11.34.16.24.1.48.2.71.32.94.43,1.87.87,2.8,1.33,1.74.87,3.47,1.79,5.17,2.76.44.26.88.51,1.32.77.54.32,1.07.64,1.6.96,3.71,2.28,7.34,4.81,10.9,7.59.51.39,1.02.79,1.52,1.2.45.36.9.72,1.35,1.09.85.71,1.7,1.42,2.54,2.15.33.29.65.57.97.85.43.38.85.75,1.27,1.13.84.76,1.67,1.53,2.51,2.32.41.39.83.79,1.24,1.19.34.33.68.66,1.02,1,.14.13.28.27.42.4.32.32.64.64.96.96.43.43.86.86,1.28,1.31.41.42.81.84,1.21,1.26.81.84,1.61,1.7,2.4,2.57.25.27.49.54.73.81.31.33.61.68.92,1.03.38.42.76.85,1.12,1.28.26.28.51.58.76.87.39.45.77.9,1.16,1.36,1.54,1.82,3.06,3.7,4.55,5.61.35.44.69.89,1.03,1.33,1.64,2.13,3.25,4.31,4.82,6.53.32.45.64.9.96,1.35.41.59.83,1.18,1.23,1.78,1.22,1.8,2.43,3.62,3.62,5.46.39.62.79,1.23,1.18,1.86.39.63.78,1.25,1.17,1.87.39.63.77,1.25,1.15,1.89.19.31.39.63.58.94.19.32.38.64.57.96.28.47.56.95.83,1.42.28.48.56.96.84,1.44.28.48.55.96.82,1.44.29.49.57.98.83,1.48.73,1.3,1.45,2.62,2.16,3.94.7,1.31,1.39,2.63,2.08,3.95,0,.02.02.03.02.05.33.65.67,1.3,1,1.95.01.04.04.08.06.12.6,1.19,1.19,2.39,1.78,3.6,0,0,0,.02.01.03.39.8.77,1.61,1.16,2.41.16.33.32.67.48,1.01.14.31.29.62.43.93.32.69.64,1.37.95,2.06.32.69.63,1.38.93,2.08.62,1.38,1.22,2.77,1.81,4.17.13.31.26.61.39.91.02.04.03.08.05.12.11.27.22.53.33.8.58,1.4,1.16,2.8,1.72,4.2.28.71.56,1.41.83,2.12.55,1.41,1.09,2.83,1.62,4.24.23.61.45,1.22.68,1.84.05.13.1.26.14.4.25.68.49,1.35.73,2.03.25.71.5,1.42.75,2.14.03.08.06.16.08.24,1.69,4.91,3.25,9.86,4.66,14.81.2.72.4,1.44.6,2.16.09.31.18.62.26.93.08.31.17.61.25.92.13.46.25.92.37,1.37.12.44.23.88.35,1.32.13.47.24.95.36,1.42.06.21.11.43.16.64.18.74.37,1.48.55,2.22.19.77.37,1.54.55,2.31.19.83.38,1.66.56,2.49.11.49.22.98.32,1.47.01.07.03.14.05.21.16.72.31,1.44.45,2.16.13.66.27,1.33.4,2,.13.64.25,1.29.37,1.93,0,.03.01.07.02.1.02.08.03.16.05.24.11.57.21,1.14.31,1.7,0,0,0,.01,0,.02.06.32.12.64.17.97.22,1.24.43,2.48.63,3.72,0,.03,0,.05.01.08.11.69.21,1.36.32,2.04,0,.07.02.14.03.22.04.28.08.57.13.85.04.28.08.56.12.84.04.28.08.57.12.85.15,1.03.28,2.06.41,3.09.05.38.1.76.14,1.13.04.3.07.6.11.9.04.35.08.7.12,1.05.06.53.12,1.06.18,1.58.15,1.45.29,2.89.41,4.32.05.63.1,1.27.15,1.91.02.3.05.6.07.9.02.3.04.6.06.9,0,.09.01.18.02.26,0,.1,0,.19.02.29.04.59.07,1.17.1,1.76.04.7.07,1.39.1,2.07.03.67.06,1.34.07,2,.01.33.02.66.04.99,0,.33.02.66.02.99v.05c.01.67.03,1.33.03,1.99,0,.67.01,1.33.01,1.99Z"/><path class="cls-1" d="M116.19,122.58c.13-2.19.14-4.39-.14-6.58-.64-4.99-3.17-10.04-8.58-11.27-5-1.14-10.6.72-13.2,5.37-2.17,3.88-3.65,8.2-4.75,12.66-.51.86-.86,1.84-.99,2.91-.01,0-.03.02-.04.02.02,0,.03,0,.04-.01,0,.04,0,.07,0,.11-.39.16-.91.37-1.55.62-1.15.62-2.08,1.47-2.78,2.55-1.14,1.48-1.85,3.23-2.39,5.02-.85,2.78-1.29,6.16-1.48,9.03-.36,5.42.41,11.11,1.47,16.41.03,0,.06-.02.09-.02.49,1.66,1.41,3.14,2.64,4.29-.09,1.9-.16,3.79-.22,5.69-.17,5.82,3.83,11.22,9.02,13.41,4.99,2.11,12.32,1.45,16.02-3.03.39-.47.77-.95,1.14-1.43.46-.05.92-.12,1.4-.23.03,0,.05-.02.08-.02,4-.13,8.13-3.37,9.02-7.29.65-2.86.12-6.34-1.69-8.8,1.16-3.54,1.95-7.26,2.39-11.21,1.08-9.77-1.21-19.44-5.48-28.19Z"/><path class="cls-1" d="M135.17,211.3c-.81-3.05-2.04-6-3.19-8.94-1.81-4.63-4.13-6.99-8.21-9.58-4.69-2.98-9.79.21-11.57,4.71-1.51,3.8-1.88,7.07-.8,11.16.76,2.86,1.42,5.75,2.47,8.52,2.05,5.38,7.54,9.67,13.59,7.71,5.74-1.86,9.31-7.6,7.72-13.59Z"/><path class="cls-1" d="M150.14,230.13c-.28-.48-.64-.93-.95-1.38-.63-.92-1.26-1.84-1.9-2.76-1.48-2.16-4.01-3.19-6.51-2.13-2.26.96-3.85,3.67-3.02,6.15.96,2.83,1.66,7.04,4.61,8.35,1.71.76,3.24,1.03,5.02.28,1.55-.66,2.86-1.96,3.26-3.65.4-1.69.37-3.31-.52-4.85Z"/><path class="cls-1" d="M141.76,195.99c-.41-1.06-.84-2.11-1.38-3.11-1.14-2.13-4.51-2.13-5.65,0-.54,1.01-.97,2.05-1.38,3.11-.53,1.37.07,3.28,1.12,4.24.85.78,1.9,1.28,3.09,1.28,1.12,0,2.29-.49,3.08-1.28,1.02-1.02,1.67-2.83,1.12-4.24Z"/><path class="cls-1" d="M132.31,169.92c-4.68,0-4.69,7.27,0,7.27s4.69-7.27,0-7.27Z"/><path class="cls-1" d="M176.04,133.18c-.93-3.36-3.46-6.17-6.69-7.44-.02,0-.04-.02-.06-.02-.3-.21-.6-.43-.91-.63-.75-.32-1.5-.63-2.25-.95-1.25-.39-2.5-.45-3.75-.17-1.97.26-4.02,1.07-5.4,2.59-2.06,2.26-3.45,5.02-3.33,8.17.11,2.7.76,4.67,1.92,7.08,1.67,3.47,5.97,5.55,9.67,5.55s6.66-1.65,8.79-4.41c2.16-2.8,2.96-6.29,2-9.76Z"/><path class="cls-1" d="M182.12,159.64c-7.8,0-7.81,12.12,0,12.12s7.81-12.12,0-12.12Z"/><path class="cls-1" d="M202.65,191.91c0-2.81-4.36-2.81-4.36,0,0,1.96-.1,3.83.43,5.73.48,1.73,3.03,1.73,3.51,0,.53-1.9.43-3.77.43-5.73Z"/><path class="cls-1" d="M257.85,200.65c-.95-6.21-2.56-13.17-5.91-18.54-1.7-2.73-3.76-6.01-6.05-8.22-2.46-2.1-3.06-2.51-1.8-1.23-.93-.81-1.9-1.58-2.9-2.3-1.49-.91-3.26-1.57-5.03-1.69-4.72-.94-10.36,1.98-10.1,7.43-.25,1.02-.37,2.07-.32,3.12.05,1.04.32,2.06.48,3.08,0,.42.14,2.62.2,2.92.63,3.01,1.35,6.15,2.14,9.11.75,2.83,1.42,5.62,2,8.49.07,1.11.24,2.23.39,3.33.63,4.72,3.52,8.52,7.75,10.68,5.26,2.69,10.02,1.61,14.46-1.87.38-.29.75-.59,1.13-.88,4.06-3.18,4.25-8.9,3.55-13.44Z"/><path class="cls-1" d="M244.39,253.79c-2.78-1.17-6.97-.31-8.32,2.73-.32.71-.64,1.42-.95,2.13-.71,1.63-.89,2.83-1.12,4.6-.19,1.53-.2,2.96-.14,4.49.08,2.15,1.27,4.03,3.28,4.87,1.8.76,4.49.53,5.82-1.1,2.52-3.1,4.38-5.92,5.29-9.86.75-3.26-.74-6.55-3.86-7.86Z"/><path class="cls-1" d="M19.17,236.11c-4.47,1.44-9.21-1.04-11.63-4.74-2.96-4.52-4.86-9.34-5.02-14.72-.21-.06-.41-.14-.62-.23-.5-.22-.97-.47-1.4-.75-.33-4.3-.5-8.67-.5-13.1,0-3.88.13-7.83.38-11.83,1.71-3.22,6.39-4.01,9.35-2.28,2.55,1.49,3.47,4.01,3.22,6.59.81-.17,1.68-.22,2.62-.1,3.88.46,6.4,3.72,6.62,7.5.06.94.14,1.64.3,2.35,3.85,5.93,3.77,14.83,4.25,21.39.34,4.61-3.46,8.6-7.56,9.93Z"/><path class="cls-1" d="M54.5,222.53c-1.49-1.49-3.94-2.62-6.08-2.52-4.66.21-8.6,3.78-8.6,8.6,0,1.21-.06,2.43.04,3.63.18,2.15.73,4.05,2.08,5.8,1.48,1.92,3.96,3.4,6.48,3.29,2.23-.1,4.2-.95,5.83-2.45,1.46-1.34,2.31-3.55,2.57-5.5.22-1.6.2-3.16.2-4.77,0-2.21-.96-4.52-2.52-6.08Z"/><path class="cls-1" d="M26.25,169.87c-1.56-.43-3.52-.27-5.2.44,1.14-6.01,1.92-11.75,2.19-17.9.19-4.22-6.21-6.08-8.13-2.2-2.82,5.7-5,11.25-6.95,17.3-1.32,4.1-2.84,13.48,2.87,15.13,1.83.53,3.42-.05,4.76-1.22-.27,2.54-.31,5.12-.38,7.77-.08,3.1,2.45,5.83,5.46,6.19,3.35.4,5.69-1.52,6.91-4.51,1.82-4.46,3.92-8.83,3.98-13.75.04-3.29-2.36-6.38-5.52-7.25Z"/><path class="cls-1" d="M57.77,300.99c-.48,1.32-1.14,2.54-1.95,3.58-3.07,3.97-8.98,6.38-14.06,5.14-.19-.18-.36-.36-.53-.54-.39-.41-.78-.81-1.17-1.22-.77-.81-1.53-1.64-2.28-2.47-.39-.43-.77-.86-1.14-1.29-.37-.42-.74-.85-1.11-1.27-.37-.43-.73-.86-1.09-1.29-.36-.43-.71-.86-1.06-1.29-2.17-2.65-4.24-5.39-6.22-8.22-.3-.43-.6-.86-.9-1.29-3.57-5.23-6.84-10.77-9.76-16.56.96-4.33,4.28-8.23,8.24-9.9,6.22-2.62,13.51-.27,17.01,5.57.82,1.38,1.71,2.73,2.44,4.16.22.38.41.76.59,1.15,1.03,1.58,2.1,3.13,3.13,4.76.16.18.3.37.46.55.57.65,1.15,1.29,1.76,1.92.31.32.63.63.96.94,1.18,1.11,2.39,2.18,3.67,3.21,4.19,3.35,4.79,9.51,3.02,14.37Z"/><path class="cls-1" d="M92.12,277.98s.07-.05.1-.08c3.36-2.3,4.97-6.48,3.27-10.33-1.5-3.41-5.97-6.48-9.86-4.84-6.2,2.61-10.96,7.44-11.99,14.33-.59,3.95-.17,8.19,2.81,11.17,2.14,2.14,5.17,3.02,8.09,3.3,2.34.22,5.01-1.92,5.49-4.18.03-.15.05-.26.07-.35.07-.07.18-.23.36-.57,1.22-2.24,1.37-4.56,1.33-7.05,0-.08,0-.17.02-.25-.02.05-.03.09-.05.14,0-.03.03-.08.05-.15.05-.37.18-.72.22-.75.01-.05.03-.1.04-.15.05-.09.1-.19.15-.28-.03.02-.06.04-.1.06,0,0,0,0,0,0Z"/><path class="cls-1" d="M92.22,277.92c.04.17.84-.53,0,0h0Z"/><path class="cls-1" d="M91.81,279.13c.21-.6.25-.8.22-.77-.07.26-.16.57-.22.75,0,0,0,.01,0,.02Z"/><path class="cls-1" d="M121.85,311.97c-1.3-.08-2.5.06-3.7.33-2.05-.2-4.13.2-5.92,1.29-.92.56-1.8,1.2-2.7,1.8-2.17,1.45-3.76,3.8-4.25,6.32-.36-.3-.73-.58-1.14-.82-.42-.2-.84-.41-1.25-.61-1.44-.83-2.99-1.25-4.65-1.26-1.66,0-3.21.42-4.65,1.26-2.8,1.64-4.56,4.71-4.56,7.95s1.76,6.31,4.56,7.95c1.44.83,2.99,1.25,4.65,1.26,1.66,0,3.21-.42,4.65-1.26.42-.2.84-.41,1.25-.61,1.28-.76,2.29-1.77,3.05-3.05.53-.92.87-1.9,1.04-2.92,2.81,2.38,6.96,3.26,10.23,1.07.98-.66,1.99-1.28,2.95-1.97,2.06-1.47,3.27-3.17,3.94-5.21.15-.19.3-.36.45-.55.83-1.07,1.23-2.34,1.67-3.61,1.3-3.79-2.08-7.14-5.61-7.36Z"/><path class="cls-1" d="M189.65,274.15c-2.56-3.88-6.4-6.45-10.63-7.15-2.74-1.67-7.33-1.83-9.95.12-8.88,6.61-8.93,18.27-9,28.37-.09,14.32,20.06,20.02,27.16,7.36.33-.6.64-1.2.94-1.8,2.22-1.71,3.92-4.05,4.53-6.9,1.51-7.05,1.02-13.82-3.05-20Z"/><path class="cls-1" d="M241.66,298.46c-.26.34-.53.68-.8,1.01-.33.41-.66.82-1,1.22-.33.41-.67.82-1.01,1.22-.7.84-1.41,1.67-2.13,2.48-.67.76-1.35,1.51-2.03,2.25-.36.39-.71.77-1.07,1.15-.33.35-.67.71-1,1.06-.07.06-.13.13-.2.2-.32.33-.65.66-.97,1-1.1,1.12-2.22,2.22-3.35,3.28-.38.36-.76.71-1.14,1.07-.38.35-.77.71-1.15,1.05-.77.71-1.55,1.4-2.34,2.07-1.18,1.02-2.38,2.02-3.59,2.99-2.42,1.96-4.91,3.82-7.46,5.59-.85.6-1.7,1.18-2.57,1.74-.43.28-.87.57-1.3.85-.87.57-1.75,1.12-2.63,1.65-.44.27-.88.54-1.33.8-.87.52-1.75,1.03-2.63,1.53-1.37.77-2.75,1.52-4.15,2.25-.36.19-.73.38-1.1.57-.15.07-.3.15-.46.23-.14.07-.27.14-.41.21-.13-.06-.25-.13-.36-.21-.3.28-.6.56-.9.83-.32.16-.62.31-.93.45-.47.22-.94.44-1.41.66-.44.2-.88.4-1.33.6l-.18.08c-.38.17-.76.33-1.13.5-1.15.5-2.3.98-3.46,1.44-.34.13-.68.27-1.02.4-.04.01-.07.03-.11.04-.86.34-1.72.66-2.58.98-1.87-.19-3.6-.9-5.05-1.97.45,1.09.64,2.3.59,3.51-.45.15-.91.29-1.36.44-.31.1-.62.19-.93.28-1.18.36-2.38.71-3.57,1.03-.32.09-.64.18-.95.26-.43.12-.85.23-1.28.33-.41.11-.83.21-1.24.31-.51.12-1.03.25-1.54.37-2.05.48-4.12.91-6.21,1.29-.57.11-1.13.2-1.7.3-2.85-3.02-4.27-7.05-4.29-11.13-.03-3.65,1.06-7.35,3.21-10.45.84-1.21,1.84-2.33,3-3.31,3.6-3.05,8.87-2.17,11.32,1.01,1.22,1.56,1.74,3.7,1.03,6.18-.09.3-.14.5-.19.64-.01.11-.01.21-.01.31.05.18.1.35.15.52.02.07.04.14.06.21,0,.01.01.03.02.05,0-.1.01-.2.02-.3.11-1.28.52-2.58,1.3-3.85,1.29-2.12,2.77-3.76,4.44-5.13.29-.48.6-.95.92-1.4,2.23-3.12,5.21-5.72,8.36-7.8,2.6-1.73,5.26-1.6,7.41-.44.4.21.78.47,1.14.75,1.43-.54,2.89-1.05,4.37-1.48.46-1.41.94-2.89,1.58-4.28,1-2.18,2.38-4.14,4.65-5.33.81-.41,1.65-.68,2.51-.78.48-.06.97-.07,1.45-.03-.14-.26-.27-.53-.39-.82,0-.04-.03-.07-.04-.11-.43-1.02-.8-2.02-1.16-3.06,0,0-.45-1.22-.6-1.66-.23-.48-.65-1.35-.71-1.48-.46-.96-.87-1.94-1.21-2.95-.11-.29-.16-.44-.16-.46.03.03.11.21.25.53-.46-1.29-.92-2.57-1.38-3.86-.23-.67-.47-1.35-.71-2.04-1.08-3.15.51-6.71,2.95-8.66,2.42-1.93,5.21-2.05,7.92-1.13.41.13.83.3,1.23.48,3.45,1.58,6.29,3.92,8.44,6.89.87,1.19,1.61,2.48,2.24,3.86.67,1.48,1.34,2.96,1.85,4.49.24.71.45,1.41.61,2.14,1.39-1.04,3.06-1.55,4.99-1.31,2.39.28,5.37,2.32,5.75,4.94.04.27.08.55.12.83Z"/><path class="cls-1" d="M249.7,120.47s-.03-.1-.05-.14c.02.03.04.05.06.07-.02-.03-.04-.06-.07-.1-.05-.14-.1-.28-.16-.42.76-3.3-1.71-7.19-4.98-7.94-3.86-.88-7.21,1.17-8.5,4.83-.95,2.71-.52,6.04.89,8.53,1.59,2.82,4.85,4.62,8.12,4.36,2.37-.19,4.36-1.31,5.32-3.58.82-1.94.49-3.93-.63-5.6Z"/><path class="cls-1" d="M249.7,120.4c.14.19.21.26,0,0h0Z"/><path class="cls-1" d="M273.53,202.57c0,2.38-.05,4.74-.15,7.08-.73-.54-1.39-1.24-1.94-2.14-.32-.52-1.35-1.98-1.49-2.75-.03-.01-.04-.03-.06-.05-.74-.95-1.48-1.91-2.21-2.87-1.43-2.39-2.27-5.45-2.95-8.17-.55-2.2-.99-4.41-1.68-6.58-.35-1.08-.79-2.13-1.13-3.2-.03-.06-.05-.1-.06-.15-.15-.32-.29-.65-.44-.97-1.95-4.14-4.17-7.99-6.4-11.97-2.27-4.07-4.45-7.79-7.08-10.79-2.21-2.53-2.93-6.1-1.17-9.11,1.55-2.66,5.43-4.64,8.48-3.45,4.45,1.73,8.67,3.86,12.49,6.5.08.34.15.69.23,1.03.13.56.25,1.13.37,1.69.16.72.3,1.44.45,2.15.14.67.27,1.33.41,2,.57,2.91,1.09,5.8,1.55,8.68.12.71.23,1.42.33,2.13.06.36.11.7.16,1.06.08.56.16,1.12.24,1.69.29,2.07.55,4.12.78,6.17.06.54.12,1.07.17,1.6.15,1.45.28,2.88.41,4.32.05.63.1,1.27.15,1.91.05.59.09,1.2.12,1.79.02.19.03.37.04.56.04.59.07,1.17.1,1.76.04.69.07,1.38.1,2.07.03.67.06,1.33.08,1.99.03.67.05,1.33.06,1.99v.05c.01.67.03,1.32.03,1.98,0,.67.01,1.32.01,1.99Z"/><path class="cls-1" d="M270.5,234.55c-2.2,11.34-5.55,22.08-9.93,32.14-1.42-3.59-1.45-8.11-1.36-11.67.14-6.11,2.6-11.76,5.59-17.01,1.22-2.15,3.41-3.33,5.7-3.46Z"/><path class="cls-2" d="M164.76,160.87c-11.88,56.39-54.31,93.1-95.86,87.22-29.16-4.12-50.15-28.12-55.96-61.56-2.47-14.21-2.2-30.12,1.34-46.93C26.15,83.21,76.33,9.66,117.89,15.54c22.25,3.15,37.52,28.43,45.07,59.9,6.56,27.29,7.31,59.24,1.79,85.44Z"/><path class="cls-2" d="M273.53,202.56c0,.66,0,1.33-.01,1.99,0,.35,0,.71-.01,1.06,0,.24,0,.48-.01.72,0,.52-.02,1.04-.04,1.56-.03,1.13-.07,2.25-.13,3.36-.03.53-.06,1.06-.09,1.6-.03.53-.06,1.06-.1,1.59-.06.93-.13,1.86-.21,2.79-.03.36-.06.73-.1,1.09-.04.5-.09.99-.14,1.49,0,.13-.02.25-.04.38-.01.13-.03.27-.04.4-.05.46-.1.91-.15,1.37-.05.46-.11.92-.16,1.38-.09.71-.18,1.43-.27,2.14-.08.58-.16,1.16-.25,1.74-.09.61-.18,1.22-.28,1.84-.09.54-.18,1.09-.27,1.63-.06.39-.13.79-.2,1.18s-.14.79-.21,1.18c-.09.51-.19,1.01-.29,1.51-.12.62-.24,1.24-.37,1.86-.03.19-.07.38-.12.56-.11.54-.23,1.08-.35,1.61-.37,1.67-.76,3.32-1.18,4.96-.1.4-.2.8-.31,1.19-.04.17-.09.33-.13.5-.11.42-.22.84-.34,1.26-.08.3-.17.6-.25.9-.04.13-.07.25-.11.37-.28,1-.58,1.99-.88,2.97-.17.54-.33,1.07-.51,1.61-.17.53-.34,1.07-.52,1.6-.18.53-.35,1.06-.53,1.59-.36,1.05-.74,2.11-1.12,3.15-.19.51-.37,1.01-.57,1.51,0,.02-.01.05-.03.07-.17.45-.34.9-.52,1.35-.06.16-.12.31-.19.47-.16.42-.33.83-.5,1.25-.77,1.91-1.58,3.78-2.42,5.64-.28.62-.56,1.23-.85,1.84-.08.19-.17.38-.26.56-.22.46-.44.93-.67,1.39-.13.27-.27.55-.41.83-.55,1.1-1.11,2.2-1.68,3.28-.17.32-.33.63-.5.94-.14.26-.28.53-.43.79-.18.33-.35.65-.54.98-.26.47-.52.94-.79,1.41-.21.37-.42.73-.63,1.09-.27.46-.54.92-.81,1.38-.34.57-.68,1.13-1.03,1.69-.32.52-.64,1.04-.97,1.56-.25.38-.49.77-.74,1.16-.58.9-1.17,1.79-1.77,2.67-.28.41-.56.82-.84,1.22-.07.09-.13.19-.2.29-.26.37-.52.74-.78,1.1-.32.46-.65.91-.98,1.36-.3.4-.59.81-.9,1.21-.32.43-.64.85-.96,1.27-.38.5-.77.99-1.15,1.48-.26.34-.53.68-.8,1.01-.33.41-.66.82-1,1.22-.33.41-.67.82-1.01,1.22-.7.84-1.41,1.67-2.13,2.48-.67.76-1.35,1.51-2.03,2.25-.36.39-.71.77-1.07,1.15-.33.35-.67.71-1,1.06-.07.06-.13.13-.2.2-.32.33-.65.66-.97,1-1.1,1.11-2.22,2.21-3.35,3.28-.38.36-.76.71-1.14,1.07-.38.35-.77.71-1.15,1.05-.77.7-1.55,1.39-2.34,2.07-1.18,1.02-2.38,2.01-3.59,2.99-2.43,1.95-4.91,3.82-7.46,5.59-.85.59-1.7,1.17-2.57,1.74-.43.28-.87.57-1.3.85-.87.56-1.75,1.11-2.63,1.65-.44.27-.88.54-1.33.8-.87.52-1.75,1.03-2.63,1.53-1.37.77-2.75,1.52-4.15,2.25-.36.19-.73.38-1.1.57-.15.07-.3.15-.46.23-.14.07-.28.14-.42.21-.26.13-.53.26-.8.39-.15.07-.31.15-.46.22-.31.15-.62.3-.93.45-.47.22-.94.44-1.41.66-.44.2-.88.4-1.33.6l-.18.08c-.38.17-.76.33-1.13.5-1.15.5-2.3.98-3.46,1.44-.34.13-.68.27-1.02.4-.04.01-.07.03-.11.04-.86.34-1.73.66-2.6.98-1.06.39-2.13.77-3.21,1.13-.41.14-.82.27-1.23.41-.45.15-.91.29-1.36.44-.31.1-.62.19-.93.28-1.18.36-2.38.71-3.57,1.03-.32.09-.64.18-.95.26-.43.12-.85.23-1.28.33-.41.11-.83.21-1.24.31-.51.12-1.03.25-1.54.37-2.05.48-4.12.91-6.21,1.29-.57.1-1.13.2-1.7.3-.48.08-.96.16-1.44.24-1.39.22-2.8.42-4.2.59-.39.05-.78.1-1.17.14-.51.06-1.03.12-1.54.17-.44.05-.88.09-1.32.13-1.4.13-2.8.25-4.21.33-.29.02-.58.04-.88.05-.28.02-.57.04-.85.05-.4.02-.81.04-1.21.06-.43.02-.87.03-1.3.05-.95.03-1.9.05-2.85.06-.47,0-.95,0-1.43,0-.72,0-1.43,0-2.15-.02-.29,0-.59,0-.88-.01-.28,0-.57-.02-.85-.03-.32,0-.64-.02-.96-.03-.56-.01-1.1-.04-1.65-.07-.65-.03-1.3-.06-1.95-.11-.53-.03-1.06-.06-1.58-.11-.29-.02-.58-.04-.86-.06-.75-.06-1.5-.13-2.24-.2-.29-.03-.58-.06-.88-.09-.08,0-.17-.02-.25-.03-.36-.04-.71-.08-1.07-.12-.36-.04-.72-.08-1.08-.13-1.13-.14-2.26-.29-3.39-.45-1.12-.17-2.24-.34-3.35-.54-.56-.1-1.12-.2-1.68-.31-.8-.15-1.6-.31-2.39-.47-.4-.08-.8-.17-1.19-.25-.06-.01-.12-.02-.17-.04-.03,0-.06-.01-.08-.02-1.3-.28-2.59-.59-3.87-.91-.16-.04-.32-.08-.48-.12-.31-.08-.62-.16-.94-.24-.31-.08-.63-.17-.94-.25-.31-.08-.61-.17-.92-.25-.14-.04-.29-.08-.44-.13-.4-.11-.79-.23-1.19-.34-.54-.15-1.09-.32-1.62-.48-.1-.03-.19-.06-.29-.09-1.13-.35-2.25-.71-3.37-1.09-.4-.14-.81-.28-1.21-.42-.19-.06-.39-.13-.58-.2-.19-.07-.38-.14-.57-.21-.24-.08-.48-.17-.72-.26-.2-.07-.41-.14-.61-.22-.2-.08-.41-.15-.61-.23-.45-.17-.89-.34-1.33-.51-.29-.12-.58-.23-.87-.35,0,0-.02,0-.03,0-.3-.12-.6-.24-.9-.36-.02,0-.05-.02-.07-.03-.44-.18-.87-.36-1.3-.54-.19-.08-.37-.16-.55-.24-.56-.23-1.1-.48-1.66-.72-.45-.19-.89-.39-1.34-.6-.37-.16-.73-.33-1.1-.5-.65-.31-1.3-.62-1.95-.93-.39-.19-.78-.39-1.16-.58-.39-.19-.79-.39-1.18-.59-1.16-.6-2.32-1.21-3.47-1.84-.42-.24-.84-.47-1.26-.71-.42-.24-.84-.48-1.26-.72-.27-.16-.54-.32-.82-.48-.27-.16-.54-.32-.81-.48-.58-.35-1.16-.7-1.74-1.06-.58-.36-1.15-.72-1.72-1.09-.57-.37-1.14-.74-1.71-1.11-.52-.34-1.04-.7-1.56-1.05-.04-.03-.09-.06-.13-.09-.55-.38-1.1-.77-1.65-1.15-1.11-.79-2.22-1.6-3.31-2.43-.2-.15-.4-.3-.61-.46-.04-.03-.07-.06-.11-.08-.19-.15-.39-.31-.59-.46-1.09-.83-2.16-1.69-3.22-2.57-.08-.07-.16-.13-.24-.2-.43-.35-.85-.7-1.27-1.06-.36-.31-.72-.62-1.08-.93-.22-.19-.44-.38-.65-.57-.19-.17-.38-.33-.57-.5-.23-.2-.45-.4-.68-.61-.08-.07-.16-.14-.24-.21-.2-.19-.4-.37-.61-.56-.2-.19-.4-.37-.6-.56-.33-.32-.67-.63-1.01-.94-.33-.32-.66-.63-.99-.95-.25-.24-.49-.48-.74-.72-.15-.15-.3-.3-.45-.45-.41-.41-.82-.82-1.23-1.23-.06-.06-.13-.13-.19-.2-.48-.5-.96-.98-1.41-1.47l-.02-.02c-.39-.41-.78-.83-1.16-1.24-.07-.07-.13-.14-.2-.22-.02-.02-.03-.04-.05-.06-.01-.02-.03-.04-.06-.06-.21-.23-.42-.46-.63-.69-.04-.04-.07-.08-.11-.13-.18-.19-.35-.39-.52-.58-.34-.37-.67-.75-1-1.13-.14-.16-.28-.32-.42-.48-.38-.44-.76-.88-1.13-1.31-.48-.57-.96-1.15-1.43-1.72-.21-.26-.43-.53-.64-.79-.22-.26-.43-.53-.64-.8-.03-.04-.06-.07-.09-.11-.07-.09-.15-.19-.22-.28-.12-.15-.25-.31-.37-.47-.19-.25-.39-.51-.58-.76-.42-.54-.83-1.09-1.24-1.63-.14-.19-.29-.38-.44-.57-.06-.08-.12-.17-.18-.25-.2-.28-.4-.56-.6-.84-.19-.25-.37-.5-.55-.76-.22-.31-.44-.61-.65-.92-.32-.46-.65-.93-.98-1.4-.06-.1-.13-.19-.2-.29-.42-.62-.84-1.24-1.25-1.86-.04-.06-.08-.13-.12-.19-.38-.57-.75-1.14-1.11-1.72-.27-.43-.54-.85-.8-1.28.48.25.96.49,1.44.72.19.26.38.51.57.75.03.03.06.07.09.11.42.55.85,1.09,1.28,1.63.47.59.95,1.18,1.43,1.76.37.45.75.9,1.13,1.35.47.56.94,1.1,1.42,1.64.42.49.85.96,1.27,1.43.04.04.07.07.11.11.46.51.92,1.01,1.39,1.52.46.5.93.99,1.41,1.5.47.49.95.97,1.42,1.46.39.4.79.79,1.19,1.19.66.65,1.33,1.3,2,1.94.4.39.81.76,1.21,1.14.49.45.99.9,1.48,1.35,2.1,1.9,4.25,3.72,6.45,5.46.44.35.87.7,1.31,1.03,1.09.85,2.19,1.68,3.31,2.49.55.39,1.1.79,1.65,1.18,2.25,1.57,4.52,3.07,6.85,4.5.54.33,1.09.65,1.63.98,3.34,1.99,6.77,3.82,10.28,5.5.37.17.73.35,1.1.52.45.21.89.42,1.34.62.55.25,1.1.51,1.66.74.61.27,1.23.54,1.86.79.02.01.05.03.07.03.6.25,1.2.5,1.8.74.45.18.89.35,1.33.52.41.16.81.32,1.22.46.24.09.48.19.72.27.38.15.77.29,1.15.42,1.61.58,3.23,1.13,4.87,1.65.54.17,1.08.33,1.62.49.39.12.79.24,1.19.35.45.13.9.26,1.36.38.63.18,1.25.34,1.87.5,1.47.38,2.95.75,4.44,1.08.45.1.9.2,1.36.29.79.17,1.59.33,2.39.49.56.1,1.12.21,1.68.31,2.23.4,4.47.74,6.74,1.03.36.05.71.09,1.08.12.44.05.88.11,1.32.15,1.84.2,3.7.36,5.56.47.65.05,1.29.08,1.95.12.55.02,1.09.05,1.65.06.32,0,.64.02.97.03.57.03,1.15.04,1.73.05.72.01,1.43.02,2.15.02,8.69,0,17.19-.84,25.42-2.48,6.34-1.25,12.52-2.96,18.51-5.11.04-.01.07-.03.11-.04,21.93-7.88,41.35-21.59,56.68-39.72,19.03-22.5,31.76-51.83,35.14-85.32.6-5.89.9-11.91.9-18.05,0-.68,0-1.35-.01-2.04,0-.67-.02-1.35-.03-2.03v-.05c0-.68-.03-1.35-.06-2.04-.02-.67-.05-1.36-.08-2.04-.02-.71-.06-1.41-.1-2.12-.03-.6-.06-1.2-.1-1.8-.01-.2-.03-.39-.04-.59-.04-.6-.08-1.21-.13-1.81-.05-.65-.1-1.31-.15-1.95-.12-1.47-.26-2.95-.41-4.43-.06-.55-.12-1.09-.17-1.63-.33-3.02-.72-6.07-1.18-9.14-.1-.69-.2-1.39-.32-2.09-.25-1.63-.52-3.25-.82-4.88-.1-.59-.2-1.18-.32-1.77-.01-.07-.02-.16-.05-.24-.38-2.12-.8-4.23-1.25-6.34-.3-1.42-.61-2.85-.93-4.28-.36-1.57-.73-3.15-1.11-4.73-.17-.67-.33-1.35-.5-2.02-1.31-5.17-2.76-10.36-4.37-15.51-.22-.71-.45-1.41-.67-2.12-.23-.74-.47-1.48-.71-2.2-.24-.73-.49-1.46-.73-2.19-.74-2.19-1.5-4.38-2.29-6.55-1.05-2.91-2.15-5.79-3.29-8.66-.07-.19-.15-.36-.22-.54.39.8.77,1.61,1.16,2.41.16.33.32.67.48,1.01.14.31.29.62.44.93.32.69.64,1.37.95,2.06.32.69.63,1.38.93,2.08.62,1.38,1.22,2.77,1.81,4.16.13.31.26.62.39.92.02.04.03.08.05.12.14.35.29.7.44,1.05.29.7.58,1.4.87,2.1.25.62.5,1.23.75,1.86.28.71.56,1.41.83,2.12.55,1.41,1.09,2.82,1.62,4.24.03.08.06.16.09.24.2.53.39,1.06.58,1.6.05.13.1.26.14.4.25.68.49,1.35.73,2.03.25.71.5,1.42.75,2.14.03.08.06.16.08.24.25.71.49,1.42.73,2.14.24.71.48,1.43.71,2.15.23.69.45,1.38.67,2.07.09.29.18.59.27.88.07.23.14.45.21.68.72,2.29,1.41,4.59,2.06,6.89.3,1.03.58,2.06.86,3.09.21.77.41,1.53.61,2.3.12.44.23.88.35,1.32.13.47.24.95.36,1.42.05.18.09.36.14.55.19.77.38,1.54.57,2.31.19.77.37,1.54.55,2.31.19.83.38,1.66.56,2.49.11.49.22.98.32,1.47.01.07.03.14.05.21.16.72.31,1.44.45,2.16.13.66.27,1.33.4,2,.13.64.25,1.29.37,1.93,0,.03.01.07.02.1.02.08.03.17.05.24.11.57.21,1.14.31,1.7,0,0,0,.01,0,.02.06.32.12.64.17.97.23,1.24.44,2.48.63,3.72,0,.03,0,.05.01.08.11.68.21,1.36.32,2.04,0,.07.02.14.03.22.09.57.17,1.13.25,1.69.04.28.08.57.12.85.15,1.03.29,2.07.41,3.09.05.38.1.76.14,1.13.04.3.07.6.11.9.04.35.08.7.12,1.04.06.53.12,1.06.17,1.59.15,1.45.29,2.89.41,4.32.05.63.1,1.27.15,1.91.02.3.05.6.07.9.02.29.04.58.06.87,0,.1,0,.19.02.29,0,.1,0,.19.02.29.04.59.07,1.17.1,1.76.04.7.07,1.39.1,2.07.03.67.06,1.34.08,1.99,0,.33.02.67.03,1,0,.33.02.66.02.99v.05c.01.67.03,1.33.03,1.99,0,.67.01,1.33.01,1.99Z"/><path class="cls-6" d="M149.18,256.01c-3.94-.18-6.58,2.59-9.33,4.96-.93.8-1.76,1.61-2.51,2.58-1.13,1.46-1.61,2.87-2.26,4.58-1.4,3.69,2.27,8.62,6.25,8.2,1.41-.15,2.8-.14,4.15-.63,1.49-.54,2.78-1.28,4.08-2.16,2.97-2.04,6.32-3.83,7.15-7.67,1.1-5.1-2.27-9.63-7.52-9.88Z"/><path class="cls-6" d="M170.52,257.34c-.39-.61-.9-1.06-1.56-1.34-1.52-.64-3.2-.05-4.08,1.34-.11.17-.23.34-.33.51-.35.63-.46,1.3-.5,2.02l-.03.54c-.03.61.14,1.18.42,1.72.26.52.79.9,1.31,1.12.6.26,1.13.25,1.78.14.77-.13,1.39-.77,1.98-1.26.71-.58,1.01-1.45,1.34-2.27.28-.71.07-1.9-.33-2.52Z"/><path class="cls-6" d="M125.62,261.95c-.23-1.66-2.29-3.03-3.88-2.96-1.83.08-3.27,1.19-3.87,2.91-.03.05-.05.1-.08.15-.09.14-.17.28-.24.42-.16.39-.28.68-.36.85.04-.09.09-.23.16-.4-.08.07-.31.43-.43.67-.07.07-.14.15-.22.21-1.67,1.55-1.68,4.6,0,6.14,1.85,1.7,4.29,1.58,6.14,0,.9-.76,1.68-1.76,2.2-2.82.88-1.77.83-3.32.57-5.2Z"/><path class="cls-6" d="M178.87,43.65c-2.23-.66-4.23,1.14-4.34,3.31-.02.2-.02.31-.02.35-.07.39-.13.78-.16,1.17-.03.49,0,.96,0,1.45,0,.22-.01.43-.03.64.05-1.14-.02-.85-.19.88-.04.96.16,1.89.31,2.84.45,2.77,3.69,4.39,6.21,4.05,3-.4,4.55-2.72,4.91-5.56.51-4.09-2.94-8.02-6.67-9.13Z"/><path class="cls-6" d="M197.29,64.53c-1.01-1.3-2.77-2.23-4.38-2.52-1.31-.24-2.81.15-3.48,1.42-.6,1.13-.59,2.85.48,3.73.18.15.34.31.52.47.09.16.19.31.27.46.07.16.16.38.29.68,0-.01,1.06,1.21,1.22,1.41-.32-.42-.31-.41.03.03.24.37.56.66.95.88.15.08.3.14.45.22,1.05.56,2.59.52,3.43-.44.76-.87,1.26-1.74,1.23-2.94-.03-1.22-.27-2.42-1.03-3.4Z"/><path class="cls-6" d="M192.22,70.18s.01.02.02.03c0,0,0-.01-.02-.03Z"/><path class="cls-6" d="M159.01,77.74c-.19-.6-.43-1.22-.81-1.73-.58-.79-1.2-1.41-2.18-1.68-.87-.24-2.04-.13-2.81.37-1.62,1.05-2.24,3.03-1.42,4.76.02.08.04.17.07.25.25.9.9,1.74,1.7,2.22.45.26.6.27.81.33.05.02.1.04.15.06.02.01.05.02.07.03-.02,0-.03-.02-.05-.02,1.2.42,2.53-.05,3.51-.98.92-.87,1.35-2.39.95-3.61Z"/><path class="cls-6" d="M157.84,240.7c-.09-.7-.38-1.43-.92-1.92-.43-.39-.92-.68-1.48-.86-.73-.24-1.94-.12-2.58.34-.28.2-.55.4-.81.62-.22.26-.42.53-.62.81-.11.27-.22.53-.34.8-.14.45-.16.89-.06,1.34.09.7.38,1.43.92,1.92.43.39.93.68,1.48.86.71.23,1.96.13,2.58-.34.27-.2.54-.41.81-.62.22-.26.43-.53.61-.81.41-.62.49-1.43.4-2.13Z"/><path class="cls-6" d="M55.42,275.41c-.14-.4-.28-.79-.41-1.19-.19-.66-.52-1.23-1-1.72-.49-.48-1.06-.82-1.72-1-1.34-.37-2.81.02-3.79,1-.98.98-1.37,2.45-1,3.79.19.66.52,1.23,1,1.72.49.48,1.06.82,1.72,1,.4.14.79.28,1.19.41.58.16,1.16.16,1.74,0,.55-.16,1.04-.44,1.44-.84.41-.41.69-.89.84-1.44.16-.58.16-1.16,0-1.74Z"/><path class="cls-5" d="M273.53,202.56c0,.66,0,1.33-.01,1.99,0,.35,0,.71-.01,1.06,0,.24,0,.48-.01.72,0,.52-.02,1.04-.04,1.56-.03,1.13-.07,2.25-.13,3.36-.03.53-.06,1.06-.09,1.6-.03.53-.06,1.06-.1,1.59-.06.93-.13,1.86-.21,2.79-.03.36-.06.73-.1,1.09-.04.5-.09.99-.14,1.49,0,.13-.02.25-.04.38-.01.13-.03.27-.04.4-.05.46-.1.91-.15,1.37-.05.46-.11.92-.16,1.38-.09.71-.18,1.43-.27,2.14-.08.58-.16,1.16-.25,1.74-.09.61-.18,1.22-.28,1.84-.09.54-.18,1.09-.27,1.63-.06.39-.13.79-.2,1.18s-.14.79-.21,1.18c-.09.51-.19,1.01-.29,1.51-.12.62-.24,1.24-.37,1.86-.03.19-.07.38-.12.56-.11.54-.23,1.08-.35,1.61-.37,1.67-.76,3.32-1.18,4.96-.1.4-.2.8-.31,1.19-.04.17-.09.33-.13.5-.11.42-.22.84-.34,1.26-.08.3-.17.6-.25.9-.04.13-.07.25-.11.37-.28,1-.58,1.99-.88,2.97-.17.54-.33,1.07-.51,1.61-.17.53-.34,1.07-.52,1.6-.18.53-.35,1.06-.53,1.59-.36,1.05-.74,2.11-1.12,3.15-.19.51-.37,1.01-.57,1.51,0,.02-.01.05-.03.07-.17.45-.34.9-.52,1.35-.06.16-.12.31-.19.47-.16.42-.33.83-.5,1.25-.77,1.91-1.58,3.78-2.42,5.64-.28.62-.56,1.23-.85,1.84-.08.19-.17.38-.26.56-.22.46-.44.93-.67,1.39-.13.27-.27.55-.41.83-.55,1.1-1.11,2.2-1.68,3.28-.17.32-.33.63-.5.94-.14.26-.28.53-.43.79-.18.33-.35.65-.54.98-.26.47-.52.94-.79,1.41-.21.37-.42.73-.63,1.09-.27.46-.54.92-.81,1.38-.34.57-.68,1.13-1.03,1.69-.32.52-.64,1.04-.97,1.56-.25.38-.49.77-.74,1.16-.58.9-1.17,1.79-1.77,2.67-.28.41-.56.82-.84,1.22-.07.09-.13.19-.2.29-.26.37-.52.74-.78,1.1-.32.46-.65.91-.98,1.36-.3.4-.59.81-.9,1.21-.32.43-.64.85-.96,1.27-.38.5-.77.99-1.15,1.48-.26.34-.53.68-.8,1.01-.33.41-.66.82-1,1.22-.33.41-.67.82-1.01,1.22-.7.84-1.41,1.67-2.13,2.48-.67.76-1.35,1.51-2.03,2.25-.36.39-.71.77-1.07,1.15-.33.35-.67.71-1,1.06-.07.06-.13.13-.2.2-.32.33-.65.66-.97,1-1.1,1.11-2.22,2.21-3.35,3.28-.38.36-.76.71-1.14,1.07-.38.35-.77.71-1.15,1.05-.77.7-1.55,1.39-2.34,2.07-1.18,1.02-2.38,2.01-3.59,2.99-2.43,1.95-4.91,3.82-7.46,5.59-.85.59-1.7,1.17-2.57,1.74-.43.28-.87.57-1.3.85-.87.56-1.75,1.11-2.63,1.65-.44.27-.88.54-1.33.8-.87.52-1.75,1.03-2.63,1.53-1.37.77-2.75,1.52-4.15,2.25-.36.19-.73.38-1.1.57-.15.07-.3.15-.46.23-.14.07-.28.14-.42.21-.26.13-.53.26-.8.39-.15.07-.31.15-.46.22-.31.15-.62.3-.93.45-.47.22-.94.44-1.41.66-.44.2-.88.4-1.33.6l-.18.08c-.38.17-.76.33-1.13.5-1.15.5-2.3.98-3.46,1.44-.34.13-.68.27-1.02.4-.04.01-.07.03-.11.04-.86.34-1.73.66-2.6.98-1.06.39-2.13.77-3.21,1.13-.41.14-.82.27-1.23.41-.45.15-.91.29-1.36.44-.31.1-.62.19-.93.28-1.18.36-2.38.71-3.57,1.03-.32.09-.64.18-.95.26-.43.12-.85.23-1.28.33-.41.11-.83.21-1.24.31-.51.12-1.03.25-1.54.37-2.05.48-4.12.91-6.21,1.29-.57.1-1.13.2-1.7.3-.48.08-.96.16-1.44.24-1.39.22-2.8.42-4.2.59-.39.05-.78.1-1.17.14-.51.06-1.03.12-1.54.17-.44.05-.88.09-1.32.13-1.4.13-2.8.25-4.21.33-.29.02-.58.04-.88.05-.28.02-.57.04-.85.05-.4.02-.81.04-1.21.06-.43.02-.87.03-1.3.05-.95.03-1.9.05-2.85.06-.47,0-.95,0-1.43,0-.72,0-1.43,0-2.15-.02-.29,0-.59,0-.88-.01-.28,0-.57-.02-.85-.03-.32,0-.64-.02-.96-.03-.56-.01-1.1-.04-1.65-.07-.65-.03-1.3-.06-1.95-.11-.53-.03-1.06-.06-1.58-.11-.29-.02-.58-.04-.86-.06-.75-.06-1.5-.13-2.24-.2-.29-.03-.58-.06-.88-.09-.08,0-.17-.02-.25-.03-.36-.04-.71-.08-1.07-.12-.36-.04-.72-.08-1.08-.13-1.13-.14-2.26-.29-3.39-.45-1.12-.17-2.24-.34-3.35-.54-.56-.1-1.12-.2-1.68-.31-.8-.15-1.6-.31-2.39-.47-.4-.08-.8-.17-1.19-.25-.06-.01-.12-.02-.17-.04-.03,0-.06-.01-.08-.02-1.3-.28-2.59-.59-3.87-.91-.16-.04-.32-.08-.48-.12-.31-.08-.62-.16-.94-.24-.31-.08-.63-.17-.94-.25-.31-.08-.61-.17-.92-.25-.14-.04-.29-.08-.44-.13-.4-.11-.79-.23-1.19-.34-.54-.15-1.09-.32-1.62-.48-.1-.03-.19-.06-.29-.09-1.13-.35-2.25-.71-3.37-1.09-.4-.14-.81-.28-1.21-.42-.19-.06-.39-.13-.58-.2-.19-.07-.38-.14-.57-.21-.24-.08-.48-.17-.72-.26-.2-.07-.41-.14-.61-.22-.2-.08-.41-.15-.61-.23-.45-.17-.89-.34-1.33-.51-.29-.12-.58-.23-.87-.35,0,0-.02,0-.03,0-.3-.12-.6-.24-.9-.36-.02,0-.05-.02-.07-.03-.44-.18-.87-.36-1.3-.54-.19-.08-.37-.16-.55-.24-.56-.23-1.1-.48-1.66-.72-.45-.19-.89-.39-1.34-.6-.37-.16-.73-.33-1.1-.5-.65-.31-1.3-.62-1.95-.93-.39-.19-.78-.39-1.16-.58-.39-.19-.79-.39-1.18-.59-1.16-.6-2.32-1.21-3.47-1.84-.42-.24-.84-.47-1.26-.71-.42-.24-.84-.48-1.26-.72-.27-.16-.54-.32-.82-.48-.27-.16-.54-.32-.81-.48-.58-.35-1.16-.7-1.74-1.06-.58-.36-1.15-.72-1.72-1.09-.57-.37-1.14-.74-1.71-1.11-.52-.34-1.04-.7-1.56-1.05-.04-.03-.09-.06-.13-.09-.55-.38-1.1-.77-1.65-1.15-1.11-.79-2.22-1.6-3.31-2.43-.2-.15-.4-.3-.61-.46-.04-.03-.07-.06-.11-.08-.19-.15-.39-.31-.59-.46-1.09-.83-2.16-1.69-3.22-2.57-.08-.07-.16-.13-.24-.2-.43-.35-.85-.7-1.27-1.06-.36-.31-.72-.62-1.08-.93-.22-.19-.44-.38-.65-.57-.19-.17-.38-.33-.57-.5-.23-.2-.45-.4-.68-.61-.08-.07-.16-.14-.24-.21-.2-.19-.4-.37-.61-.56-.2-.19-.4-.37-.6-.56-.33-.32-.67-.63-1.01-.94-.33-.32-.66-.63-.99-.95-.25-.24-.49-.48-.74-.72-.15-.15-.3-.3-.45-.45-.41-.41-.82-.82-1.23-1.23-.06-.06-.13-.13-.19-.2-.48-.5-.96-.98-1.41-1.47l-.02-.02c-.39-.41-.78-.83-1.16-1.24-.07-.07-.13-.14-.2-.22-.02-.02-.03-.04-.05-.06-.01-.02-.03-.04-.06-.06-.21-.23-.42-.46-.63-.69-.04-.04-.07-.08-.11-.13-.18-.19-.35-.39-.52-.58-.34-.37-.67-.75-1-1.13-.14-.16-.28-.32-.42-.48-.38-.44-.76-.88-1.13-1.31-.48-.57-.96-1.15-1.43-1.72-.21-.26-.43-.53-.64-.79-.22-.26-.43-.53-.64-.8-.03-.04-.06-.07-.09-.11-.07-.09-.15-.19-.22-.28-.12-.15-.25-.31-.37-.47-.19-.25-.39-.51-.58-.76-.42-.54-.83-1.09-1.24-1.63-.14-.19-.29-.38-.44-.57-.06-.08-.12-.17-.18-.25-.2-.28-.4-.56-.6-.84-.19-.25-.37-.5-.55-.76-.22-.31-.44-.61-.65-.92-.32-.46-.65-.93-.98-1.4-.06-.1-.13-.19-.2-.29-.42-.62-.84-1.24-1.25-1.86-.04-.06-.08-.13-.12-.19-.38-.57-.75-1.14-1.11-1.72-.27-.43-.54-.85-.8-1.28.48.25.97.49,1.45.73,11.66,5.8,24.31,10.09,37.74,12.63l.2.04c4.56.85,9.1,1.49,13.63,1.91,2.12.2,4.24.36,6.36.46,9.24.46,18.38.03,27.3-1.24,35.49-5.02,67.77-23.3,90.92-51.54,2.4-2.93,4.71-5.98,6.9-9.12.67-.95,1.32-1.91,1.96-2.87,10.98-16.47,19.13-35.66,23.55-57.07.22-1.03.42-2.07.62-3.11,1.63-8.68,2.68-17.81,3.15-27.26.51-10.03.39-20.4-.36-30.9-.52-7.52-1.37-15.11-2.52-22.7-.56-3.65-1.18-7.3-1.88-10.93-1.78-9.32-4.01-18.58-6.69-27.64,0,0,0-.01,0-.02.32.45.64.91.96,1.37.41.59.83,1.19,1.23,1.79,1.23,1.8,2.44,3.62,3.62,5.46.39.62.79,1.23,1.18,1.86.39.62.78,1.24,1.17,1.86.39.63.77,1.25,1.15,1.89.19.32.39.64.58.95.12.19.24.39.35.58.07.13.15.25.22.38.57.95,1.13,1.9,1.67,2.86.28.48.56.96.83,1.43.28.49.56.98.83,1.48.73,1.31,1.45,2.63,2.16,3.95.19.35.38.7.56,1.04.28.52.55,1.03.82,1.54.24.45.47.9.7,1.36,0,.02.02.03.02.05.33.65.67,1.3,1,1.95.02.04.04.07.06.12.32.63.64,1.26.95,1.89.28.57.56,1.14.83,1.71.4.81.79,1.63,1.17,2.45.16.33.32.67.48,1.01.14.31.29.62.44.93.32.69.64,1.37.95,2.06.32.69.63,1.38.93,2.08.62,1.38,1.22,2.77,1.81,4.16.13.31.26.62.39.92.02.04.03.08.05.12.14.35.29.7.44,1.05.29.7.58,1.4.87,2.1.25.62.5,1.23.75,1.86.28.71.56,1.41.83,2.12.55,1.41,1.09,2.82,1.62,4.24.03.08.06.16.09.24.2.53.39,1.06.58,1.6.05.13.1.26.14.4.25.68.49,1.35.73,2.03.25.71.5,1.42.75,2.14.03.08.06.16.08.24.25.71.49,1.42.73,2.14.24.71.48,1.43.71,2.15.23.69.45,1.38.67,2.07.09.29.18.59.27.88.07.23.14.45.21.68.72,2.29,1.41,4.59,2.06,6.89.3,1.03.58,2.06.86,3.09.21.77.41,1.53.61,2.3.12.44.23.88.35,1.32.13.47.24.95.36,1.42.05.18.09.36.14.55.19.77.38,1.54.57,2.31.19.77.37,1.54.55,2.31.19.83.38,1.66.56,2.49.11.49.22.98.32,1.47.01.07.03.14.05.21.16.72.31,1.44.45,2.16.13.66.27,1.33.4,2,.13.64.25,1.29.37,1.93,0,.03.01.07.02.1.02.08.03.17.05.24.11.57.21,1.14.31,1.7,0,0,0,.01,0,.02.06.32.12.64.17.97.23,1.24.44,2.48.63,3.72,0,.03,0,.05.01.08.11.68.21,1.36.32,2.04,0,.07.02.14.03.22.09.57.17,1.13.25,1.69.04.28.08.57.12.85.15,1.03.29,2.07.41,3.09.05.38.1.76.14,1.13.04.3.07.6.11.9.04.35.08.7.12,1.04.06.53.12,1.06.17,1.59.15,1.45.29,2.89.41,4.32.05.63.1,1.27.15,1.91.02.3.05.6.07.9.02.29.04.58.06.87,0,.1,0,.19.02.29,0,.1,0,.19.02.29.04.59.07,1.17.1,1.76.04.7.07,1.39.1,2.07.03.67.06,1.34.08,1.99,0,.33.02.67.03,1,0,.33.02.66.02.99v.05c.01.67.03,1.33.03,1.99,0,.67.01,1.33.01,1.99Z"/><path class="cls-3" d="M109.86,28.25c-17.14-1.9-33.59,18.55-43.19,30.16-17.26,20.86-30.39,45.42-37.8,71.48-3.78,13.28-6.07,27.03-6.36,40.85-.22,10.21-1.36,28.74,5.59,37.11.41.5.86.95,1.35,1.37,4.86,4.17,13.16,4.54,17.59-.36.43-.48.83-1,1.19-1.56,5.06-7.79,4.21-19.49,5.3-28.42,1.47-12.02,3.73-23.94,6.76-35.66,5.32-20.62,13.62-40.35,23.43-59.22,4.91-9.46,10.22-18.71,15.76-27.82,2.24-3.68,21.39-26.72,10.39-27.94Z"/><path class="cls-4" d="M78.97,118.38c-3.76,10.85-6.09,22.37-6.95,33.84-.7,9.32,6.15,16.16,10.9,6.84,5.22-10.22,16.09-58.42,10.16-60.89-4.94-2.07-11.99,14.06-14.11,20.21Z"/></svg>