<?xml version="1.0" encoding="UTF-8"?><svg id="_횓횙횊_1" xmlns="http://www.w3.org/2000/svg" xmlns:xlink="http://www.w3.org/1999/xlink" viewBox="0 0 272.64 348.58"><defs><style>.cls-1{fill:#1d1d1b;opacity:.12;}.cls-2{fill:url(#_횂횁_횕_횑횑_횊_횏횂횑횣_2);}.cls-3{opacity:.25;}.cls-3,.cls-4,.cls-5{fill:#fff;}.cls-4{opacity:.32;}.cls-5{opacity:.37;}</style><linearGradient id="_횂횁_횕_횑횑_횊_횏횂횑횣_2" x1="189.06" y1="327.4" x2="59.15" y2="3.93" gradientUnits="userSpaceOnUse"><stop offset=".05" stop-color="#bf6b04"/><stop offset=".97" stop-color="#f2be22"/></linearGradient></defs><path class="cls-2" d="M272.64,201.91c0,21.99-4.13,42.46-11.57,60.72-5.79,14.23-13.6,27.12-23.02,38.33-12.4,14.75-27.6,26.6-44.71,34.79-17.35,8.3-36.66,12.85-57.02,12.85-15.07,0-29.57-2.49-43.13-7.15-18.68-6.43-35.56-16.98-49.66-30.83-11.54-11.32-21.22-24.84-28.49-40.12-1.3-2.72-2.52-5.51-3.66-8.34C4.06,244.01,0,223.7,0,201.91c0-.88,0-1.75.02-2.64.55-37.54,12.86-81.15,32.93-117.99,6.94-12.76,14.82-24.7,23.46-35.3C73.94,24.49,94.6,8.53,117.03,2.57c6.3-1.68,12.74-2.57,19.29-2.57,10.67,0,21.05,2.36,31.01,6.64,16.13,6.94,31.16,18.93,44.52,34.17,8.59,9.79,16.49,20.91,23.55,32.9.82,1.39,1.63,2.79,2.43,4.21,1.24,2.2,2.46,4.43,3.64,6.69.31.58.61,1.16.91,1.74.29.56.57,1.11.86,1.67.03.06.06.12.09.18.28.55.56,1.1.83,1.66.29.59.58,1.17.87,1.76.29.59.58,1.18.86,1.78.28.59.57,1.18.85,1.78.84,1.79,1.67,3.58,2.47,5.39.53,1.18,1.05,2.36,1.56,3.54,0,.03.02.06.03.08.52,1.22,1.04,2.43,1.54,3.65.26.61.5,1.22.75,1.83.25.61.49,1.23.74,1.84.37.92.73,1.84,1.09,2.76.36.92.7,1.85,1.05,2.77.23.62.46,1.24.69,1.86.23.62.45,1.24.67,1.86.22.62.45,1.24.66,1.86.44,1.24.86,2.49,1.28,3.73.21.62.42,1.25.62,1.87.2.63.41,1.25.61,1.87.2.63.39,1.25.59,1.88.73,2.35,1.43,4.69,2.1,7.05.22.78.44,1.57.65,2.35.17.63.34,1.26.51,1.88.17.63.33,1.25.5,1.88.12.49.25.98.38,1.47.19.77.39,1.53.57,2.3.15.6.29,1.19.44,1.79,0,.06.02.11.04.17.13.56.26,1.13.39,1.69.02.07.04.15.05.22.13.56.26,1.13.38,1.69.01.05.02.1.03.15.12.51.23,1.03.33,1.54.11.49.21.98.31,1.47.1.48.2.97.3,1.45.08.39.16.79.24,1.19.12.59.23,1.18.34,1.77.38,2,.73,3.99,1.06,5.98.16.95.31,1.9.45,2.85.33,2.17.63,4.32.9,6.47.08.63.15,1.25.22,1.87.06.57.13,1.13.19,1.69.08.77.16,1.53.23,2.29.06.6.12,1.21.17,1.81.06.6.1,1.19.15,1.79,0,.07,0,.15.01.23.05.61.09,1.21.13,1.81.04.53.07,1.06.11,1.59.05.77.09,1.53.13,2.29.03.51.05,1.02.07,1.52,0,.12.01.23.01.34.02.51.04,1.01.06,1.51.05,1.43.08,2.86.09,4.28,0,.53,0,1.06,0,1.59Z"/><path class="cls-3" d="M155.81,174.22c-16.7,60.42-60.8,98.06-100.03,89.67-27.54-5.89-45.36-32.88-47.77-69.34-1.02-15.49.73-32.69,5.71-50.7C30.43,83.41,85.43,6.3,124.67,14.69c21.01,4.49,33.24,32.59,37.5,67.01,3.7,29.85,1.4,64.45-6.36,92.52Z"/><path class="cls-5" d="M272.64,201.91c0,21.99-4.13,42.46-11.57,60.72-5.79,14.23-13.6,27.12-23.02,38.33-12.4,14.75-27.6,26.6-44.71,34.79-17.35,8.3-36.66,12.85-57.02,12.85-15.07,0-29.57-2.49-43.13-7.15-18.68-6.43-35.56-16.98-49.66-30.83-11.54-11.32-21.22-24.84-28.49-40.12.06.03.11.06.16.1,8.07,14.4,18.38,27.03,30.41,37.41,14.44,12.48,31.36,21.75,49.87,27.04,11.64,3.33,23.9,5.09,36.56,5.09,21.53,0,41.88-5.08,59.99-14.32,6.97-3.55,13.6-7.72,19.84-12.46.69-.51,1.37-1.04,2.05-1.59,5.22-4.12,10.16-8.65,14.76-13.55,10.07-10.71,18.55-23.18,25.06-37.07,8.64-18.45,13.8-39.41,14.53-62.08.06-1.86.09-3.74.09-5.62,0-34.22-10-73.82-26.91-108.85.31.58.61,1.16.91,1.74.29.56.57,1.11.86,1.67.03.06.06.12.09.18.28.55.56,1.1.83,1.66.29.59.58,1.17.87,1.76.29.59.58,1.18.86,1.78.28.59.57,1.18.85,1.78.84,1.79,1.67,3.58,2.47,5.39.53,1.18,1.05,2.36,1.56,3.54,0,.03.02.06.03.08.52,1.22,1.03,2.43,1.54,3.65.26.61.5,1.22.75,1.83.25.61.49,1.23.74,1.84.37.92.73,1.84,1.09,2.76.36.92.7,1.85,1.05,2.77.23.62.46,1.24.69,1.86.23.62.45,1.24.67,1.86.22.62.45,1.24.66,1.86.44,1.24.86,2.49,1.28,3.73.21.62.42,1.25.62,1.87.2.63.41,1.25.61,1.87.2.63.39,1.25.59,1.88.73,2.35,1.43,4.69,2.1,7.05.22.78.44,1.57.65,2.35.17.63.34,1.26.51,1.88.17.63.33,1.25.5,1.88.12.49.25.98.38,1.47.19.77.39,1.53.57,2.3.15.6.29,1.19.44,1.79,0,.06.02.11.04.17.13.56.26,1.13.39,1.69.02.07.04.15.05.22.13.56.26,1.13.38,1.69.01.05.02.1.03.15.12.51.23,1.03.33,1.54.11.49.21.98.31,1.47.1.48.2.97.3,1.45.08.39.16.79.24,1.19.12.59.23,1.18.34,1.77.38,2,.73,3.99,1.06,5.98.16.95.31,1.9.45,2.85.33,2.17.63,4.32.9,6.47.08.63.15,1.25.22,1.87.06.57.13,1.13.19,1.69.08.77.16,1.53.23,2.29.06.6.12,1.21.17,1.81.06.6.1,1.19.15,1.79,0,.07,0,.15.01.23.05.61.09,1.21.13,1.81.04.53.07,1.06.11,1.59.05.77.09,1.53.13,2.29.03.51.05,1.02.07,1.52,0,.12.01.23.01.34.02.51.04,1.01.06,1.51.05,1.43.08,2.86.09,4.28,0,.53,0,1.06,0,1.59Z"/><path class="cls-4" d="M106.63,36.69c-10.15-1.12-21.11,7.52-28.03,13.87-38.38,35.18-62.01,95.73-57.72,147.65.47,5.72.17,13.5,3.99,18.09,4.51,5.41,14.06,6.39,18.94,1.01,6.07-6.7,4.88-21.76,6.31-30.32,4.22-25.3,9.8-51.51,20.19-74.98,10.43-23.57,24.31-45.37,38.27-66.97.83-1.29,1.7-2.67,1.71-4.21.03-2.72-1.47-3.89-3.67-4.13Z"/><path class="cls-4" d="M75.75,126.82c-3.76,10.85-6.09,22.37-6.95,33.84-.7,9.32,6.15,16.16,10.9,6.84,5.22-10.22,16.09-58.42,10.16-60.89-4.94-2.07-11.98,14.06-14.11,20.21Z"/><path class="cls-1" d="M272.64,201.91c0,21.99-4.13,42.46-11.57,60.72-5.79,14.23-13.6,27.12-23.02,38.33-12.4,14.75-27.6,26.6-44.71,34.79-17.35,8.3-36.66,12.85-57.02,12.85-15.07,0-29.57-2.49-43.13-7.15-18.68-6.43-35.56-16.98-49.66-30.83-11.54-11.32-21.22-24.84-28.49-40.12.06.03.11.06.16.1,10.73,6.53,22.45,11.99,35.01,16.16,65.4,21.73,133.24,1.97,169.17-48.34,6.29-8.8,11.59-18.54,15.74-29.16.88-2.24,1.7-4.52,2.47-6.84,11.81-35.54,11.73-82.18.22-124.49,1.24,2.2,2.46,4.43,3.64,6.69.31.58.61,1.16.91,1.74.29.56.57,1.11.86,1.67.03.06.06.12.09.18.28.55.56,1.1.83,1.66.29.59.58,1.17.87,1.76.29.59.58,1.18.86,1.78.28.59.57,1.18.85,1.78.84,1.79,1.67,3.58,2.47,5.39.53,1.18,1.05,2.36,1.56,3.54,0,.03.02.06.03.08.52,1.22,1.04,2.43,1.54,3.65.26.61.5,1.22.75,1.83.25.61.49,1.23.74,1.84.37.92.73,1.84,1.09,2.76.36.92.7,1.85,1.05,2.77.23.62.46,1.24.69,1.86.23.62.45,1.24.67,1.86.22.62.45,1.24.66,1.86.44,1.24.86,2.49,1.28,3.73.21.62.42,1.25.62,1.87.2.63.41,1.25.61,1.87.2.63.39,1.25.59,1.88.73,2.35,1.43,4.69,2.1,7.05.22.78.44,1.57.65,2.35.17.63.34,1.26.51,1.88.17.63.33,1.25.5,1.88.12.49.25.98.38,1.47.19.77.39,1.53.57,2.3.15.6.29,1.19.44,1.79,0,.06.02.11.04.17.13.56.26,1.13.39,1.69.02.07.04.15.05.22.13.56.26,1.13.38,1.69.01.05.02.1.03.15.12.51.23,1.03.33,1.54.11.49.21.98.31,1.47.1.48.2.97.3,1.45.08.39.16.79.24,1.19.12.59.23,1.18.34,1.77.38,2,.73,3.99,1.06,5.98.16.95.31,1.9.45,2.85.33,2.17.63,4.32.9,6.47.08.63.15,1.25.22,1.87.06.57.13,1.13.19,1.69.08.77.16,1.53.23,2.29.06.6.12,1.21.17,1.81.06.6.1,1.19.15,1.79,0,.07,0,.15.01.23.05.61.09,1.21.13,1.81.04.53.07,1.06.11,1.59.05.77.09,1.53.13,2.29.03.51.05,1.02.07,1.52,0,.12.01.23.01.34.02.51.04,1.01.06,1.51.05,1.43.08,2.86.09,4.28,0,.53,0,1.06,0,1.59Z"/></svg>